<svg xmlns="http://www.w3.org/2000/svg" xmlns:xlink="http://www.w3.org/1999/xlink" width="500" zoomAndPan="magnify" viewBox="0 0 375 374.999991" height="500" preserveAspectRatio="xMidYMid meet" version="1.0"><defs><g/><clipPath id="id1"><path d="M 46 41.226562 L 330 41.226562 L 330 229.878906 L 46 229.878906 Z M 46 41.226562 " clip-rule="nonzero"/></clipPath><clipPath id="id2"><path d="M 109 100 L 267 100 L 267 167.769531 L 109 167.769531 Z M 109 100 " clip-rule="nonzero"/></clipPath><clipPath id="id3"><path d="M 107.050781 86 L 189 86 L 189 164 L 107.050781 164 Z M 107.050781 86 " clip-rule="nonzero"/></clipPath><clipPath id="id4"><path d="M 119 77.070312 L 189 77.070312 L 189 164 L 119 164 Z M 119 77.070312 " clip-rule="nonzero"/></clipPath><clipPath id="id5"><path d="M 186 86 L 268.492188 86 L 268.492188 164 L 186 164 Z M 186 86 " clip-rule="nonzero"/></clipPath><clipPath id="id6"><path d="M 186 77.070312 L 257 77.070312 L 257 164 L 186 164 Z M 186 77.070312 " clip-rule="nonzero"/></clipPath></defs><g clip-path="url(#id1)"><path fill="#cff4fd" d="M 291.699219 41.226562 L 84.304688 41.226562 C 74.59375 41.226562 66.652344 49.125 66.652344 58.777344 L 66.652344 196.097656 C 65.992188 196.535156 65.328125 196.972656 64.667969 197.632812 L 49 215.179688 C 46.796875 217.8125 46.132812 221.542969 47.457031 224.613281 C 49 227.902344 52.089844 229.878906 55.621094 229.878906 L 320.382812 229.878906 C 323.914062 229.878906 327 227.902344 328.324219 224.613281 C 329.648438 221.542969 329.207031 217.8125 326.78125 215.179688 L 311.117188 197.632812 C 310.453125 196.972656 309.792969 196.535156 309.128906 196.097656 L 309.128906 58.777344 C 309.351562 49.125 301.40625 41.226562 291.699219 41.226562 Z M 75.476562 58.777344 C 75.476562 53.949219 79.449219 50 84.304688 50 L 291.699219 50 C 296.554688 50 300.523438 53.949219 300.523438 58.777344 L 300.523438 194.78125 L 75.476562 194.78125 Z M 320.382812 221.101562 L 55.621094 221.101562 L 71.285156 203.554688 L 304.71875 203.554688 Z M 320.382812 221.101562 " fill-opacity="1" fill-rule="nonzero"/></g><path fill="#cff4fd" d="M 282.875 58.777344 L 93.128906 58.777344 C 88.273438 58.777344 84.304688 62.726562 84.304688 67.550781 L 84.304688 177.230469 C 84.304688 182.058594 88.273438 186.003906 93.128906 186.003906 L 282.875 186.003906 C 287.726562 186.003906 291.699219 182.058594 291.699219 177.230469 L 291.699219 67.550781 C 291.699219 62.726562 287.726562 58.777344 282.875 58.777344 Z M 166.160156 113.175781 L 178.734375 100.675781 C 180.5 98.917969 183.148438 98.917969 184.914062 100.675781 C 186.675781 102.429688 186.675781 105.0625 184.914062 106.816406 L 172.335938 119.320312 C 171.453125 120.195312 170.351562 120.636719 169.246094 120.636719 C 168.144531 120.636719 167.042969 120.195312 166.160156 119.320312 C 164.394531 117.566406 164.394531 114.714844 166.160156 113.175781 Z M 172.335938 142.351562 C 171.234375 142.351562 170.128906 141.914062 169.246094 141.035156 C 167.484375 139.28125 167.484375 136.648438 169.246094 134.894531 L 200.355469 103.964844 C 202.121094 102.210938 204.769531 102.210938 206.535156 103.964844 C 208.300781 105.71875 208.300781 108.351562 206.535156 110.105469 L 175.425781 141.035156 C 174.761719 141.914062 173.441406 142.351562 172.335938 142.351562 Z M 209.84375 131.605469 L 197.269531 144.109375 C 196.386719 144.984375 195.28125 145.421875 194.179688 145.421875 C 193.074219 145.421875 191.972656 144.984375 191.089844 144.109375 C 189.324219 142.351562 189.324219 139.71875 191.089844 137.964844 L 203.667969 125.460938 C 205.433594 123.707031 208.078125 123.707031 209.84375 125.460938 C 211.609375 127.214844 211.609375 130.070312 209.84375 131.605469 Z M 209.84375 131.605469 " fill-opacity="1" fill-rule="nonzero"/><path fill="#cff4fd" d="M 84.433594 80.960938 L 289.363281 80.960938 L 289.363281 164.402344 L 84.433594 164.402344 L 84.433594 80.960938 " fill-opacity="1" fill-rule="nonzero"/><path fill="#ffffff" d="M 263 162.25 L 256.605469 103.890625 L 190.164062 103.890625 L 190.164062 103.503906 L 185.453125 103.503906 L 185.453125 103.890625 L 119.015625 103.890625 L 112.617188 162.25 L 185.453125 162.25 L 185.453125 161.929688 C 185.453125 163.222656 186.507812 164.277344 187.808594 164.277344 C 189.109375 164.277344 190.164062 163.222656 190.164062 161.929688 L 190.164062 162.25 L 263 162.25 " fill-opacity="1" fill-rule="nonzero"/><g clip-path="url(#id2)"><path fill="#000000" d="M 185.453125 158.464844 C 186.363281 158.464844 187.191406 158.816406 187.808594 159.386719 C 188.429688 158.816406 189.253906 158.464844 190.164062 158.464844 C 190.6875 158.464844 191.183594 158.582031 191.628906 158.789062 L 259.128906 158.789062 L 253.488281 107.351562 L 190.164062 107.351562 C 189.585938 107.351562 189.042969 107.210938 188.5625 106.964844 L 187.058594 106.964844 C 186.578125 107.210938 186.03125 107.351562 185.453125 107.351562 L 122.128906 107.351562 L 116.492188 158.789062 L 183.992188 158.789062 C 184.4375 158.582031 184.929688 158.464844 185.453125 158.464844 Z M 187.808594 167.738281 C 186.042969 167.738281 184.457031 166.949219 183.390625 165.710938 L 112.617188 165.710938 C 111.628906 165.710938 110.691406 165.292969 110.03125 164.558594 C 109.371094 163.828125 109.058594 162.851562 109.164062 161.871094 L 115.5625 103.515625 C 115.753906 101.757812 117.242188 100.429688 119.015625 100.429688 L 183.851562 100.429688 C 184.332031 100.179688 184.875 100.042969 185.453125 100.042969 L 190.164062 100.042969 C 190.746094 100.042969 191.289062 100.179688 191.769531 100.429688 L 256.605469 100.429688 C 258.378906 100.429688 259.863281 101.757812 260.058594 103.515625 L 266.453125 161.871094 C 266.5625 162.851562 266.246094 163.828125 265.585938 164.558594 C 264.929688 165.292969 263.988281 165.710938 263 165.710938 L 192.230469 165.710938 C 191.160156 166.949219 189.574219 167.738281 187.808594 167.738281 " fill-opacity="1" fill-rule="nonzero"/></g><path fill="#ffffff" d="M 187.753906 103.699219 C 187.753906 103.699219 172.203125 83.894531 152.886719 95.628906 C 133.570312 107.367188 117.628906 98.917969 117.628906 98.917969 L 111.234375 157.292969 C 111.234375 157.292969 133.570312 165.742188 152.886719 154.003906 C 172.203125 142.269531 187.753906 162.074219 187.753906 162.074219 L 187.753906 103.699219 " fill-opacity="1" fill-rule="nonzero"/><path fill="#000000" d="M 165.402344 149.25 C 175.519531 149.25 183.308594 155.863281 186.710938 159.351562 L 186.710938 104.070312 C 185.25 102.351562 176.742188 92.949219 165.402344 92.949219 C 161.351562 92.949219 157.324219 94.148438 153.429688 96.519531 C 146.460938 100.75 139.148438 102.898438 131.703125 102.898438 C 125.402344 102.898438 120.707031 101.351562 118.511719 100.453125 L 112.359375 156.582031 C 114.535156 157.289062 121.15625 159.199219 129.359375 159.199219 C 137.972656 159.199219 145.707031 157.152344 152.34375 153.117188 C 156.570312 150.550781 160.964844 149.25 165.402344 149.25 Z M 187.753906 163.109375 C 187.4375 163.109375 187.132812 162.96875 186.929688 162.714844 C 186.84375 162.597656 177.824219 151.324219 165.402344 151.324219 C 161.351562 151.324219 157.324219 152.527344 153.429688 154.890625 C 146.460938 159.125 138.363281 161.273438 129.359375 161.273438 C 118.941406 161.273438 111.1875 158.386719 110.863281 158.261719 C 110.417969 158.09375 110.148438 157.648438 110.199219 157.179688 L 116.59375 98.804688 C 116.632812 98.460938 116.839844 98.160156 117.144531 98 C 117.449219 97.839844 117.816406 97.839844 118.121094 98 C 118.171875 98.027344 123.574219 100.824219 131.703125 100.824219 C 138.761719 100.820312 145.707031 98.777344 152.34375 94.746094 C 156.570312 92.175781 160.964844 90.875 165.402344 90.875 C 178.851562 90.875 188.183594 102.5625 188.574219 103.058594 C 188.714844 103.242188 188.792969 103.464844 188.792969 103.699219 L 188.792969 162.074219 C 188.792969 162.515625 188.511719 162.910156 188.09375 163.054688 C 187.980469 163.09375 187.863281 163.109375 187.753906 163.109375 " fill-opacity="1" fill-rule="nonzero"/><path fill="#ffffff" d="M 187.753906 104.28125 C 187.753906 104.28125 178.5 81.722656 154 89.234375 C 129.5 96.75 131.484375 95.589844 114.523438 89.015625 L 108.125 146.804688 C 125.085938 153.378906 129.5 154.539062 154 147.027344 C 178.5 139.515625 187.753906 162.074219 187.753906 162.074219 L 187.753906 104.28125 " fill-opacity="1" fill-rule="nonzero"/><g clip-path="url(#id3)"><path fill="#000000" d="M 163.578125 144.457031 C 176.1875 144.457031 183.480469 152.945312 186.710938 158.003906 L 186.710938 104.5 C 185.917969 102.753906 179.078125 88.742188 163.578125 88.742188 C 160.640625 88.742188 157.523438 89.242188 154.304688 90.230469 C 142.1875 93.945312 136.785156 95.457031 132.128906 95.457031 C 127.871094 95.457031 124.636719 94.164062 118.761719 91.808594 C 117.734375 91.398438 116.621094 90.953125 115.410156 90.476562 L 109.25 146.128906 C 117.597656 149.355469 122.777344 151.175781 129.164062 151.175781 C 134.828125 151.175781 141.476562 149.78125 153.691406 146.035156 C 157.105469 144.988281 160.433594 144.457031 163.578125 144.457031 Z M 187.75 163.109375 C 187.335938 163.109375 186.949219 162.859375 186.789062 162.464844 C 186.722656 162.308594 180.027344 146.535156 163.578125 146.535156 C 160.640625 146.535156 157.523438 147.035156 154.304688 148.019531 C 141.871094 151.832031 135.054688 153.25 129.164062 153.25 C 122.230469 153.25 116.507812 151.171875 107.746094 147.773438 C 107.308594 147.605469 107.039062 147.160156 107.089844 146.691406 L 113.488281 88.902344 C 113.523438 88.582031 113.707031 88.292969 113.984375 88.128906 C 114.257812 87.960938 114.597656 87.929688 114.902344 88.046875 C 116.625 88.714844 118.15625 89.328125 119.535156 89.882812 C 125.171875 92.140625 128.273438 93.382812 132.128906 93.382812 C 136.480469 93.382812 142.042969 91.816406 153.691406 88.246094 C 157.105469 87.199219 160.433594 86.667969 163.578125 86.667969 C 181.445312 86.667969 188.648438 103.71875 188.71875 103.890625 C 188.765625 104.011719 188.792969 104.148438 188.792969 104.28125 L 188.792969 162.074219 C 188.792969 162.570312 188.441406 162.996094 187.953125 163.089844 C 187.886719 163.105469 187.820312 163.109375 187.75 163.109375 " fill-opacity="1" fill-rule="nonzero"/></g><path fill="#ffffff" d="M 157.789062 79.105469 C 139.289062 81.15625 145.554688 86.394531 126.644531 79.429688 L 120.246094 137.601562 C 139.160156 144.566406 139.289062 139.328125 157.789062 137.28125 C 176.289062 135.230469 187.753906 162.074219 187.753906 162.074219 L 187.753906 103.902344 C 187.753906 103.902344 176.289062 77.058594 157.789062 79.105469 " fill-opacity="1" fill-rule="nonzero"/><g clip-path="url(#id4)"><path fill="#000000" d="M 159.800781 136.128906 C 173.378906 136.128906 182.804688 150.382812 186.710938 157.605469 L 186.710938 104.117188 C 185.691406 101.851562 175.449219 80.035156 159.800781 80.035156 C 159.175781 80.035156 158.535156 80.070312 157.90625 80.140625 C 151.421875 80.855469 148.007812 81.980469 145.515625 82.800781 C 143.539062 83.453125 141.972656 83.964844 139.894531 83.964844 C 137.203125 83.964844 133.785156 83.113281 127.535156 80.859375 L 121.371094 136.90625 C 127.496094 139.113281 131.753906 140.0625 135.507812 140.0625 C 138.550781 140.0625 141.160156 139.4375 144.464844 138.652344 C 147.746094 137.871094 151.835938 136.894531 157.675781 136.246094 C 158.382812 136.167969 159.097656 136.128906 159.800781 136.128906 Z M 187.75 163.109375 C 187.339844 163.109375 186.960938 162.871094 186.792969 162.480469 C 186.6875 162.238281 176.222656 138.207031 159.800781 138.207031 C 159.175781 138.207031 158.535156 138.242188 157.90625 138.3125 C 152.195312 138.945312 148.175781 139.902344 144.945312 140.671875 C 141.511719 141.492188 138.796875 142.140625 135.507812 142.140625 C 131.339844 142.140625 126.667969 141.074219 119.886719 138.574219 C 119.4375 138.410156 119.160156 137.960938 119.210938 137.488281 L 125.609375 79.316406 C 125.644531 78.996094 125.824219 78.714844 126.097656 78.546875 C 126.367188 78.378906 126.703125 78.34375 127.003906 78.453125 C 133.714844 80.925781 137.332031 81.890625 139.894531 81.890625 C 141.640625 81.886719 142.992188 81.445312 144.859375 80.828125 C 147.441406 79.980469 150.976562 78.816406 157.675781 78.074219 C 158.382812 77.996094 159.097656 77.957031 159.800781 77.957031 C 177.601562 77.957031 188.265625 102.449219 188.710938 103.492188 C 188.765625 103.625 188.792969 103.761719 188.792969 103.902344 L 188.792969 162.074219 C 188.792969 162.566406 188.445312 162.992188 187.960938 163.089844 C 187.890625 163.105469 187.820312 163.109375 187.75 163.109375 " fill-opacity="1" fill-rule="nonzero"/></g><path fill="#ffffff" d="M 187.753906 103.699219 C 187.753906 103.699219 203.300781 83.894531 222.617188 95.628906 C 241.933594 107.367188 257.875 98.917969 257.875 98.917969 L 264.269531 157.292969 C 264.269531 157.292969 241.933594 165.742188 222.617188 154.003906 C 203.300781 142.269531 187.753906 162.074219 187.753906 162.074219 L 187.753906 103.699219 " fill-opacity="1" fill-rule="nonzero"/><path fill="#000000" d="M 188.792969 104.070312 L 188.792969 159.351562 C 192.199219 155.863281 199.984375 149.25 210.101562 149.25 C 214.542969 149.25 218.933594 150.550781 223.160156 153.117188 C 229.800781 157.152344 237.53125 159.199219 246.144531 159.199219 C 254.363281 159.195312 260.976562 157.289062 263.144531 156.582031 L 256.996094 100.453125 C 254.796875 101.351562 250.097656 102.898438 243.800781 102.898438 C 236.355469 102.898438 229.046875 100.753906 222.078125 96.519531 C 218.183594 94.148438 214.152344 92.949219 210.101562 92.949219 C 198.761719 92.949219 190.253906 102.351562 188.792969 104.070312 Z M 187.753906 163.109375 C 187.640625 163.109375 187.523438 163.09375 187.414062 163.054688 C 186.992188 162.910156 186.710938 162.515625 186.710938 162.074219 L 186.710938 103.699219 C 186.710938 103.464844 186.789062 103.242188 186.929688 103.058594 C 187.324219 102.5625 196.652344 90.875 210.101562 90.875 C 214.542969 90.875 218.933594 92.175781 223.160156 94.746094 C 229.796875 98.777344 236.742188 100.824219 243.800781 100.824219 C 251.96875 100.824219 257.332031 98.03125 257.382812 98 C 257.691406 97.839844 258.054688 97.839844 258.359375 98 C 258.667969 98.160156 258.871094 98.464844 258.910156 98.804688 L 265.304688 157.179688 C 265.359375 157.648438 265.082031 158.09375 264.640625 158.261719 C 264.3125 158.386719 256.5625 161.273438 246.144531 161.273438 C 237.144531 161.273438 229.046875 159.125 222.078125 154.890625 C 218.183594 152.527344 214.152344 151.324219 210.101562 151.324219 C 197.65625 151.324219 188.664062 162.597656 188.574219 162.714844 C 188.371094 162.96875 188.066406 163.109375 187.753906 163.109375 " fill-opacity="1" fill-rule="nonzero"/><path fill="#ffffff" d="M 187.753906 104.28125 C 187.753906 104.28125 197.003906 81.722656 221.507812 89.234375 C 246.003906 96.75 244.019531 95.589844 260.980469 89.015625 L 267.378906 146.804688 C 250.417969 153.378906 246.003906 154.539062 221.507812 147.027344 C 197.003906 139.515625 187.753906 162.074219 187.753906 162.074219 L 187.753906 104.28125 " fill-opacity="1" fill-rule="nonzero"/><g clip-path="url(#id5)"><path fill="#000000" d="M 188.792969 104.496094 L 188.792969 158.003906 C 192.023438 152.945312 199.316406 144.457031 211.929688 144.457031 C 215.070312 144.457031 218.398438 144.988281 221.8125 146.035156 C 234.027344 149.78125 240.675781 151.175781 246.34375 151.175781 C 252.726562 151.175781 257.90625 149.355469 266.257812 146.128906 L 260.09375 90.476562 C 258.882812 90.953125 257.773438 91.398438 256.746094 91.808594 C 250.867188 94.160156 247.632812 95.457031 243.378906 95.457031 C 238.71875 95.457031 233.320312 93.945312 221.199219 90.230469 C 217.984375 89.242188 214.863281 88.742188 211.929688 88.742188 C 196.390625 88.742188 189.582031 102.753906 188.792969 104.496094 Z M 187.753906 163.109375 C 187.6875 163.109375 187.617188 163.105469 187.550781 163.09375 C 187.0625 162.996094 186.710938 162.570312 186.710938 162.074219 L 186.710938 104.28125 C 186.710938 104.148438 186.734375 104.011719 186.789062 103.890625 C 186.859375 103.71875 194.058594 86.667969 211.929688 86.667969 C 215.070312 86.667969 218.398438 87.199219 221.8125 88.246094 C 233.464844 91.816406 239.023438 93.382812 243.378906 93.382812 C 247.230469 93.382812 250.332031 92.140625 255.96875 89.882812 C 257.347656 89.328125 258.878906 88.714844 260.601562 88.046875 C 260.90625 87.929688 261.242188 87.960938 261.523438 88.128906 C 261.800781 88.292969 261.980469 88.582031 262.019531 88.902344 L 268.414062 146.691406 C 268.464844 147.160156 268.195312 147.605469 267.757812 147.773438 C 258.996094 151.171875 253.277344 153.25 246.34375 153.25 C 240.449219 153.25 233.632812 151.835938 221.199219 148.019531 C 217.984375 147.035156 214.863281 146.535156 211.929688 146.535156 C 195.441406 146.535156 188.78125 162.304688 188.71875 162.464844 C 188.554688 162.859375 188.167969 163.109375 187.753906 163.109375 " fill-opacity="1" fill-rule="nonzero"/></g><path fill="#ffffff" d="M 217.714844 79.105469 C 236.214844 81.15625 229.949219 86.394531 248.859375 79.429688 L 255.257812 137.601562 C 236.347656 144.566406 236.214844 139.328125 217.714844 137.28125 C 199.210938 135.230469 187.753906 162.074219 187.753906 162.074219 L 187.753906 103.902344 C 187.753906 103.902344 199.210938 77.058594 217.714844 79.105469 " fill-opacity="1" fill-rule="nonzero"/><g clip-path="url(#id6)"><path fill="#000000" d="M 188.792969 104.117188 L 188.792969 157.605469 C 192.699219 150.382812 202.125 136.128906 215.703125 136.128906 C 216.40625 136.128906 217.125 136.167969 217.828125 136.246094 C 223.667969 136.894531 227.757812 137.871094 231.042969 138.652344 C 234.34375 139.4375 236.957031 140.0625 240 140.0625 C 243.75 140.0625 248.007812 139.113281 254.132812 136.90625 L 247.96875 80.859375 C 241.722656 83.113281 238.304688 83.964844 235.609375 83.964844 C 233.53125 83.964844 231.96875 83.453125 229.988281 82.800781 C 227.496094 81.980469 224.082031 80.855469 217.597656 80.140625 C 216.96875 80.070312 216.332031 80.035156 215.703125 80.035156 C 200.054688 80.035156 189.8125 101.851562 188.792969 104.117188 Z M 187.753906 163.109375 C 187.683594 163.109375 187.613281 163.105469 187.542969 163.089844 C 187.058594 162.992188 186.710938 162.566406 186.710938 162.074219 L 186.710938 103.902344 C 186.710938 103.761719 186.738281 103.625 186.792969 103.492188 C 187.238281 102.449219 197.902344 77.957031 215.703125 77.957031 C 216.40625 77.957031 217.125 77.996094 217.828125 78.074219 C 224.527344 78.816406 228.0625 79.980469 230.644531 80.828125 C 232.511719 81.445312 233.863281 81.890625 235.609375 81.890625 C 238.175781 81.890625 241.789062 80.925781 248.5 78.453125 C 248.800781 78.34375 249.136719 78.378906 249.410156 78.546875 C 249.679688 78.714844 249.863281 78.996094 249.894531 79.316406 L 256.292969 137.488281 C 256.347656 137.960938 256.066406 138.410156 255.617188 138.574219 C 248.835938 141.074219 244.167969 142.140625 240 142.140625 C 236.710938 142.140625 233.992188 141.492188 230.558594 140.671875 C 227.328125 139.902344 223.308594 138.945312 217.597656 138.3125 C 216.96875 138.242188 216.332031 138.207031 215.703125 138.207031 C 199.28125 138.207031 188.8125 162.238281 188.710938 162.480469 C 188.546875 162.871094 188.164062 163.109375 187.753906 163.109375 " fill-opacity="1" fill-rule="nonzero"/></g><g fill="#ffffff" fill-opacity="1"><g transform="translate(16.006061, 315.215281)"><g><path d="M 14.371094 -3.144531 C 14.460938 -3.683594 14.640625 -5.746094 14.820312 -7.722656 C 15.988281 -19.847656 19.308594 -29.546875 27.753906 -45.085938 C 33.949219 -56.492188 34.667969 -58.109375 33.859375 -59.1875 C 33.589844 -59.546875 33.320312 -59.816406 33.140625 -59.816406 C 32.78125 -59.816406 31.972656 -60.714844 31.972656 -61.074219 C 31.972656 -61.613281 30.714844 -61.878906 29.90625 -61.523438 C 28.917969 -60.984375 27.214844 -58.738281 24.699219 -54.605469 C 14.460938 -38.171875 8.261719 -21.914062 8.171875 -11.316406 C 8.171875 -7.722656 8.171875 -7.453125 9.25 -5.480469 C 10.058594 -3.953125 10.597656 -3.234375 11.226562 -3.144531 C 11.675781 -2.964844 12.214844 -2.695312 12.484375 -2.425781 C 13.203125 -1.527344 14.28125 -1.976562 14.371094 -3.144531 Z M 13.023438 -15.71875 C 12.84375 -15.628906 12.753906 -15.808594 12.84375 -16.167969 C 12.84375 -16.527344 12.933594 -16.617188 13.023438 -16.347656 C 13.113281 -16.167969 13.113281 -15.808594 13.023438 -15.71875 Z M 14.191406 -20.925781 C 14.011719 -20.476562 13.832031 -20.476562 13.832031 -20.746094 C 13.832031 -21.015625 14.011719 -21.554688 14.191406 -21.914062 C 14.371094 -22.363281 14.460938 -22.453125 14.460938 -22.09375 C 14.460938 -21.824219 14.28125 -21.285156 14.191406 -20.925781 Z M 31.164062 -57.03125 C 22.453125 -41.671875 20.207031 -37.183594 17.0625 -29.367188 C 16.078125 -26.765625 15.179688 -24.429688 15.089844 -24.160156 C 14.910156 -23.800781 14.910156 -23.800781 14.820312 -24.160156 C 14.820312 -24.878906 18.320312 -33.589844 20.476562 -38.082031 C 22.722656 -42.839844 30.894531 -57.480469 31.703125 -58.199219 C 31.882812 -58.46875 31.613281 -57.929688 31.164062 -57.03125 Z M 31.074219 -58.917969 C 31.523438 -59.457031 31.523438 -59.367188 31.074219 -58.558594 C 28.289062 -53.976562 24.699219 -47.601562 22.8125 -44.097656 C 20.835938 -40.414062 20.296875 -39.515625 20.296875 -40.054688 C 20.296875 -40.773438 29.816406 -57.390625 31.074219 -58.917969 Z M 11.675781 -18.769531 C 11.765625 -18.5 11.765625 -18.230469 11.585938 -18.140625 C 11.496094 -17.960938 11.40625 -18.230469 11.40625 -18.589844 C 11.496094 -18.949219 11.496094 -19.039062 11.675781 -18.769531 Z M 12.304688 -16.796875 C 11.945312 -15.359375 11.585938 -12.933594 11.40625 -11.496094 C 11.226562 -9.429688 11.136719 -9.25 11.136719 -10.507812 C 11.046875 -13.652344 12.394531 -20.117188 14.28125 -25.777344 C 15.539062 -29.636719 19.128906 -37.992188 19.9375 -39.070312 C 20.566406 -39.964844 20.386719 -39.605469 17.78125 -33.679688 C 15.449219 -28.46875 13.203125 -21.644531 12.304688 -16.796875 Z M 53.527344 -61.789062 C 52.898438 -62.957031 52.269531 -64.125 52.089844 -64.484375 C 51.730469 -65.832031 49.21875 -68.527344 47.152344 -69.875 C 42.480469 -73.015625 36.285156 -73.375 29.1875 -71.042969 C 20.296875 -67.988281 10.957031 -60.085938 7.363281 -52.628906 C 5.925781 -49.667969 6.105469 -47.691406 7.902344 -45.714844 C 8.890625 -44.636719 9.25 -44.726562 9.789062 -46.253906 C 11.046875 -49.667969 16.257812 -55.863281 20.296875 -58.558594 C 29.457031 -64.753906 38.441406 -66.910156 44.816406 -64.484375 C 47.0625 -63.675781 49.308594 -62.058594 49.9375 -60.984375 C 50.652344 -59.636719 50.742188 -53.347656 50.117188 -50.117188 C 48.140625 -40.59375 42.929688 -30.714844 33.5 -19.039062 C 24.429688 -7.722656 17.152344 -1.707031 10.238281 0.359375 C 7.902344 0.988281 4.761719 1.078125 3.234375 0.449219 C 2.515625 0.179688 1.976562 0 1.796875 0.0898438 C 1.707031 0.179688 1.707031 0.0898438 1.796875 0 C 1.886719 -0.0898438 1.796875 -0.449219 1.617188 -0.71875 C 1.078125 -1.257812 -0.0898438 -0.71875 -0.0898438 0.0898438 C -0.0898438 0.71875 1.796875 2.875 3.503906 4.3125 C 4.042969 4.761719 5.210938 5.390625 6.195312 5.746094 C 8.351562 6.464844 9.519531 6.554688 12.753906 5.835938 C 22.273438 3.863281 33.5 -4.761719 43.46875 -17.871094 C 49.488281 -25.777344 53.527344 -33.320312 55.324219 -40.144531 C 57.480469 -48.140625 56.761719 -56.402344 53.527344 -61.789062 Z M 13.382812 -56.941406 C 13.5625 -56.941406 13.382812 -56.582031 12.933594 -56.132812 C 12.484375 -55.59375 12.035156 -55.234375 12.035156 -55.234375 C 11.675781 -55.234375 13.113281 -56.941406 13.382812 -56.941406 Z M 10.507812 -52.898438 C 9.160156 -50.921875 9.160156 -50.921875 9.160156 -51.28125 C 9.160156 -51.550781 11.226562 -54.515625 11.40625 -54.515625 C 11.496094 -54.515625 11.136719 -53.796875 10.507812 -52.898438 Z M 14.371094 -56.582031 C 13.5625 -55.773438 12.664062 -54.695312 12.214844 -54.15625 C 11.046875 -52.898438 11.855469 -54.066406 13.742188 -56.3125 C 14.640625 -57.480469 15.449219 -58.289062 15.539062 -58.199219 C 15.628906 -58.109375 15.089844 -57.390625 14.371094 -56.582031 Z M 17.242188 -59.457031 C 16.257812 -58.378906 15.988281 -58.199219 15.988281 -58.46875 C 15.988281 -58.46875 16.527344 -59.007812 17.152344 -59.546875 L 18.230469 -60.535156 Z M 45.625 -31.34375 C 45.804688 -31.703125 45.984375 -31.882812 46.074219 -31.792969 C 46.164062 -31.703125 46.074219 -31.433594 45.804688 -31.164062 C 45.535156 -30.804688 45.445312 -30.894531 45.625 -31.34375 Z M 44.097656 -28.738281 C 44.996094 -30.355469 45.714844 -31.164062 44.996094 -29.726562 C 44.726562 -29.1875 44.1875 -28.378906 43.917969 -28.023438 C 43.558594 -27.664062 43.648438 -27.933594 44.097656 -28.738281 Z M 41.3125 -24.609375 C 41.941406 -25.417969 42.480469 -26.136719 42.570312 -26.136719 C 42.660156 -26.136719 42.300781 -25.417969 41.671875 -24.609375 C 41.132812 -23.710938 40.503906 -23.082031 40.414062 -23.082031 C 40.324219 -23.082031 40.773438 -23.710938 41.3125 -24.609375 Z M 37.722656 -15.988281 C 36.195312 -14.101562 33.320312 -11.046875 31.34375 -9.160156 L 27.84375 -5.746094 L 31.433594 -9.519531 C 35.746094 -14.011719 39.335938 -18.320312 42.660156 -22.992188 C 44.097656 -24.96875 45.265625 -26.496094 45.355469 -26.496094 C 45.804688 -26.496094 41.132812 -20.027344 37.722656 -15.988281 Z M 36.824219 -16.707031 C 35.476562 -15.089844 34.308594 -13.832031 34.21875 -13.832031 C 34.128906 -13.832031 34.488281 -14.28125 34.9375 -14.820312 C 38.800781 -19.578125 39.964844 -21.105469 42.480469 -24.789062 C 44.097656 -27.125 45.894531 -29.90625 46.433594 -31.074219 C 47.0625 -32.152344 47.601562 -32.960938 47.691406 -32.871094 C 48.230469 -32.332031 41.222656 -21.824219 36.824219 -16.707031 Z M 48.230469 -33.589844 C 47.871094 -33.230469 47.871094 -33.320312 48.050781 -33.769531 C 48.140625 -34.128906 48.320312 -34.308594 48.5 -34.21875 C 48.589844 -34.128906 48.5 -33.769531 48.230469 -33.589844 Z M 48.230469 -33.589844 "/></g></g></g><g fill="#ffffff" fill-opacity="1"><g transform="translate(68.546376, 315.215281)"><g><path d="M 12.574219 -43.019531 C 12.125 -42.839844 11.945312 -43.019531 11.945312 -43.289062 C 11.945312 -43.558594 11.675781 -43.648438 11.40625 -43.558594 C 11.136719 -43.46875 10.867188 -43.648438 10.6875 -44.097656 C 10.417969 -45.085938 9.519531 -45.445312 8.621094 -45.085938 C 6.375 -44.277344 2.246094 -31.253906 0.808594 -20.566406 C -0.808594 -9.519531 1.4375 -3.054688 7.902344 0.269531 C 10.238281 1.4375 11.226562 1.257812 10.328125 -0.269531 C 9.070312 -2.605469 8.710938 -4.042969 8.53125 -7.722656 C 8.351562 -12.753906 8.710938 -15.089844 11.765625 -27.84375 C 14.910156 -41.132812 14.910156 -41.3125 14.011719 -42.390625 C 13.5625 -42.929688 13.023438 -43.109375 12.574219 -43.019531 Z M 7.722656 -36.285156 C 7.8125 -36.105469 7.8125 -35.746094 7.632812 -35.65625 C 7.542969 -35.566406 7.453125 -35.746094 7.453125 -36.105469 C 7.453125 -36.464844 7.542969 -36.554688 7.722656 -36.285156 Z M 6.285156 -31.792969 C 6.375 -32.421875 6.644531 -33.320312 6.824219 -33.679688 C 7.003906 -34.128906 7.003906 -34.039062 6.914062 -33.140625 C 6.734375 -32.511719 6.554688 -31.703125 6.375 -31.253906 C 6.195312 -30.804688 6.105469 -30.984375 6.285156 -31.792969 Z M 4.582031 -24.699219 C 4.941406 -26.675781 6.015625 -30.625 6.015625 -30.175781 C 6.105469 -29.90625 5.746094 -28.378906 5.390625 -26.675781 C 4.671875 -23.710938 4.132812 -22.453125 4.582031 -24.699219 Z M 4.3125 -22.8125 C 4.3125 -22.453125 4.3125 -22.003906 4.222656 -21.824219 C 4.132812 -21.554688 4.132812 -21.824219 4.132812 -22.363281 C 4.132812 -22.992188 4.222656 -23.171875 4.3125 -22.8125 Z M 3.234375 -15.089844 C 3.054688 -15 3.054688 -15.179688 3.054688 -15.539062 C 3.054688 -15.988281 3.144531 -16.078125 3.234375 -15.808594 C 3.324219 -15.539062 3.324219 -15.269531 3.234375 -15.089844 Z M 3.683594 -20.027344 C 3.863281 -21.105469 3.953125 -21.195312 3.953125 -20.296875 C 3.953125 -19.757812 3.863281 -18.859375 3.683594 -18.320312 C 3.324219 -16.882812 3.324219 -18.230469 3.683594 -20.027344 Z M 3.953125 -12.214844 C 3.863281 -11.945312 3.773438 -12.214844 3.773438 -12.84375 C 3.773438 -13.382812 3.863281 -13.5625 3.953125 -13.203125 C 4.042969 -12.933594 4.042969 -12.394531 3.953125 -12.214844 Z M 4.402344 -16.078125 C 4.132812 -14.011719 4.132812 -14.011719 4.042969 -15.359375 C 3.953125 -18.5 6.464844 -29.726562 9.070312 -38.082031 C 9.699219 -40.234375 10.417969 -42.03125 10.597656 -42.03125 C 10.777344 -42.03125 10.777344 -41.941406 10.6875 -41.761719 C 10.058594 -40.683594 6.375 -26.675781 5.210938 -21.015625 C 4.941406 -19.488281 4.582031 -17.242188 4.402344 -16.078125 Z M 6.285156 -20.386719 C 6.195312 -20.207031 6.105469 -20.386719 6.105469 -20.835938 C 6.105469 -21.285156 6.195312 -21.554688 6.285156 -21.285156 C 6.375 -21.015625 6.375 -20.65625 6.285156 -20.386719 Z M 6.644531 -22.003906 C 6.554688 -21.824219 6.464844 -22.09375 6.464844 -22.453125 C 6.464844 -22.8125 6.554688 -22.902344 6.644531 -22.632812 C 6.734375 -22.363281 6.734375 -22.09375 6.644531 -22.003906 Z M 7.273438 -25.058594 C 7.183594 -24.96875 7.09375 -25.148438 7.09375 -25.507812 C 7.183594 -25.867188 7.273438 -25.957031 7.363281 -25.6875 C 7.453125 -25.417969 7.453125 -25.148438 7.273438 -25.058594 Z M 7.8125 -27.035156 C 7.542969 -26.316406 7.542969 -26.316406 7.542969 -26.855469 C 7.542969 -27.214844 7.632812 -27.933594 7.8125 -28.378906 C 7.992188 -29.097656 8.082031 -29.097656 8.082031 -28.558594 C 8.082031 -28.199219 7.902344 -27.484375 7.8125 -27.035156 Z M 8.351562 -29.457031 C 8.261719 -29.367188 8.171875 -29.546875 8.171875 -29.90625 C 8.171875 -30.355469 8.261719 -30.445312 8.351562 -30.175781 C 8.441406 -29.90625 8.441406 -29.636719 8.351562 -29.457031 Z M 8.710938 -30.894531 C 8.53125 -30.714844 8.53125 -30.984375 8.53125 -31.34375 C 8.53125 -31.703125 8.621094 -31.792969 8.710938 -31.523438 C 8.800781 -31.253906 8.800781 -30.984375 8.710938 -30.894531 Z M 10.417969 -36.914062 C 9.699219 -34.757812 9.160156 -33.230469 9.160156 -33.410156 C 9.160156 -34.128906 11.316406 -41.492188 11.496094 -41.132812 C 11.496094 -40.953125 11.046875 -39.070312 10.417969 -36.914062 Z M 17.421875 -58.828125 C 16.167969 -58.828125 12.84375 -56.761719 10.058594 -54.246094 C 8.441406 -52.808594 8.441406 -52.71875 8.890625 -51.730469 C 9.160156 -51.011719 9.519531 -50.742188 9.878906 -50.832031 C 10.238281 -50.921875 10.507812 -50.742188 10.507812 -50.5625 C 10.507812 -50.386719 10.867188 -50.476562 11.316406 -50.832031 C 11.765625 -51.191406 11.855469 -51.28125 11.675781 -51.011719 C 11.226562 -50.476562 11.046875 -49.21875 11.40625 -48.859375 C 11.855469 -48.410156 12.84375 -48.769531 13.382812 -49.667969 C 14.371094 -51.28125 17.421875 -54.066406 18.949219 -54.785156 C 19.757812 -55.144531 20.476562 -55.683594 20.476562 -55.953125 C 20.476562 -56.402344 17.960938 -58.828125 17.421875 -58.828125 Z M 17.421875 -58.828125 "/></g></g></g><g fill="#ffffff" fill-opacity="1"><g transform="translate(83.006191, 315.215281)"><g><path d="M 33.859375 -42.121094 C 33.5 -42.121094 32.960938 -42.570312 32.511719 -43.109375 C 31.253906 -44.816406 29.1875 -44.1875 27.574219 -41.582031 C 27.035156 -40.773438 26.40625 -40.054688 26.226562 -40.054688 C 25.777344 -40.054688 24.609375 -40.863281 23.441406 -42.03125 C 20.835938 -44.636719 16.4375 -44.1875 12.035156 -40.863281 C 8.890625 -38.53125 3.863281 -30.984375 2.066406 -25.777344 C -0.0898438 -19.488281 -0.628906 -12.753906 0.71875 -9.160156 C 1.527344 -7.09375 3.503906 -4.851562 4.851562 -4.582031 C 5.300781 -4.402344 6.105469 -4.042969 6.554688 -3.683594 C 7.632812 -2.875 9.699219 -2.875 11.316406 -3.773438 C 13.023438 -4.582031 16.078125 -8.171875 18.589844 -12.304688 L 20.476562 -15.359375 L 20.65625 -11.046875 C 20.835938 -8.621094 21.105469 -6.105469 21.285156 -5.300781 C 21.914062 -3.59375 24.429688 -0.898438 26.046875 -0.179688 C 26.765625 0.0898438 27.484375 0.449219 27.574219 0.71875 C 27.84375 1.078125 28.738281 1.167969 28.917969 0.808594 C 29.007812 0.628906 28.828125 -0.808594 28.558594 -2.425781 C 28.199219 -4.132812 28.023438 -7.09375 28.023438 -9.878906 C 28.023438 -16.527344 29.007812 -20.65625 34.398438 -35.746094 C 35.117188 -37.632812 35.65625 -39.515625 35.65625 -39.875 C 35.65625 -40.773438 34.578125 -42.121094 33.859375 -42.121094 Z M 3.054688 -14.101562 C 2.964844 -13.742188 2.875 -14.011719 2.875 -14.730469 C 2.875 -15.359375 2.964844 -15.628906 3.054688 -15.269531 C 3.144531 -15 3.144531 -14.460938 3.054688 -14.101562 Z M 3.234375 -16.972656 C 3.234375 -17.332031 3.324219 -17.960938 3.503906 -18.320312 C 3.683594 -18.769531 3.773438 -18.769531 3.773438 -18.5 C 3.773438 -18.230469 3.59375 -17.601562 3.503906 -17.0625 C 3.234375 -16.4375 3.234375 -16.347656 3.234375 -16.972656 Z M 4.042969 -13.5625 C 3.683594 -11.585938 3.503906 -10.957031 3.503906 -11.765625 C 3.414062 -15.269531 5.390625 -22.722656 7.542969 -27.035156 C 9.160156 -30.085938 9.160156 -29.546875 7.632812 -26.226562 C 6.914062 -24.699219 5.835938 -21.914062 5.390625 -20.027344 C 4.851562 -18.230469 4.3125 -15.269531 4.042969 -13.5625 Z M 5.746094 -15.898438 C 4.761719 -12.035156 4.582031 -12.304688 5.390625 -16.347656 C 6.105469 -19.667969 7.363281 -23.441406 8.890625 -26.496094 C 10.148438 -29.007812 12.84375 -33.410156 13.472656 -33.769531 C 13.652344 -33.859375 12.933594 -32.691406 11.945312 -31.074219 C 9.609375 -27.484375 8.980469 -26.226562 7.632812 -22.453125 C 7.003906 -20.746094 6.105469 -17.78125 5.746094 -15.898438 Z M 22.8125 -28.738281 C 22.003906 -25.777344 15.359375 -15 11.585938 -10.507812 C 10.507812 -9.339844 9.339844 -8.082031 8.800781 -7.722656 L 7.902344 -7.183594 L 7.902344 -8.53125 C 7.902344 -11.765625 11.046875 -21.285156 13.652344 -25.867188 C 16.707031 -31.433594 21.644531 -36.644531 23.980469 -36.644531 C 25.058594 -36.644531 25.058594 -35.835938 24.160156 -33.140625 C 23.710938 -31.792969 23.171875 -29.726562 22.8125 -28.738281 Z M 23.890625 -20.296875 C 23.980469 -20.027344 23.980469 -19.667969 23.890625 -19.398438 C 23.800781 -19.21875 23.710938 -19.398438 23.710938 -19.847656 C 23.710938 -20.296875 23.800781 -20.476562 23.890625 -20.296875 Z M 23.890625 -10.6875 C 23.890625 -10.148438 23.800781 -10.597656 23.800781 -11.675781 C 23.800781 -12.664062 23.890625 -13.113281 23.890625 -12.574219 C 23.980469 -12.035156 23.980469 -11.226562 23.890625 -10.6875 Z M 25.238281 -21.015625 C 24.96875 -19.488281 24.519531 -17.242188 24.339844 -15.898438 L 24.070312 -13.472656 L 24.25 -16.4375 C 24.429688 -19.308594 25.328125 -24.160156 25.597656 -23.800781 C 25.6875 -23.710938 25.507812 -22.453125 25.238281 -21.015625 Z M 25.957031 -19.21875 C 25.867188 -19.128906 25.777344 -19.308594 25.777344 -19.667969 C 25.777344 -20.117188 25.867188 -20.207031 25.957031 -19.9375 C 26.046875 -19.667969 26.046875 -19.398438 25.957031 -19.21875 Z M 26.585938 -22.363281 C 26.496094 -22.183594 26.40625 -22.453125 26.40625 -22.8125 C 26.496094 -23.171875 26.585938 -23.261719 26.675781 -22.992188 C 26.765625 -22.722656 26.765625 -22.453125 26.585938 -22.363281 Z M 26.945312 -23.890625 C 26.855469 -23.621094 26.855469 -23.800781 26.855469 -24.339844 C 26.855469 -24.789062 26.855469 -24.96875 26.945312 -24.699219 C 27.125 -24.519531 27.125 -24.070312 26.945312 -23.890625 Z M 27.125 -25.6875 C 27.125 -25.957031 27.304688 -26.40625 27.484375 -26.675781 C 27.664062 -26.945312 27.753906 -27.035156 27.753906 -26.855469 C 27.753906 -26.226562 27.125 -25.148438 27.125 -25.6875 Z M 31.34375 -39.875 C 31.074219 -39.335938 30.894531 -39.160156 30.894531 -39.695312 C 30.894531 -39.875 30.984375 -40.054688 31.164062 -40.234375 C 31.433594 -40.324219 31.433594 -40.234375 31.34375 -39.875 Z M 32.78125 -40.054688 C 32.152344 -38.890625 31.792969 -38.621094 32.152344 -39.605469 C 32.421875 -40.414062 33.230469 -41.671875 33.230469 -41.3125 C 33.230469 -41.132812 33.050781 -40.59375 32.78125 -40.054688 Z M 32.78125 -40.054688 "/></g></g></g><g fill="#ffffff" fill-opacity="1"><g transform="translate(117.404382, 315.215281)"><g><path d="M 28.828125 -43.199219 C 26.675781 -44.277344 26.046875 -44.457031 24.96875 -44.277344 C 22.992188 -43.917969 20.476562 -42.480469 18.410156 -40.503906 C 17.242188 -39.515625 16.617188 -39.070312 16.796875 -39.425781 C 16.882812 -39.875 17.332031 -41.222656 17.691406 -42.570312 C 18.410156 -44.816406 18.410156 -45.085938 17.871094 -45.625 C 17.601562 -45.894531 17.152344 -46.164062 16.882812 -46.164062 C 16.527344 -46.164062 15.988281 -46.523438 15.628906 -46.972656 C 14.730469 -48.140625 14.191406 -48.050781 12.753906 -46.523438 C 7.453125 -40.59375 0.808594 -19.578125 0.269531 -6.914062 L 0.0898438 -1.796875 L 1.167969 -0.988281 C 2.425781 -0.0898438 2.425781 -0.0898438 3.054688 -0.808594 C 3.414062 -1.078125 3.59375 -1.167969 3.59375 -0.988281 C 3.59375 -0.269531 4.3125 -0.628906 4.3125 -1.347656 C 4.402344 -2.066406 4.402344 -2.066406 4.492188 -1.4375 C 4.582031 -1.078125 4.761719 -0.449219 4.851562 0 C 5.03125 0.898438 6.015625 0.988281 6.824219 0.269531 C 7.09375 0 7.453125 -1.167969 7.542969 -2.246094 C 8.261719 -8.890625 9.339844 -12.664062 12.304688 -19.578125 C 16.707031 -29.726562 21.375 -36.285156 25.867188 -38.890625 C 28.289062 -40.324219 29.007812 -40.234375 30.175781 -38.800781 C 30.625 -38.082031 31.253906 -37.542969 31.523438 -37.542969 C 31.792969 -37.542969 32.0625 -37.453125 32.0625 -37.183594 C 32.0625 -36.464844 33.140625 -37.09375 33.410156 -37.902344 C 33.859375 -39.785156 32.601562 -41.222656 28.828125 -43.199219 Z M 13.921875 -43.019531 C 14.101562 -43.46875 14.371094 -43.738281 14.460938 -43.738281 C 14.550781 -43.738281 14.460938 -43.46875 14.191406 -43.019531 C 14.011719 -42.660156 13.742188 -42.390625 13.652344 -42.390625 C 13.5625 -42.390625 13.652344 -42.660156 13.921875 -43.019531 Z M 13.203125 -41.492188 C 13.382812 -41.671875 13.472656 -41.492188 13.292969 -41.222656 C 13.113281 -40.59375 12.84375 -40.503906 12.84375 -40.953125 C 12.84375 -41.132812 13.023438 -41.402344 13.203125 -41.492188 Z M 7.542969 -25.238281 C 6.914062 -22.902344 6.285156 -20.925781 6.195312 -20.835938 C 5.835938 -20.566406 6.285156 -22.09375 8.082031 -28.199219 C 9.609375 -33.320312 12.125 -39.785156 12.394531 -39.515625 C 12.484375 -39.425781 12.035156 -38.351562 11.496094 -37.003906 C 10.238281 -33.859375 8.980469 -30.355469 7.542969 -25.238281 Z M 15.898438 -44.277344 C 15.628906 -43.738281 14.191406 -40.59375 12.933594 -37.722656 C 12.304688 -36.375 11.316406 -33.589844 10.597656 -31.523438 C 9.429688 -27.84375 8.800781 -26.496094 9.25 -28.46875 C 10.148438 -32.0625 14.730469 -43.378906 15.628906 -44.277344 C 15.898438 -44.457031 15.988281 -44.457031 15.898438 -44.277344 Z M 15.898438 -44.277344 "/></g></g></g><g fill="#ffffff" fill-opacity="1"><g transform="translate(149.377639, 315.215281)"><g><path d="M -6.105469 32.242188 C -4.582031 32.78125 -3.054688 33.320312 -2.695312 33.410156 C -2.335938 33.5 -1.976562 33.679688 -1.796875 33.679688 C -0.898438 33.859375 2.964844 32.691406 5.210938 31.523438 C 10.328125 28.828125 16.4375 21.554688 20.746094 13.113281 C 23.261719 7.902344 26.316406 0.359375 28.378906 -5.925781 C 31.253906 -14.550781 33.949219 -27.933594 33.679688 -31.433594 C 33.5 -33.320312 32.960938 -34.039062 30.894531 -35.027344 C 30.175781 -35.386719 29.636719 -35.835938 29.636719 -36.015625 C 29.636719 -36.195312 29.457031 -36.195312 29.277344 -36.105469 C 29.097656 -36.015625 28.917969 -36.195312 28.917969 -36.644531 C 28.917969 -37.003906 28.828125 -37.363281 28.738281 -37.363281 C 27.484375 -37.542969 26.855469 -37.542969 26.585938 -37.183594 C 26.40625 -36.914062 25.957031 -35.386719 25.597656 -33.679688 C 25.238281 -31.882812 24.519531 -29.457031 24.070312 -28.199219 C 22.8125 -24.789062 18.859375 -16.882812 17.0625 -14.101562 C 15.089844 -11.046875 11.496094 -7.183594 10.058594 -6.375 C 8.980469 -5.925781 8.890625 -5.925781 8.710938 -6.644531 C 8.351562 -7.902344 8.351562 -12.484375 8.800781 -14.910156 C 9.339844 -18.769531 11.136719 -25.328125 13.203125 -31.792969 C 14.371094 -35.117188 15.269531 -37.992188 15.269531 -38.082031 C 15.269531 -38.171875 15 -38.621094 14.550781 -39.070312 C 14.101562 -39.605469 13.652344 -39.785156 13.203125 -39.695312 C 12.664062 -39.515625 12.484375 -39.605469 12.664062 -39.964844 C 12.753906 -40.234375 12.664062 -40.503906 12.484375 -40.503906 C 12.304688 -40.503906 11.765625 -40.863281 11.316406 -41.402344 C 10.328125 -42.480469 9.429688 -42.300781 7.8125 -40.683594 C 4.941406 -37.992188 0.808594 -25.957031 0 -18.410156 C -0.269531 -15.898438 0.269531 -11.40625 1.078125 -8.890625 C 1.707031 -6.914062 3.863281 -4.3125 5.390625 -3.683594 C 6.015625 -3.414062 7.09375 -2.875 7.722656 -2.425781 C 10.148438 -0.808594 12.84375 -1.796875 15.988281 -5.570312 C 17.152344 -7.003906 18.5 -8.800781 19.039062 -9.699219 C 19.578125 -10.507812 20.027344 -11.046875 20.027344 -10.777344 C 20.027344 -10.058594 16.882812 -0.71875 15.179688 3.59375 C 10.058594 16.617188 4.042969 25.597656 -1.4375 28.378906 C -2.785156 29.007812 -4.222656 29.546875 -5.03125 29.546875 C -9.429688 29.636719 -9.789062 30.714844 -6.105469 32.242188 Z M 3.144531 -17.78125 C 3.054688 -17.691406 2.964844 -17.871094 2.964844 -18.320312 C 2.964844 -18.679688 3.054688 -18.769531 3.144531 -18.5 C 3.234375 -18.230469 3.234375 -17.960938 3.144531 -17.78125 Z M 3.324219 -19.667969 C 3.234375 -21.015625 6.644531 -32.691406 6.644531 -31.523438 C 6.734375 -31.253906 6.464844 -30.445312 6.195312 -29.546875 C 5.835938 -28.738281 5.121094 -26.046875 4.492188 -23.53125 C 3.863281 -21.015625 3.324219 -19.308594 3.324219 -19.667969 Z M 4.671875 -19.308594 C 4.3125 -17.601562 4.042969 -16.617188 3.953125 -17.242188 C 3.953125 -18.949219 4.851562 -22.992188 6.375 -28.023438 C 7.632812 -32.152344 9.878906 -37.632812 10.238281 -37.632812 C 10.328125 -37.632812 9.789062 -36.195312 9.070312 -34.398438 C 8.351562 -32.691406 7.273438 -29.277344 6.554688 -26.855469 C 5.835938 -24.519531 5.03125 -21.105469 4.671875 -19.308594 Z M 6.554688 -22.273438 C 6.105469 -20.65625 5.746094 -19.488281 5.746094 -19.757812 C 5.65625 -20.476562 7.183594 -25.957031 7.273438 -25.597656 C 7.363281 -25.417969 7.003906 -23.890625 6.554688 -22.273438 Z M 8.351562 -29.816406 C 9.339844 -32.960938 11.585938 -38.351562 11.945312 -38.351562 C 12.125 -38.351562 11.765625 -37.453125 11.316406 -36.375 C 10.777344 -35.296875 9.699219 -32.421875 8.890625 -30.175781 C 7.183594 -25.328125 6.914062 -25.148438 8.351562 -29.816406 Z M 27.125 -14.640625 C 27.035156 -14.550781 26.945312 -14.730469 26.945312 -15.179688 C 26.945312 -15.539062 27.035156 -15.628906 27.125 -15.359375 C 27.214844 -15.089844 27.214844 -14.820312 27.125 -14.640625 Z M 25.777344 -20.027344 C 25.957031 -21.644531 26.226562 -22.09375 26.226562 -20.835938 C 26.136719 -20.386719 26.046875 -19.667969 25.867188 -19.308594 C 25.597656 -18.769531 25.597656 -19.039062 25.777344 -20.027344 Z M 24.96875 -16.882812 C 25.238281 -17.78125 25.507812 -18.320312 25.507812 -17.871094 C 25.507812 -17.152344 24.609375 -14.191406 24.519531 -14.730469 C 24.519531 -14.910156 24.699219 -15.898438 24.96875 -16.882812 Z M 24.160156 -13.742188 C 24.339844 -14.191406 24.429688 -14.191406 24.429688 -13.921875 C 24.429688 -13.5625 24.339844 -13.023438 24.160156 -12.664062 C 23.980469 -12.214844 23.890625 -12.125 23.890625 -12.484375 C 23.890625 -12.753906 23.980469 -13.292969 24.160156 -13.742188 Z M 23.53125 -11.316406 C 23.53125 -11.675781 23.621094 -11.765625 23.710938 -11.496094 C 23.800781 -11.226562 23.800781 -10.957031 23.710938 -10.867188 C 23.53125 -10.6875 23.53125 -10.957031 23.53125 -11.316406 Z M 22.273438 -4.132812 C 23.621094 -8.082031 25.6875 -15.628906 26.945312 -20.835938 C 27.484375 -23.441406 28.109375 -25.777344 28.289062 -25.957031 C 28.46875 -26.046875 28.378906 -25.238281 28.023438 -23.980469 C 27.753906 -22.722656 27.394531 -20.925781 27.214844 -20.027344 C 26.585938 -16.882812 24.96875 -11.046875 23.441406 -6.554688 C 22.183594 -2.605469 21.464844 -0.71875 21.464844 -1.347656 C 21.464844 -1.4375 21.824219 -2.695312 22.273438 -4.132812 Z M 21.105469 -0.628906 C 21.285156 -0.898438 21.375 -0.988281 21.375 -0.71875 C 21.375 -0.539062 21.285156 -0.179688 21.105469 0.0898438 C 20.925781 0.359375 20.746094 0.449219 20.746094 0.269531 C 20.746094 0.0898438 20.925781 -0.269531 21.105469 -0.628906 Z M 21.105469 2.605469 C 22.8125 -1.796875 25.867188 -10.867188 26.40625 -13.203125 C 26.585938 -13.832031 26.765625 -14.191406 26.765625 -14.011719 C 27.035156 -13.203125 24.519531 -5.03125 21.824219 1.796875 C 21.015625 3.863281 20.027344 6.015625 19.667969 6.734375 C 18.769531 8.351562 18.949219 7.902344 21.105469 2.605469 Z M 18.679688 8.53125 C 18.859375 8.261719 19.039062 8.171875 19.039062 8.351562 C 19.039062 8.53125 18.859375 8.890625 18.679688 9.25 C 18.5 9.519531 18.320312 9.609375 18.320312 9.429688 C 18.320312 9.160156 18.5 8.800781 18.679688 8.53125 Z M 17.960938 10.058594 C 18.230469 9.96875 18.230469 10.148438 18.140625 10.417969 C 17.871094 11.046875 17.691406 11.136719 17.691406 10.597656 C 17.691406 10.417969 17.78125 10.238281 17.960938 10.058594 Z M 17.960938 10.058594 "/></g></g></g><g fill="#ffffff" fill-opacity="1"><g transform="translate(185.033204, 315.215281)"><g/></g></g><g fill="#ffffff" fill-opacity="1"><g transform="translate(207.306712, 315.215281)"><g><path d="M 1.4375 -27.035156 C 1.796875 -26.945312 2.246094 -26.40625 2.425781 -25.957031 C 2.785156 -25.058594 3.773438 -24.519531 4.761719 -24.878906 C 5.390625 -25.058594 5.390625 -24.96875 5.121094 -23.800781 C 4.3125 -20.027344 3.683594 -14.011719 3.863281 -10.148438 C 4.132812 -3.414062 5.835938 -0.449219 10.597656 2.15625 C 12.933594 3.414062 13.292969 3.503906 14.191406 3.144531 C 15.089844 2.785156 14.820312 2.066406 13.5625 1.707031 C 12.574219 1.347656 12.394531 1.078125 12.035156 -0.359375 C 11.136719 -3.773438 10.957031 -7.722656 11.496094 -11.675781 C 12.035156 -15.808594 13.5625 -22.632812 14.820312 -26.226562 C 15.628906 -28.378906 15.71875 -28.648438 16.972656 -29.097656 C 18.949219 -29.726562 32.78125 -33.140625 34.757812 -33.5 C 35.746094 -33.589844 36.734375 -33.859375 37.09375 -34.039062 C 37.632812 -34.308594 37.632812 -34.488281 36.464844 -35.566406 L 35.296875 -36.734375 L 27.035156 -36.644531 C 22.542969 -36.554688 18.859375 -36.644531 18.859375 -36.824219 C 18.859375 -36.914062 20.65625 -41.042969 22.722656 -45.894531 C 28.199219 -58.199219 28.648438 -59.1875 29.277344 -61.878906 C 29.90625 -64.125 29.996094 -64.394531 30.984375 -64.574219 C 32.0625 -64.753906 50.296875 -65.742188 54.066406 -65.742188 C 57.03125 -65.742188 58.019531 -66.371094 57.839844 -67.898438 C 57.75 -68.4375 57.839844 -68.886719 58.019531 -68.976562 C 58.289062 -69.066406 58.199219 -69.425781 57.839844 -70.054688 C 56.671875 -72.300781 49.847656 -72.929688 33.949219 -72.300781 C 23.351562 -71.941406 17.511719 -71.492188 14.371094 -70.863281 C 12.394531 -70.503906 10.597656 -69.695312 10.6875 -69.246094 C 10.777344 -69.15625 10.597656 -68.707031 10.417969 -68.347656 C 10.148438 -67.898438 10.058594 -67.179688 10.058594 -66.730469 C 10.148438 -66.191406 9.96875 -65.5625 9.609375 -65.203125 C 8.800781 -64.484375 8.710938 -63.316406 9.429688 -62.597656 C 10.148438 -61.878906 11.675781 -61.878906 16.257812 -62.6875 C 18.320312 -63.046875 20.027344 -63.316406 20.117188 -63.226562 C 20.207031 -63.226562 18.859375 -60.355469 17.152344 -56.851562 C 13.742188 -49.757812 10.238281 -41.492188 8.53125 -36.734375 L 7.453125 -33.589844 L 4.3125 -32.0625 C 2.605469 -31.253906 0.808594 -30.175781 0.359375 -29.726562 C -0.359375 -28.917969 -0.359375 -28.828125 0.269531 -28.023438 C 0.628906 -27.574219 1.167969 -27.035156 1.4375 -27.035156 Z M 21.015625 -51.191406 C 20.207031 -49.308594 18.410156 -45.265625 17.0625 -42.121094 C 14.011719 -34.847656 14.101562 -35.027344 14.101562 -35.65625 C 14.011719 -36.554688 22.183594 -55.054688 22.542969 -54.695312 C 22.542969 -54.605469 21.914062 -53.078125 21.015625 -51.191406 Z M 23.351562 -50.027344 C 23.171875 -49.757812 22.992188 -49.667969 22.992188 -49.847656 C 22.992188 -50.027344 23.171875 -50.476562 23.351562 -50.742188 C 23.53125 -51.011719 23.621094 -51.101562 23.621094 -50.921875 C 23.621094 -50.742188 23.53125 -50.296875 23.351562 -50.027344 Z M 24.070312 -57.839844 C 23.710938 -57.480469 23.621094 -57.480469 23.800781 -58.019531 C 23.980469 -58.378906 24.160156 -58.558594 24.25 -58.46875 C 24.339844 -58.289062 24.25 -58.019531 24.070312 -57.839844 Z M 25.148438 -60.175781 C 24.878906 -59.546875 24.699219 -59.457031 24.699219 -59.90625 C 24.699219 -60.085938 24.789062 -60.355469 25.058594 -60.445312 C 25.238281 -60.625 25.238281 -60.445312 25.148438 -60.175781 Z M 28.109375 -66.820312 C 27.664062 -66.820312 27.484375 -66.910156 27.664062 -67 C 27.933594 -67.089844 28.289062 -67.089844 28.558594 -67 C 28.738281 -66.910156 28.558594 -66.820312 28.109375 -66.820312 Z M 32.691406 -67.179688 C 32.152344 -67.269531 31.972656 -67.269531 32.332031 -67.359375 C 32.601562 -67.449219 33.050781 -67.449219 33.320312 -67.359375 C 33.589844 -67.269531 33.320312 -67.179688 32.691406 -67.179688 Z M 52.539062 -69.425781 C 52.808594 -69.515625 53.257812 -69.515625 53.527344 -69.425781 C 53.796875 -69.335938 53.4375 -69.246094 52.898438 -69.246094 C 52.359375 -69.246094 52.179688 -69.335938 52.539062 -69.425781 Z M 42.390625 -69.785156 C 43.917969 -69.875 46.523438 -69.875 48.050781 -69.785156 C 49.578125 -69.785156 48.320312 -69.695312 45.175781 -69.695312 C 42.121094 -69.695312 40.863281 -69.785156 42.390625 -69.785156 Z M 34.488281 -69.425781 C 35.296875 -69.515625 36.554688 -69.515625 37.273438 -69.425781 C 37.992188 -69.425781 37.273438 -69.335938 35.835938 -69.335938 C 34.308594 -69.335938 33.679688 -69.425781 34.488281 -69.425781 Z M 29.726562 -69.066406 C 30.355469 -69.15625 31.34375 -69.15625 31.972656 -69.066406 C 32.601562 -69.066406 32.0625 -68.976562 30.804688 -68.976562 C 29.636719 -68.976562 29.097656 -69.066406 29.726562 -69.066406 Z M 27.304688 -67.808594 C 28.378906 -68.257812 42.210938 -68.976562 47.601562 -68.796875 L 52.269531 -68.707031 L 46.433594 -68.617188 C 43.199219 -68.527344 38.351562 -68.347656 35.65625 -68.167969 C 32.871094 -67.988281 29.726562 -67.808594 28.648438 -67.71875 C 27.214844 -67.539062 26.765625 -67.628906 27.304688 -67.808594 Z M 26.316406 -68.796875 C 26.585938 -68.886719 26.855469 -68.886719 26.945312 -68.707031 C 27.125 -68.617188 26.855469 -68.527344 26.496094 -68.527344 C 26.136719 -68.527344 26.046875 -68.617188 26.316406 -68.796875 Z M 26.046875 -62.148438 C 26.046875 -61.96875 25.867188 -61.613281 25.6875 -61.34375 C 25.507812 -61.074219 25.417969 -60.984375 25.417969 -61.164062 C 25.417969 -61.34375 25.507812 -61.703125 25.6875 -62.058594 C 25.867188 -62.328125 26.046875 -62.417969 26.046875 -62.148438 Z M 25.417969 -63.945312 C 25.597656 -64.035156 25.6875 -64.035156 25.597656 -63.855469 C 24.429688 -61.878906 15 -40.773438 13.5625 -36.914062 C 13.023438 -35.566406 12.394531 -34.488281 12.394531 -35.117188 C 12.394531 -35.746094 17.601562 -48.050781 19.9375 -53.078125 C 20.835938 -54.875 22.273438 -58.019531 23.261719 -59.996094 C 24.160156 -61.96875 25.148438 -63.765625 25.417969 -63.945312 Z M 23.082031 -61.164062 C 22.902344 -60.625 22.632812 -60.445312 22.632812 -60.984375 C 22.632812 -61.164062 22.8125 -61.433594 22.992188 -61.523438 C 23.171875 -61.613281 23.171875 -61.523438 23.082031 -61.164062 Z M 15.089844 -66.371094 C 15 -66.28125 14.191406 -66.101562 13.203125 -66.011719 C 12.035156 -65.921875 11.765625 -65.921875 12.394531 -66.101562 C 13.203125 -66.371094 15.359375 -66.550781 15.089844 -66.371094 Z M 16.4375 -66.550781 C 15.089844 -66.550781 18.050781 -67.089844 20.746094 -67.269531 L 23.171875 -67.449219 L 20.207031 -67 C 18.589844 -66.730469 16.972656 -66.550781 16.4375 -66.550781 Z M 21.195312 -57.75 C 22.453125 -59.90625 21.824219 -58.46875 18.859375 -52.089844 C 16.167969 -46.34375 15.808594 -45.535156 15.808594 -45.984375 C 15.808594 -46.34375 20.386719 -56.222656 21.195312 -57.75 Z M 15.449219 -45.265625 C 15.628906 -45.535156 15.808594 -45.625 15.808594 -45.445312 C 15.808594 -45.265625 15.628906 -44.816406 15.449219 -44.546875 C 15.269531 -44.277344 15.089844 -44.1875 15.089844 -44.367188 C 15.089844 -44.546875 15.269531 -44.996094 15.449219 -45.265625 Z M 14.371094 -42.839844 C 14.550781 -43.109375 14.730469 -43.199219 14.730469 -43.019531 C 14.730469 -42.839844 14.550781 -42.480469 14.371094 -42.121094 C 14.191406 -41.851562 14.101562 -41.761719 14.101562 -42.03125 C 14.101562 -42.210938 14.191406 -42.570312 14.371094 -42.839844 Z M 13.921875 -41.402344 C 14.011719 -41.3125 13.472656 -39.875 12.84375 -38.171875 C 11.675781 -35.296875 11.316406 -34.578125 11.316406 -35.117188 C 11.316406 -35.476562 13.832031 -41.492188 13.921875 -41.402344 Z M 9.878906 -26.675781 C 9.96875 -26.585938 9.609375 -24.699219 9.160156 -22.453125 C 8.621094 -20.207031 7.992188 -16.972656 7.722656 -15.269531 C 7.273438 -12.394531 7.273438 -12.304688 7.363281 -14.460938 C 7.453125 -15.71875 7.902344 -18.769531 8.441406 -21.195312 C 9.429688 -26.136719 9.609375 -26.855469 9.878906 -26.675781 Z M 8.621094 -25.777344 C 8.800781 -26.046875 8.890625 -26.136719 8.890625 -25.867188 C 8.890625 -25.238281 8.261719 -24.160156 8.261719 -24.699219 C 8.261719 -24.96875 8.441406 -25.417969 8.621094 -25.777344 Z M 8.171875 -23.800781 C 8.261719 -23.53125 8.261719 -23.171875 8.171875 -22.902344 C 7.992188 -22.632812 7.992188 -22.902344 7.992188 -23.351562 C 7.992188 -23.800781 7.992188 -23.980469 8.171875 -23.800781 Z M 7.542969 -21.824219 C 7.632812 -22.183594 7.722656 -22.273438 7.8125 -22.003906 C 7.902344 -21.824219 7.902344 -21.464844 7.722656 -21.375 C 7.632812 -21.285156 7.542969 -21.464844 7.542969 -21.824219 Z M 7.453125 -20.386719 C 7.542969 -20.117188 7.542969 -19.757812 7.453125 -19.488281 C 7.363281 -19.21875 7.273438 -19.398438 7.273438 -19.9375 C 7.273438 -20.386719 7.363281 -20.566406 7.453125 -20.386719 Z M 6.914062 -18.050781 C 6.914062 -18.5 7.003906 -18.5 7.09375 -18.230469 C 7.183594 -18.050781 7.183594 -17.691406 7.09375 -17.601562 C 7.003906 -17.511719 6.914062 -17.691406 6.914062 -18.050781 Z M 6.734375 -16.078125 C 6.824219 -15.71875 6.824219 -15.269531 6.734375 -15 C 6.644531 -14.820312 6.554688 -15.089844 6.644531 -15.628906 C 6.644531 -16.167969 6.644531 -16.347656 6.734375 -16.078125 Z M 6.734375 -16.078125 "/></g></g></g><g fill="#ffffff" fill-opacity="1"><g transform="translate(246.015904, 315.215281)"><g><path d="M 12.574219 -43.019531 C 12.125 -42.839844 11.945312 -43.019531 11.945312 -43.289062 C 11.945312 -43.558594 11.675781 -43.648438 11.40625 -43.558594 C 11.136719 -43.46875 10.867188 -43.648438 10.6875 -44.097656 C 10.417969 -45.085938 9.519531 -45.445312 8.621094 -45.085938 C 6.375 -44.277344 2.246094 -31.253906 0.808594 -20.566406 C -0.808594 -9.519531 1.4375 -3.054688 7.902344 0.269531 C 10.238281 1.4375 11.226562 1.257812 10.328125 -0.269531 C 9.070312 -2.605469 8.710938 -4.042969 8.53125 -7.722656 C 8.351562 -12.753906 8.710938 -15.089844 11.765625 -27.84375 C 14.910156 -41.132812 14.910156 -41.3125 14.011719 -42.390625 C 13.5625 -42.929688 13.023438 -43.109375 12.574219 -43.019531 Z M 7.722656 -36.285156 C 7.8125 -36.105469 7.8125 -35.746094 7.632812 -35.65625 C 7.542969 -35.566406 7.453125 -35.746094 7.453125 -36.105469 C 7.453125 -36.464844 7.542969 -36.554688 7.722656 -36.285156 Z M 6.285156 -31.792969 C 6.375 -32.421875 6.644531 -33.320312 6.824219 -33.679688 C 7.003906 -34.128906 7.003906 -34.039062 6.914062 -33.140625 C 6.734375 -32.511719 6.554688 -31.703125 6.375 -31.253906 C 6.195312 -30.804688 6.105469 -30.984375 6.285156 -31.792969 Z M 4.582031 -24.699219 C 4.941406 -26.675781 6.015625 -30.625 6.015625 -30.175781 C 6.105469 -29.90625 5.746094 -28.378906 5.390625 -26.675781 C 4.671875 -23.710938 4.132812 -22.453125 4.582031 -24.699219 Z M 4.3125 -22.8125 C 4.3125 -22.453125 4.3125 -22.003906 4.222656 -21.824219 C 4.132812 -21.554688 4.132812 -21.824219 4.132812 -22.363281 C 4.132812 -22.992188 4.222656 -23.171875 4.3125 -22.8125 Z M 3.234375 -15.089844 C 3.054688 -15 3.054688 -15.179688 3.054688 -15.539062 C 3.054688 -15.988281 3.144531 -16.078125 3.234375 -15.808594 C 3.324219 -15.539062 3.324219 -15.269531 3.234375 -15.089844 Z M 3.683594 -20.027344 C 3.863281 -21.105469 3.953125 -21.195312 3.953125 -20.296875 C 3.953125 -19.757812 3.863281 -18.859375 3.683594 -18.320312 C 3.324219 -16.882812 3.324219 -18.230469 3.683594 -20.027344 Z M 3.953125 -12.214844 C 3.863281 -11.945312 3.773438 -12.214844 3.773438 -12.84375 C 3.773438 -13.382812 3.863281 -13.5625 3.953125 -13.203125 C 4.042969 -12.933594 4.042969 -12.394531 3.953125 -12.214844 Z M 4.402344 -16.078125 C 4.132812 -14.011719 4.132812 -14.011719 4.042969 -15.359375 C 3.953125 -18.5 6.464844 -29.726562 9.070312 -38.082031 C 9.699219 -40.234375 10.417969 -42.03125 10.597656 -42.03125 C 10.777344 -42.03125 10.777344 -41.941406 10.6875 -41.761719 C 10.058594 -40.683594 6.375 -26.675781 5.210938 -21.015625 C 4.941406 -19.488281 4.582031 -17.242188 4.402344 -16.078125 Z M 6.285156 -20.386719 C 6.195312 -20.207031 6.105469 -20.386719 6.105469 -20.835938 C 6.105469 -21.285156 6.195312 -21.554688 6.285156 -21.285156 C 6.375 -21.015625 6.375 -20.65625 6.285156 -20.386719 Z M 6.644531 -22.003906 C 6.554688 -21.824219 6.464844 -22.09375 6.464844 -22.453125 C 6.464844 -22.8125 6.554688 -22.902344 6.644531 -22.632812 C 6.734375 -22.363281 6.734375 -22.09375 6.644531 -22.003906 Z M 7.273438 -25.058594 C 7.183594 -24.96875 7.09375 -25.148438 7.09375 -25.507812 C 7.183594 -25.867188 7.273438 -25.957031 7.363281 -25.6875 C 7.453125 -25.417969 7.453125 -25.148438 7.273438 -25.058594 Z M 7.8125 -27.035156 C 7.542969 -26.316406 7.542969 -26.316406 7.542969 -26.855469 C 7.542969 -27.214844 7.632812 -27.933594 7.8125 -28.378906 C 7.992188 -29.097656 8.082031 -29.097656 8.082031 -28.558594 C 8.082031 -28.199219 7.902344 -27.484375 7.8125 -27.035156 Z M 8.351562 -29.457031 C 8.261719 -29.367188 8.171875 -29.546875 8.171875 -29.90625 C 8.171875 -30.355469 8.261719 -30.445312 8.351562 -30.175781 C 8.441406 -29.90625 8.441406 -29.636719 8.351562 -29.457031 Z M 8.710938 -30.894531 C 8.53125 -30.714844 8.53125 -30.984375 8.53125 -31.34375 C 8.53125 -31.703125 8.621094 -31.792969 8.710938 -31.523438 C 8.800781 -31.253906 8.800781 -30.984375 8.710938 -30.894531 Z M 10.417969 -36.914062 C 9.699219 -34.757812 9.160156 -33.230469 9.160156 -33.410156 C 9.160156 -34.128906 11.316406 -41.492188 11.496094 -41.132812 C 11.496094 -40.953125 11.046875 -39.070312 10.417969 -36.914062 Z M 17.421875 -58.828125 C 16.167969 -58.828125 12.84375 -56.761719 10.058594 -54.246094 C 8.441406 -52.808594 8.441406 -52.71875 8.890625 -51.730469 C 9.160156 -51.011719 9.519531 -50.742188 9.878906 -50.832031 C 10.238281 -50.921875 10.507812 -50.742188 10.507812 -50.5625 C 10.507812 -50.386719 10.867188 -50.476562 11.316406 -50.832031 C 11.765625 -51.191406 11.855469 -51.28125 11.675781 -51.011719 C 11.226562 -50.476562 11.046875 -49.21875 11.40625 -48.859375 C 11.855469 -48.410156 12.84375 -48.769531 13.382812 -49.667969 C 14.371094 -51.28125 17.421875 -54.066406 18.949219 -54.785156 C 19.757812 -55.144531 20.476562 -55.683594 20.476562 -55.953125 C 20.476562 -56.402344 17.960938 -58.828125 17.421875 -58.828125 Z M 17.421875 -58.828125 "/></g></g></g><g fill="#ffffff" fill-opacity="1"><g transform="translate(260.475719, 315.215281)"><g><path d="M 10.867188 -3.773438 C 9.96875 -3.414062 9.25 -3.054688 9.25 -2.785156 C 9.25 -2.066406 12.394531 -0.539062 14.460938 -0.359375 C 16.167969 -0.179688 16.617188 -0.269531 17.960938 -1.078125 C 22.8125 -3.953125 29.726562 -14.371094 32.78125 -23.351562 C 33.859375 -26.585938 34.308594 -32.242188 33.589844 -34.21875 C 33.230469 -35.476562 30.535156 -38.261719 29.726562 -38.261719 C 29.457031 -38.261719 29.007812 -38.621094 28.648438 -38.980469 C 26.855469 -40.863281 24.339844 -41.222656 21.464844 -39.875 C 19.308594 -38.710938 15 -34.398438 12.574219 -30.804688 C 11.675781 -29.457031 10.867188 -28.378906 10.777344 -28.378906 C 10.597656 -28.648438 13.921875 -39.160156 15.449219 -43.289062 C 17.78125 -49.308594 20.476562 -55.414062 23.710938 -61.96875 C 25.417969 -65.292969 26.765625 -68.4375 26.765625 -68.796875 C 26.765625 -69.15625 26.226562 -69.695312 25.597656 -70.144531 C 24.878906 -70.59375 24.25 -71.222656 24.160156 -71.582031 C 23.800781 -72.660156 22.542969 -72.390625 21.015625 -71.042969 C 16.882812 -67.089844 8.800781 -50.832031 4.851562 -38.53125 C 0.988281 -26.226562 -1.078125 -12.933594 -0.269531 -5.746094 C 0.179688 -1.527344 0.269531 -1.347656 1.4375 -0.808594 C 2.515625 -0.179688 3.144531 -0.179688 3.59375 -0.808594 C 3.683594 -0.988281 3.773438 -0.898438 3.863281 -0.628906 C 3.863281 -0.359375 4.042969 -0.269531 4.3125 -0.359375 C 4.671875 -0.539062 4.851562 -0.359375 4.851562 -0.179688 C 4.851562 0.0898438 5.03125 0.449219 5.300781 0.71875 C 5.746094 1.167969 6.914062 1.078125 7.363281 0.628906 C 7.453125 0.449219 7.542969 -0.808594 7.542969 -1.976562 C 7.632812 -10.6875 13.113281 -22.722656 20.207031 -29.996094 C 22.542969 -32.242188 25.597656 -34.488281 26.40625 -34.488281 C 26.945312 -34.488281 26.765625 -32.78125 25.6875 -28.738281 C 22.8125 -17.332031 15.71875 -5.480469 10.867188 -3.773438 Z M 3.144531 -19.9375 C 3.144531 -20.386719 3.234375 -20.476562 3.414062 -20.207031 C 3.503906 -19.9375 3.503906 -19.667969 3.324219 -19.488281 C 3.234375 -19.398438 3.144531 -19.578125 3.144531 -19.9375 Z M 2.335938 -11.945312 C 2.246094 -11.675781 2.15625 -12.035156 2.15625 -12.753906 C 2.246094 -13.472656 2.246094 -13.742188 2.335938 -13.382812 C 2.425781 -12.933594 2.425781 -12.304688 2.335938 -11.945312 Z M 2.695312 -15.089844 C 2.605469 -14.730469 2.515625 -15 2.515625 -15.628906 C 2.515625 -16.347656 2.605469 -16.617188 2.695312 -16.257812 C 2.785156 -15.898438 2.785156 -15.359375 2.695312 -15.089844 Z M 2.875 -18.050781 C 2.875 -18.5 2.964844 -18.679688 3.054688 -18.5 C 3.144531 -18.230469 3.144531 -17.871094 3.054688 -17.601562 C 2.964844 -17.421875 2.875 -17.601562 2.875 -18.050781 Z M 3.59375 -14.460938 C 3.503906 -13.023438 3.234375 -11.765625 3.144531 -11.765625 C 2.785156 -11.496094 3.054688 -13.832031 3.863281 -18.859375 C 6.015625 -31.882812 10.597656 -45.714844 17.242188 -58.828125 C 19.308594 -62.957031 22.722656 -68.886719 23.351562 -69.246094 C 23.53125 -69.335938 22.8125 -68.078125 21.824219 -66.550781 C 17.960938 -60.445312 12.304688 -47.871094 9.339844 -39.070312 C 6.734375 -31.164062 4.132812 -20.027344 3.59375 -14.460938 Z M 5.121094 -17.601562 C 4.941406 -17.421875 4.941406 -17.601562 4.941406 -18.050781 C 4.941406 -18.5 4.941406 -18.679688 5.121094 -18.5 C 5.210938 -18.230469 5.210938 -17.871094 5.121094 -17.601562 Z M 5.390625 -19.667969 C 5.300781 -19.488281 5.210938 -19.667969 5.210938 -20.117188 C 5.210938 -20.566406 5.300781 -20.746094 5.390625 -20.566406 C 5.480469 -20.296875 5.480469 -19.9375 5.390625 -19.667969 Z M 6.464844 -24.429688 C 6.015625 -22.542969 5.570312 -21.105469 5.570312 -21.375 C 5.480469 -21.914062 7.09375 -28.738281 8.261719 -32.960938 C 10.417969 -40.683594 13.472656 -48.5 17.691406 -57.300781 C 20.117188 -62.328125 23.890625 -69.066406 24.25 -69.066406 C 24.339844 -69.066406 24.160156 -68.527344 23.710938 -67.988281 C 17.421875 -57.480469 11.496094 -43.558594 8.351562 -31.792969 C 7.722656 -29.546875 6.914062 -26.316406 6.464844 -24.429688 Z M 24.339844 -15.269531 C 24.339844 -15.449219 24.519531 -15.71875 24.699219 -15.808594 C 24.878906 -15.988281 24.96875 -15.808594 24.878906 -15.539062 C 24.609375 -14.910156 24.339844 -14.820312 24.339844 -15.269531 Z M 30.175781 -26.046875 C 30.175781 -25.238281 27.753906 -19.039062 26.40625 -16.347656 C 25.6875 -14.910156 24.878906 -13.472656 24.609375 -13.113281 C 24.339844 -12.753906 24.878906 -14.101562 25.957031 -16.257812 C 27.035156 -18.410156 28.378906 -21.554688 29.007812 -23.261719 C 29.636719 -25.058594 30.175781 -26.226562 30.175781 -26.046875 Z M 28.46875 -28.828125 C 28.46875 -29.277344 28.558594 -29.367188 28.738281 -29.097656 C 28.828125 -28.828125 28.828125 -28.558594 28.648438 -28.378906 C 28.558594 -28.289062 28.46875 -28.46875 28.46875 -28.828125 Z M 28.109375 -27.125 C 28.289062 -27.574219 28.378906 -27.664062 28.378906 -27.304688 C 28.378906 -27.035156 28.289062 -26.496094 28.109375 -26.136719 C 27.933594 -25.6875 27.84375 -25.597656 27.84375 -25.957031 C 27.84375 -26.226562 27.933594 -26.765625 28.109375 -27.125 Z M 27.035156 -21.285156 C 27.664062 -22.992188 28.648438 -25.957031 29.1875 -27.933594 C 29.726562 -29.996094 30.175781 -31.34375 30.175781 -30.984375 C 30.175781 -30.085938 29.546875 -27.484375 28.378906 -24.070312 C 27.84375 -22.363281 26.945312 -20.027344 26.40625 -18.949219 C 25.238281 -16.617188 25.328125 -16.972656 27.035156 -21.285156 Z M 27.035156 -21.285156 "/></g></g></g><g fill="#ffffff" fill-opacity="1"><g transform="translate(296.580339, 315.215281)"><g><path d="M 28.828125 -43.199219 C 26.675781 -44.277344 26.046875 -44.457031 24.96875 -44.277344 C 22.992188 -43.917969 20.476562 -42.480469 18.410156 -40.503906 C 17.242188 -39.515625 16.617188 -39.070312 16.796875 -39.425781 C 16.882812 -39.875 17.332031 -41.222656 17.691406 -42.570312 C 18.410156 -44.816406 18.410156 -45.085938 17.871094 -45.625 C 17.601562 -45.894531 17.152344 -46.164062 16.882812 -46.164062 C 16.527344 -46.164062 15.988281 -46.523438 15.628906 -46.972656 C 14.730469 -48.140625 14.191406 -48.050781 12.753906 -46.523438 C 7.453125 -40.59375 0.808594 -19.578125 0.269531 -6.914062 L 0.0898438 -1.796875 L 1.167969 -0.988281 C 2.425781 -0.0898438 2.425781 -0.0898438 3.054688 -0.808594 C 3.414062 -1.078125 3.59375 -1.167969 3.59375 -0.988281 C 3.59375 -0.269531 4.3125 -0.628906 4.3125 -1.347656 C 4.402344 -2.066406 4.402344 -2.066406 4.492188 -1.4375 C 4.582031 -1.078125 4.761719 -0.449219 4.851562 0 C 5.03125 0.898438 6.015625 0.988281 6.824219 0.269531 C 7.09375 0 7.453125 -1.167969 7.542969 -2.246094 C 8.261719 -8.890625 9.339844 -12.664062 12.304688 -19.578125 C 16.707031 -29.726562 21.375 -36.285156 25.867188 -38.890625 C 28.289062 -40.324219 29.007812 -40.234375 30.175781 -38.800781 C 30.625 -38.082031 31.253906 -37.542969 31.523438 -37.542969 C 31.792969 -37.542969 32.0625 -37.453125 32.0625 -37.183594 C 32.0625 -36.464844 33.140625 -37.09375 33.410156 -37.902344 C 33.859375 -39.785156 32.601562 -41.222656 28.828125 -43.199219 Z M 13.921875 -43.019531 C 14.101562 -43.46875 14.371094 -43.738281 14.460938 -43.738281 C 14.550781 -43.738281 14.460938 -43.46875 14.191406 -43.019531 C 14.011719 -42.660156 13.742188 -42.390625 13.652344 -42.390625 C 13.5625 -42.390625 13.652344 -42.660156 13.921875 -43.019531 Z M 13.203125 -41.492188 C 13.382812 -41.671875 13.472656 -41.492188 13.292969 -41.222656 C 13.113281 -40.59375 12.84375 -40.503906 12.84375 -40.953125 C 12.84375 -41.132812 13.023438 -41.402344 13.203125 -41.492188 Z M 7.542969 -25.238281 C 6.914062 -22.902344 6.285156 -20.925781 6.195312 -20.835938 C 5.835938 -20.566406 6.285156 -22.09375 8.082031 -28.199219 C 9.609375 -33.320312 12.125 -39.785156 12.394531 -39.515625 C 12.484375 -39.425781 12.035156 -38.351562 11.496094 -37.003906 C 10.238281 -33.859375 8.980469 -30.355469 7.542969 -25.238281 Z M 15.898438 -44.277344 C 15.628906 -43.738281 14.191406 -40.59375 12.933594 -37.722656 C 12.304688 -36.375 11.316406 -33.589844 10.597656 -31.523438 C 9.429688 -27.84375 8.800781 -26.496094 9.25 -28.46875 C 10.148438 -32.0625 14.730469 -43.378906 15.628906 -44.277344 C 15.898438 -44.457031 15.988281 -44.457031 15.898438 -44.277344 Z M 15.898438 -44.277344 "/></g></g></g><g fill="#ffffff" fill-opacity="1"><g transform="translate(328.553595, 315.215281)"><g><path d="M 18.5 -39.964844 C 14.28125 -38.710938 10.597656 -35.835938 6.914062 -31.253906 C 0.539062 -23.351562 -1.886719 -12.753906 1.078125 -6.554688 C 2.15625 -4.402344 4.402344 -2.335938 7.632812 -0.449219 C 10.328125 1.078125 10.597656 1.078125 12.84375 0.988281 C 14.371094 0.898438 15.808594 0.628906 16.617188 0.179688 C 21.644531 -2.246094 29.996094 -14.460938 27.304688 -15.449219 C 26.945312 -15.628906 26.226562 -14.910156 25.238281 -13.382812 C 24.339844 -12.125 22.542969 -9.96875 21.195312 -8.53125 C 18.050781 -5.390625 14.101562 -3.324219 10.957031 -3.054688 L 8.890625 -2.964844 L 8.171875 -4.582031 C 7.542969 -6.015625 7.453125 -6.644531 7.632812 -9.878906 C 7.8125 -13.203125 9.070312 -18.320312 9.609375 -17.960938 C 13.832031 -15.628906 17.601562 -16.257812 21.824219 -19.9375 C 26.675781 -24.25 29.90625 -33.230469 27.664062 -36.464844 C 27.214844 -37.09375 26.765625 -37.632812 26.675781 -37.632812 C 26.585938 -37.632812 25.777344 -38.171875 24.878906 -38.980469 C 22.722656 -40.683594 21.375 -40.863281 18.5 -39.964844 Z M 2.964844 -15.449219 C 2.875 -15.359375 2.785156 -15.539062 2.785156 -15.898438 C 2.785156 -16.257812 2.875 -16.347656 2.964844 -16.078125 C 3.144531 -15.808594 3.054688 -15.539062 2.964844 -15.449219 Z M 3.144531 -17.421875 C 3.144531 -17.691406 3.324219 -18.230469 3.503906 -18.589844 C 3.683594 -19.039062 3.773438 -19.128906 3.773438 -18.769531 C 3.773438 -18.5 3.59375 -17.960938 3.503906 -17.601562 C 3.234375 -17.152344 3.144531 -17.0625 3.144531 -17.421875 Z M 3.324219 -13.472656 C 3.59375 -15.539062 4.3125 -18.589844 5.03125 -20.296875 C 5.835938 -22.363281 5.835938 -21.554688 4.941406 -18.769531 C 4.492188 -17.332031 3.953125 -15.179688 3.683594 -14.011719 C 3.234375 -11.945312 3.144531 -11.855469 3.324219 -13.472656 Z M 5.03125 -15.089844 C 4.941406 -15 4.851562 -15.179688 4.851562 -15.539062 C 4.851562 -15.988281 4.941406 -15.988281 5.03125 -15.71875 C 5.121094 -15.539062 5.121094 -15.179688 5.03125 -15.089844 Z M 6.464844 -20.117188 C 6.464844 -19.847656 6.195312 -18.859375 5.835938 -17.871094 C 5.300781 -16.617188 5.210938 -16.4375 5.390625 -17.332031 C 5.65625 -18.679688 6.554688 -20.925781 6.464844 -20.117188 Z M 11.226562 -28.738281 C 11.765625 -29.1875 11.765625 -29.1875 11.40625 -28.648438 C 10.957031 -28.023438 10.6875 -27.84375 10.6875 -28.109375 C 10.6875 -28.199219 10.957031 -28.46875 11.226562 -28.738281 Z M 7.542969 -24.96875 C 7.363281 -24.519531 7.09375 -24.25 7.003906 -24.25 C 6.914062 -24.25 7.003906 -24.519531 7.183594 -24.96875 C 7.453125 -25.328125 7.632812 -25.597656 7.722656 -25.597656 C 7.8125 -25.597656 7.722656 -25.328125 7.542969 -24.96875 Z M 9.429688 -25.6875 C 8.710938 -24.519531 8.082031 -23.53125 7.992188 -23.53125 C 7.722656 -23.53125 9.699219 -26.945312 10.238281 -27.394531 C 10.507812 -27.574219 10.148438 -26.855469 9.429688 -25.6875 Z M 24.699219 -28.46875 C 24.699219 -28.289062 24.429688 -27.84375 24.160156 -27.484375 C 23.621094 -26.855469 23.621094 -26.855469 23.980469 -27.664062 C 24.519531 -28.738281 24.699219 -28.917969 24.699219 -28.46875 Z M 23.890625 -35.117188 C 24.25 -34.667969 23.171875 -30.894531 22.09375 -28.648438 C 20.476562 -25.417969 17.871094 -22.632812 15.269531 -21.464844 C 13.382812 -20.566406 10.6875 -20.117188 10.6875 -20.746094 C 10.6875 -21.285156 13.5625 -25.6875 15.539062 -28.289062 C 18.320312 -31.703125 23.261719 -35.746094 23.890625 -35.117188 Z M 23.890625 -35.117188 "/></g></g></g></svg>