<svg xmlns="http://www.w3.org/2000/svg" xmlns:xlink="http://www.w3.org/1999/xlink" width="500" zoomAndPan="magnify" viewBox="0 0 375 374.999991" height="500" preserveAspectRatio="xMidYMid meet" version="1.0"><defs><g/><clipPath id="id1"><path d="M 129 111.292969 L 246.535156 111.292969 L 246.535156 189.292969 L 129 189.292969 Z M 129 111.292969 " clip-rule="nonzero"/></clipPath><clipPath id="id2"><path d="M 155 135 L 220.988281 135 L 220.988281 163.613281 L 155 163.613281 Z M 155 135 " clip-rule="nonzero"/></clipPath><clipPath id="id3"><path d="M 154.238281 130 L 188 130 L 188 162 L 154.238281 162 Z M 154.238281 130 " clip-rule="nonzero"/></clipPath><clipPath id="id4"><path d="M 154.238281 130 L 189 130 L 189 162 L 154.238281 162 Z M 154.238281 130 " clip-rule="nonzero"/></clipPath><clipPath id="id5"><path d="M 159 126.113281 L 188 126.113281 L 188 162 L 159 162 Z M 159 126.113281 " clip-rule="nonzero"/></clipPath><clipPath id="id6"><path d="M 159 126.113281 L 189 126.113281 L 189 162 L 159 162 Z M 159 126.113281 " clip-rule="nonzero"/></clipPath><clipPath id="id7"><path d="M 187 130 L 220.988281 130 L 220.988281 162 L 187 162 Z M 187 130 " clip-rule="nonzero"/></clipPath><clipPath id="id8"><path d="M 187 126.113281 L 216 126.113281 L 216 162 L 187 162 Z M 187 126.113281 " clip-rule="nonzero"/></clipPath></defs><g clip-path="url(#id1)"><path fill="#00c2cb" d="M 230.582031 111.292969 L 144.832031 111.292969 C 140.816406 111.292969 137.535156 114.558594 137.535156 118.550781 L 137.535156 175.324219 C 137.261719 175.507812 136.988281 175.6875 136.714844 175.960938 L 130.234375 183.214844 C 129.324219 184.304688 129.050781 185.847656 129.597656 187.117188 C 130.234375 188.476562 131.511719 189.292969 132.972656 189.292969 L 242.441406 189.292969 C 243.902344 189.292969 245.179688 188.476562 245.726562 187.117188 C 246.273438 185.847656 246.089844 184.304688 245.085938 183.214844 L 238.609375 175.960938 C 238.335938 175.6875 238.0625 175.507812 237.789062 175.324219 L 237.789062 118.550781 C 237.878906 114.558594 234.597656 111.292969 230.582031 111.292969 Z M 141.183594 118.550781 C 141.183594 116.554688 142.824219 114.921875 144.832031 114.921875 L 230.582031 114.921875 C 232.589844 114.921875 234.230469 116.554688 234.230469 118.550781 L 234.230469 174.78125 L 141.183594 174.78125 Z M 242.441406 185.664062 L 132.972656 185.664062 L 139.449219 178.410156 L 235.964844 178.410156 Z M 242.441406 185.664062 " fill-opacity="1" fill-rule="nonzero"/></g><path fill="#00c2cb" d="M 226.933594 118.550781 L 148.480469 118.550781 C 146.472656 118.550781 144.832031 120.183594 144.832031 122.175781 L 144.832031 167.527344 C 144.832031 169.519531 146.472656 171.152344 148.480469 171.152344 L 226.933594 171.152344 C 228.941406 171.152344 230.582031 169.519531 230.582031 167.527344 L 230.582031 122.175781 C 230.582031 120.183594 228.941406 118.550781 226.933594 118.550781 Z M 178.675781 141.042969 L 183.875 135.871094 C 184.605469 135.148438 185.699219 135.148438 186.429688 135.871094 C 187.160156 136.597656 187.160156 137.6875 186.429688 138.410156 L 181.230469 143.582031 C 180.867188 143.945312 180.410156 144.125 179.953125 144.125 C 179.496094 144.125 179.042969 143.945312 178.675781 143.582031 C 177.945312 142.855469 177.945312 141.675781 178.675781 141.042969 Z M 181.230469 153.105469 C 180.773438 153.105469 180.316406 152.921875 179.953125 152.5625 C 179.222656 151.835938 179.222656 150.746094 179.953125 150.019531 L 192.816406 137.234375 C 193.546875 136.507812 194.640625 136.507812 195.371094 137.234375 C 196.101562 137.957031 196.101562 139.046875 195.371094 139.773438 L 182.507812 152.5625 C 182.234375 152.921875 181.6875 153.105469 181.230469 153.105469 Z M 196.738281 148.660156 L 191.539062 153.832031 C 191.175781 154.195312 190.71875 154.375 190.261719 154.375 C 189.804688 154.375 189.347656 154.195312 188.984375 153.832031 C 188.253906 153.105469 188.253906 152.015625 188.984375 151.292969 L 194.183594 146.121094 C 194.914062 145.394531 196.007812 145.394531 196.738281 146.121094 C 197.46875 146.847656 197.46875 148.027344 196.738281 148.660156 Z M 196.738281 148.660156 " fill-opacity="1" fill-rule="nonzero"/><path fill="#00c2cb" d="M 144.886719 127.722656 L 229.617188 127.722656 L 229.617188 162.222656 L 144.886719 162.222656 L 144.886719 127.722656 " fill-opacity="1" fill-rule="nonzero"/><path fill="#ffffff" d="M 218.71875 161.332031 L 216.074219 137.203125 L 188.601562 137.203125 L 188.601562 137.042969 L 186.652344 137.042969 L 186.652344 137.203125 L 159.183594 137.203125 L 156.539062 161.332031 L 186.652344 161.332031 L 186.652344 161.199219 C 186.652344 161.734375 187.089844 162.167969 187.628906 162.167969 C 188.164062 162.167969 188.601562 161.734375 188.601562 161.199219 L 188.601562 161.332031 L 218.71875 161.332031 " fill-opacity="1" fill-rule="nonzero"/><g clip-path="url(#id2)"><path fill="#000000" d="M 186.652344 159.769531 C 187.03125 159.769531 187.371094 159.910156 187.628906 160.148438 C 187.882812 159.910156 188.226562 159.769531 188.601562 159.769531 C 188.820312 159.769531 189.023438 159.816406 189.207031 159.902344 L 217.117188 159.902344 L 214.785156 138.632812 L 188.601562 138.632812 C 188.363281 138.632812 188.136719 138.574219 187.941406 138.472656 L 187.316406 138.472656 C 187.117188 138.574219 186.894531 138.632812 186.652344 138.632812 L 160.472656 138.632812 L 158.140625 159.902344 L 186.050781 159.902344 C 186.234375 159.816406 186.4375 159.769531 186.652344 159.769531 Z M 187.628906 163.601562 C 186.898438 163.601562 186.242188 163.273438 185.800781 162.761719 L 156.539062 162.761719 C 156.128906 162.761719 155.742188 162.589844 155.46875 162.285156 C 155.195312 161.984375 155.066406 161.582031 155.113281 161.175781 L 157.757812 137.046875 C 157.835938 136.320312 158.453125 135.773438 159.183594 135.773438 L 185.992188 135.773438 C 186.191406 135.667969 186.414062 135.609375 186.652344 135.609375 L 188.601562 135.609375 C 188.839844 135.609375 189.066406 135.667969 189.265625 135.773438 L 216.074219 135.773438 C 216.804688 135.773438 217.421875 136.320312 217.5 137.046875 L 220.144531 161.175781 C 220.1875 161.582031 220.058594 161.984375 219.785156 162.285156 C 219.515625 162.589844 219.125 162.761719 218.71875 162.761719 L 189.457031 162.761719 C 189.011719 163.273438 188.359375 163.601562 187.628906 163.601562 " fill-opacity="1" fill-rule="nonzero"/></g><path fill="#ffffff" d="M 187.605469 137.121094 C 187.605469 137.121094 181.175781 128.933594 173.1875 133.785156 C 165.203125 138.640625 158.613281 135.144531 158.613281 135.144531 L 155.96875 159.28125 C 155.96875 159.28125 165.203125 162.777344 173.1875 157.921875 C 181.175781 153.070312 187.605469 161.257812 187.605469 161.257812 L 187.605469 137.121094 " fill-opacity="1" fill-rule="nonzero"/><path fill="#000000" d="M 178.363281 155.957031 C 182.546875 155.957031 185.765625 158.691406 187.171875 160.132812 L 187.171875 137.277344 C 186.570312 136.566406 183.050781 132.679688 178.363281 132.679688 C 176.6875 132.679688 175.023438 133.175781 173.414062 134.152344 C 170.53125 135.90625 167.507812 136.792969 164.429688 136.792969 C 161.824219 136.792969 159.882812 136.152344 158.976562 135.78125 L 156.433594 158.988281 C 157.332031 159.28125 160.070312 160.070312 163.460938 160.070312 C 167.023438 160.070312 170.21875 159.222656 172.964844 157.554688 C 174.710938 156.496094 176.527344 155.957031 178.363281 155.957031 Z M 187.605469 161.6875 C 187.472656 161.6875 187.347656 161.628906 187.265625 161.523438 C 187.226562 161.476562 183.5 156.816406 178.363281 156.816406 C 176.6875 156.816406 175.023438 157.3125 173.414062 158.289062 C 170.53125 160.039062 167.183594 160.929688 163.460938 160.929688 C 159.152344 160.929688 155.949219 159.734375 155.8125 159.683594 C 155.628906 159.613281 155.515625 159.429688 155.539062 159.234375 L 158.183594 135.097656 C 158.199219 134.957031 158.285156 134.832031 158.410156 134.765625 C 158.535156 134.699219 158.6875 134.699219 158.8125 134.765625 C 158.835938 134.777344 161.066406 135.933594 164.429688 135.933594 C 167.347656 135.933594 170.21875 135.089844 172.964844 133.421875 C 174.710938 132.359375 176.527344 131.820312 178.363281 131.820312 C 183.925781 131.820312 187.78125 136.652344 187.945312 136.859375 C 188.003906 136.933594 188.035156 137.027344 188.035156 137.121094 L 188.035156 161.257812 C 188.035156 161.441406 187.917969 161.605469 187.746094 161.664062 C 187.699219 161.679688 187.652344 161.6875 187.605469 161.6875 " fill-opacity="1" fill-rule="nonzero"/><g clip-path="url(#id3)"><path fill="#ffffff" d="M 187.605469 137.363281 C 187.605469 137.363281 183.777344 128.039062 173.648438 131.144531 C 163.519531 134.25 164.339844 133.769531 157.328125 131.050781 L 154.683594 154.945312 C 161.695312 157.664062 163.519531 158.144531 173.648438 155.039062 C 183.777344 151.933594 187.605469 161.257812 187.605469 161.257812 L 187.605469 137.363281 " fill-opacity="1" fill-rule="nonzero"/></g><g clip-path="url(#id4)"><path fill="#000000" d="M 177.609375 153.976562 C 182.824219 153.976562 185.839844 157.484375 187.171875 159.578125 L 187.171875 137.453125 C 186.847656 136.730469 184.019531 130.9375 177.609375 130.9375 C 176.394531 130.9375 175.105469 131.144531 173.777344 131.554688 C 168.765625 133.089844 166.53125 133.714844 164.605469 133.714844 C 162.847656 133.714844 161.507812 133.179688 159.078125 132.207031 C 158.652344 132.039062 158.195312 131.855469 157.691406 131.65625 L 155.144531 154.667969 C 158.597656 156 160.738281 156.753906 163.378906 156.753906 C 165.722656 156.753906 168.472656 156.175781 173.523438 154.628906 C 174.933594 154.195312 176.308594 153.976562 177.609375 153.976562 Z M 187.605469 161.6875 C 187.433594 161.6875 187.273438 161.585938 187.207031 161.421875 C 187.179688 161.355469 184.410156 154.835938 177.609375 154.835938 C 176.394531 154.835938 175.105469 155.039062 173.777344 155.449219 C 168.632812 157.023438 165.816406 157.609375 163.378906 157.609375 C 160.515625 157.609375 158.148438 156.75 154.523438 155.347656 C 154.34375 155.277344 154.230469 155.09375 154.253906 154.898438 L 156.898438 131.003906 C 156.914062 130.871094 156.988281 130.753906 157.105469 130.683594 C 157.21875 130.617188 157.359375 130.605469 157.484375 130.652344 C 158.195312 130.929688 158.828125 131.183594 159.398438 131.410156 C 161.730469 132.34375 163.011719 132.859375 164.605469 132.859375 C 166.40625 132.859375 168.707031 132.210938 173.523438 130.734375 C 174.933594 130.300781 176.308594 130.082031 177.609375 130.082031 C 184.996094 130.082031 187.972656 137.128906 188.003906 137.203125 C 188.023438 137.253906 188.035156 137.308594 188.035156 137.363281 L 188.035156 161.257812 C 188.035156 161.464844 187.890625 161.640625 187.6875 161.679688 C 187.660156 161.683594 187.632812 161.6875 187.605469 161.6875 " fill-opacity="1" fill-rule="nonzero"/></g><g clip-path="url(#id5)"><path fill="#ffffff" d="M 175.214844 126.957031 C 167.566406 127.800781 170.15625 129.96875 162.339844 127.089844 L 159.691406 151.140625 C 167.511719 154.019531 167.566406 151.855469 175.214844 151.007812 C 182.867188 150.160156 187.605469 161.257812 187.605469 161.257812 L 187.605469 137.207031 C 187.605469 137.207031 182.867188 126.109375 175.214844 126.957031 " fill-opacity="1" fill-rule="nonzero"/></g><g clip-path="url(#id6)"><path fill="#000000" d="M 176.046875 150.53125 C 181.660156 150.53125 185.558594 156.425781 187.171875 159.410156 L 187.171875 137.296875 C 186.75 136.359375 182.515625 127.339844 176.046875 127.339844 C 175.789062 127.339844 175.523438 127.351562 175.261719 127.382812 C 172.582031 127.679688 171.171875 128.144531 170.140625 128.484375 C 169.324219 128.753906 168.675781 128.964844 167.816406 128.964844 C 166.703125 128.964844 165.289062 128.613281 162.707031 127.679688 L 160.160156 150.851562 C 162.691406 151.765625 164.453125 152.15625 166.003906 152.15625 C 167.261719 152.15625 168.339844 151.902344 169.707031 151.574219 C 171.0625 151.25 172.753906 150.847656 175.167969 150.582031 C 175.460938 150.546875 175.757812 150.53125 176.046875 150.53125 Z M 187.605469 161.6875 C 187.433594 161.6875 187.277344 161.589844 187.207031 161.425781 C 187.164062 161.328125 182.835938 151.390625 176.046875 151.390625 C 175.789062 151.390625 175.523438 151.40625 175.261719 151.433594 C 172.902344 151.695312 171.242188 152.089844 169.90625 152.410156 C 168.484375 152.75 167.363281 153.015625 166.003906 153.015625 C 164.28125 153.015625 162.347656 152.574219 159.542969 151.542969 C 159.359375 151.476562 159.242188 151.289062 159.265625 151.09375 L 161.910156 127.042969 C 161.925781 126.910156 162 126.792969 162.113281 126.722656 C 162.222656 126.652344 162.363281 126.640625 162.488281 126.683594 C 165.261719 127.707031 166.757812 128.105469 167.816406 128.105469 C 168.539062 128.105469 169.097656 127.921875 169.871094 127.667969 C 170.9375 127.316406 172.398438 126.835938 175.167969 126.527344 C 175.460938 126.496094 175.757812 126.480469 176.046875 126.480469 C 183.40625 126.480469 187.816406 136.605469 188 137.039062 C 188.023438 137.09375 188.035156 137.148438 188.035156 137.207031 L 188.035156 161.257812 C 188.035156 161.460938 187.890625 161.636719 187.691406 161.679688 C 187.660156 161.683594 187.632812 161.6875 187.605469 161.6875 " fill-opacity="1" fill-rule="nonzero"/></g><path fill="#ffffff" d="M 187.605469 137.121094 C 187.605469 137.121094 194.03125 128.933594 202.019531 133.785156 C 210.007812 138.640625 216.597656 135.144531 216.597656 135.144531 L 219.242188 159.28125 C 219.242188 159.28125 210.007812 162.777344 202.019531 157.921875 C 194.03125 153.070312 187.605469 161.257812 187.605469 161.257812 L 187.605469 137.121094 " fill-opacity="1" fill-rule="nonzero"/><path fill="#000000" d="M 188.035156 137.277344 L 188.035156 160.132812 C 189.441406 158.691406 192.660156 155.957031 196.84375 155.957031 C 198.679688 155.957031 200.496094 156.496094 202.246094 157.554688 C 204.988281 159.226562 208.1875 160.070312 211.746094 160.070312 C 215.144531 160.070312 217.878906 159.28125 218.777344 158.988281 L 216.234375 135.78125 C 215.324219 136.152344 213.382812 136.792969 210.777344 136.792969 C 207.699219 136.792969 204.675781 135.90625 201.796875 134.152344 C 200.1875 133.175781 198.519531 132.679688 196.84375 132.679688 C 192.15625 132.679688 188.640625 136.566406 188.035156 137.277344 Z M 187.605469 161.6875 C 187.558594 161.6875 187.507812 161.679688 187.464844 161.664062 C 187.289062 161.605469 187.171875 161.441406 187.171875 161.257812 L 187.171875 137.121094 C 187.171875 137.027344 187.207031 136.933594 187.265625 136.859375 C 187.425781 136.652344 191.285156 131.820312 196.84375 131.820312 C 198.679688 131.820312 200.496094 132.359375 202.246094 133.421875 C 204.988281 135.089844 207.859375 135.933594 210.777344 135.933594 C 214.15625 135.933594 216.371094 134.777344 216.394531 134.765625 C 216.519531 134.699219 216.671875 134.699219 216.796875 134.765625 C 216.925781 134.832031 217.011719 134.957031 217.023438 135.097656 L 219.671875 159.234375 C 219.691406 159.429688 219.578125 159.613281 219.394531 159.683594 C 219.261719 159.734375 216.054688 160.929688 211.746094 160.929688 C 208.027344 160.929688 204.675781 160.039062 201.796875 158.289062 C 200.1875 157.3125 198.519531 156.816406 196.84375 156.816406 C 191.699219 156.816406 187.980469 161.476562 187.945312 161.523438 C 187.859375 161.628906 187.734375 161.6875 187.605469 161.6875 " fill-opacity="1" fill-rule="nonzero"/><g clip-path="url(#id7)"><path fill="#ffffff" d="M 187.605469 137.363281 C 187.605469 137.363281 191.429688 128.039062 201.558594 131.144531 C 211.6875 134.25 210.867188 133.769531 217.882812 131.050781 L 220.527344 154.945312 C 213.515625 157.664062 211.6875 158.144531 201.558594 155.039062 C 191.429688 151.933594 187.605469 161.257812 187.605469 161.257812 L 187.605469 137.363281 " fill-opacity="1" fill-rule="nonzero"/><path fill="#000000" d="M 188.035156 137.453125 L 188.035156 159.578125 C 189.371094 157.484375 192.386719 153.976562 197.601562 153.976562 C 198.898438 153.976562 200.273438 154.195312 201.6875 154.628906 C 206.738281 156.175781 209.488281 156.753906 211.828125 156.753906 C 214.46875 156.753906 216.609375 156 220.0625 154.667969 L 217.515625 131.65625 C 217.015625 131.851562 216.554688 132.035156 216.128906 132.207031 C 213.699219 133.179688 212.363281 133.714844 210.605469 133.714844 C 208.675781 133.714844 206.445312 133.089844 201.433594 131.554688 C 200.105469 131.144531 198.8125 130.9375 197.601562 130.9375 C 191.175781 130.9375 188.359375 136.730469 188.035156 137.453125 Z M 187.605469 161.6875 C 187.578125 161.6875 187.550781 161.683594 187.519531 161.679688 C 187.320312 161.640625 187.171875 161.464844 187.171875 161.257812 L 187.171875 137.363281 C 187.171875 137.308594 187.183594 137.253906 187.207031 137.203125 C 187.234375 137.128906 190.210938 130.082031 197.601562 130.082031 C 198.898438 130.082031 200.273438 130.300781 201.6875 130.734375 C 206.503906 132.210938 208.804688 132.859375 210.605469 132.859375 C 212.195312 132.859375 213.480469 132.34375 215.808594 131.410156 C 216.378906 131.183594 217.011719 130.929688 217.726562 130.652344 C 217.851562 130.605469 217.992188 130.617188 218.105469 130.683594 C 218.21875 130.753906 218.296875 130.871094 218.3125 131.003906 L 220.953125 154.898438 C 220.976562 155.09375 220.863281 155.277344 220.683594 155.347656 C 217.058594 156.75 214.695312 157.609375 211.828125 157.609375 C 209.390625 157.609375 206.574219 157.023438 201.433594 155.449219 C 200.105469 155.039062 198.8125 154.835938 197.601562 154.835938 C 190.78125 154.835938 188.03125 161.355469 188.003906 161.421875 C 187.9375 161.585938 187.777344 161.6875 187.605469 161.6875 " fill-opacity="1" fill-rule="nonzero"/></g><g clip-path="url(#id8)"><path fill="#ffffff" d="M 199.992188 126.957031 C 207.640625 127.800781 205.050781 129.96875 212.871094 127.089844 L 215.515625 151.140625 C 207.695312 154.019531 207.640625 151.855469 199.992188 151.007812 C 192.34375 150.160156 187.605469 161.257812 187.605469 161.257812 L 187.605469 137.207031 C 187.605469 137.207031 192.34375 126.109375 199.992188 126.957031 " fill-opacity="1" fill-rule="nonzero"/><path fill="#000000" d="M 188.035156 137.296875 L 188.035156 159.410156 C 189.648438 156.425781 193.546875 150.53125 199.160156 150.53125 C 199.453125 150.53125 199.75 150.546875 200.039062 150.582031 C 202.453125 150.847656 204.144531 151.25 205.503906 151.574219 C 206.867188 151.902344 207.949219 152.15625 209.207031 152.15625 C 210.757812 152.15625 212.519531 151.765625 215.050781 150.851562 L 212.5 127.679688 C 209.917969 128.613281 208.503906 128.964844 207.390625 128.964844 C 206.53125 128.964844 205.886719 128.753906 205.066406 128.484375 C 204.039062 128.144531 202.625 127.679688 199.945312 127.382812 C 199.683594 127.351562 199.421875 127.339844 199.160156 127.339844 C 192.691406 127.339844 188.457031 136.359375 188.035156 137.296875 Z M 187.605469 161.6875 C 187.574219 161.6875 187.546875 161.683594 187.519531 161.679688 C 187.316406 161.636719 187.171875 161.460938 187.171875 161.257812 L 187.171875 137.207031 C 187.171875 137.148438 187.183594 137.09375 187.207031 137.039062 C 187.390625 136.605469 191.800781 126.480469 199.160156 126.480469 C 199.453125 126.480469 199.75 126.496094 200.039062 126.527344 C 202.808594 126.835938 204.273438 127.316406 205.339844 127.667969 C 206.113281 127.921875 206.671875 128.105469 207.390625 128.105469 C 208.453125 128.105469 209.945312 127.707031 212.722656 126.683594 C 212.84375 126.640625 212.984375 126.652344 213.097656 126.722656 C 213.210938 126.792969 213.285156 126.910156 213.296875 127.042969 L 215.945312 151.09375 C 215.964844 151.289062 215.851562 151.476562 215.664062 151.542969 C 212.859375 152.574219 210.929688 153.015625 209.207031 153.015625 C 207.847656 153.015625 206.722656 152.75 205.300781 152.410156 C 203.96875 152.089844 202.304688 151.695312 199.945312 151.433594 C 199.683594 151.40625 199.421875 151.390625 199.160156 151.390625 C 192.371094 151.390625 188.042969 161.328125 188 161.425781 C 187.933594 161.589844 187.773438 161.6875 187.605469 161.6875 " fill-opacity="1" fill-rule="nonzero"/></g><g fill="#000000" fill-opacity="1"><g transform="translate(103.044611, 233.499741)"><g><path d="M 7.078125 -1.546875 C 7.121094 -1.8125 7.210938 -2.832031 7.296875 -3.804688 C 7.875 -9.777344 9.511719 -14.554688 13.667969 -22.207031 C 16.722656 -27.824219 17.074219 -28.621094 16.675781 -29.152344 C 16.542969 -29.328125 16.410156 -29.460938 16.324219 -29.460938 C 16.144531 -29.460938 15.746094 -29.902344 15.746094 -30.078125 C 15.746094 -30.34375 15.128906 -30.476562 14.730469 -30.300781 C 14.242188 -30.035156 13.402344 -28.929688 12.164062 -26.894531 C 7.121094 -18.800781 4.070312 -10.792969 4.023438 -5.574219 C 4.023438 -3.804688 4.023438 -3.671875 4.554688 -2.699219 C 4.953125 -1.945312 5.21875 -1.59375 5.53125 -1.546875 C 5.75 -1.460938 6.015625 -1.328125 6.148438 -1.195312 C 6.503906 -0.753906 7.035156 -0.972656 7.078125 -1.546875 Z M 6.414062 -7.742188 C 6.324219 -7.695312 6.28125 -7.785156 6.324219 -7.960938 C 6.324219 -8.140625 6.371094 -8.183594 6.414062 -8.050781 C 6.457031 -7.960938 6.457031 -7.785156 6.414062 -7.742188 Z M 6.988281 -10.308594 C 6.902344 -10.085938 6.8125 -10.085938 6.8125 -10.21875 C 6.8125 -10.351562 6.902344 -10.617188 6.988281 -10.792969 C 7.078125 -11.015625 7.121094 -11.058594 7.121094 -10.882812 C 7.121094 -10.75 7.035156 -10.484375 6.988281 -10.308594 Z M 15.347656 -28.089844 C 11.058594 -20.523438 9.953125 -18.3125 8.40625 -14.464844 C 7.917969 -13.183594 7.476562 -12.03125 7.429688 -11.898438 C 7.34375 -11.722656 7.34375 -11.722656 7.296875 -11.898438 C 7.296875 -12.253906 9.023438 -16.542969 10.085938 -18.753906 C 11.191406 -21.101562 15.21875 -28.308594 15.613281 -28.664062 C 15.703125 -28.796875 15.570312 -28.53125 15.347656 -28.089844 Z M 15.304688 -29.019531 C 15.527344 -29.285156 15.527344 -29.238281 15.304688 -28.839844 C 13.933594 -26.585938 12.164062 -23.445312 11.234375 -21.71875 C 10.261719 -19.90625 9.996094 -19.464844 9.996094 -19.730469 C 9.996094 -20.082031 14.6875 -28.265625 15.304688 -29.019531 Z M 5.75 -9.246094 C 5.792969 -9.113281 5.792969 -8.980469 5.707031 -8.933594 C 5.660156 -8.847656 5.617188 -8.980469 5.617188 -9.15625 C 5.660156 -9.332031 5.660156 -9.378906 5.75 -9.246094 Z M 6.058594 -8.273438 C 5.882812 -7.5625 5.707031 -6.371094 5.617188 -5.660156 C 5.53125 -4.644531 5.484375 -4.554688 5.484375 -5.175781 C 5.441406 -6.722656 6.105469 -9.910156 7.035156 -12.695312 C 7.652344 -14.597656 9.421875 -18.710938 9.820312 -19.242188 C 10.128906 -19.683594 10.042969 -19.507812 8.757812 -16.589844 C 7.609375 -14.023438 6.503906 -10.660156 6.058594 -8.273438 Z M 26.363281 -30.433594 C 26.054688 -31.007812 25.746094 -31.582031 25.65625 -31.761719 C 25.480469 -32.425781 24.242188 -33.75 23.222656 -34.414062 C 20.921875 -35.964844 17.871094 -36.140625 14.375 -34.988281 C 9.996094 -33.484375 5.398438 -29.59375 3.628906 -25.921875 C 2.917969 -24.460938 3.007812 -23.488281 3.894531 -22.515625 C 4.378906 -21.984375 4.554688 -22.027344 4.820312 -22.78125 C 5.441406 -24.460938 8.007812 -27.515625 9.996094 -28.839844 C 14.507812 -31.894531 18.933594 -32.953125 22.074219 -31.761719 C 23.179688 -31.363281 24.285156 -30.566406 24.59375 -30.035156 C 24.949219 -29.371094 24.992188 -26.277344 24.683594 -24.683594 C 23.710938 -19.996094 21.144531 -15.128906 16.5 -9.378906 C 12.03125 -3.804688 8.449219 -0.839844 5.042969 0.175781 C 3.894531 0.488281 2.34375 0.53125 1.59375 0.222656 C 1.238281 0.0898438 0.972656 0 0.882812 0.0429688 C 0.839844 0.0898438 0.839844 0.0429688 0.882812 0 C 0.929688 -0.0429688 0.882812 -0.222656 0.796875 -0.355469 C 0.53125 -0.621094 -0.0429688 -0.355469 -0.0429688 0.0429688 C -0.0429688 0.355469 0.882812 1.414062 1.726562 2.125 C 1.992188 2.34375 2.566406 2.652344 3.050781 2.832031 C 4.113281 3.183594 4.6875 3.230469 6.28125 2.875 C 10.96875 1.902344 16.5 -2.34375 21.410156 -8.804688 C 24.375 -12.695312 26.363281 -16.410156 27.25 -19.773438 C 28.308594 -23.710938 27.957031 -27.78125 26.363281 -30.433594 Z M 6.589844 -28.046875 C 6.679688 -28.046875 6.589844 -27.867188 6.371094 -27.648438 C 6.148438 -27.382812 5.925781 -27.203125 5.925781 -27.203125 C 5.75 -27.203125 6.457031 -28.046875 6.589844 -28.046875 Z M 5.175781 -26.054688 C 4.511719 -25.082031 4.511719 -25.082031 4.511719 -25.257812 C 4.511719 -25.390625 5.53125 -26.851562 5.617188 -26.851562 C 5.660156 -26.851562 5.484375 -26.496094 5.175781 -26.054688 Z M 7.078125 -27.867188 C 6.679688 -27.46875 6.238281 -26.9375 6.015625 -26.671875 C 5.441406 -26.054688 5.839844 -26.628906 6.769531 -27.734375 C 7.210938 -28.308594 7.609375 -28.707031 7.652344 -28.664062 C 7.695312 -28.621094 7.429688 -28.265625 7.078125 -27.867188 Z M 8.492188 -29.285156 C 8.007812 -28.753906 7.875 -28.664062 7.875 -28.796875 C 7.875 -28.796875 8.140625 -29.0625 8.449219 -29.328125 L 8.980469 -29.8125 Z M 22.472656 -15.4375 C 22.558594 -15.613281 22.648438 -15.703125 22.691406 -15.660156 C 22.738281 -15.613281 22.691406 -15.480469 22.558594 -15.347656 C 22.425781 -15.171875 22.382812 -15.21875 22.472656 -15.4375 Z M 21.71875 -14.15625 C 22.160156 -14.953125 22.515625 -15.347656 22.160156 -14.640625 C 22.027344 -14.375 21.761719 -13.976562 21.632812 -13.800781 C 21.453125 -13.625 21.5 -13.757812 21.71875 -14.15625 Z M 20.347656 -12.121094 C 20.65625 -12.519531 20.921875 -12.871094 20.96875 -12.871094 C 21.011719 -12.871094 20.835938 -12.519531 20.523438 -12.121094 C 20.257812 -11.679688 19.949219 -11.367188 19.90625 -11.367188 C 19.863281 -11.367188 20.082031 -11.679688 20.347656 -12.121094 Z M 18.578125 -7.875 C 17.828125 -6.945312 16.410156 -5.441406 15.4375 -4.511719 L 13.710938 -2.832031 L 15.480469 -4.6875 C 17.605469 -6.902344 19.375 -9.023438 21.011719 -11.324219 C 21.71875 -12.296875 22.292969 -13.050781 22.339844 -13.050781 C 22.558594 -13.050781 20.257812 -9.863281 18.578125 -7.875 Z M 18.136719 -8.226562 C 17.472656 -7.429688 16.898438 -6.8125 16.855469 -6.8125 C 16.808594 -6.8125 16.984375 -7.035156 17.207031 -7.296875 C 19.109375 -9.644531 19.683594 -10.394531 20.921875 -12.207031 C 21.71875 -13.359375 22.605469 -14.730469 22.871094 -15.304688 C 23.179688 -15.835938 23.445312 -16.234375 23.488281 -16.191406 C 23.753906 -15.925781 20.304688 -10.75 18.136719 -8.226562 Z M 23.753906 -16.542969 C 23.578125 -16.367188 23.578125 -16.410156 23.664062 -16.632812 C 23.710938 -16.808594 23.796875 -16.898438 23.886719 -16.855469 C 23.929688 -16.808594 23.886719 -16.632812 23.753906 -16.542969 Z M 23.753906 -16.542969 "/></g></g></g><g fill="#000000" fill-opacity="1"><g transform="translate(128.91716, 233.499741)"><g><path d="M 6.191406 -21.1875 C 5.972656 -21.101562 5.882812 -21.1875 5.882812 -21.320312 C 5.882812 -21.453125 5.75 -21.5 5.617188 -21.453125 C 5.484375 -21.410156 5.351562 -21.5 5.265625 -21.71875 C 5.132812 -22.207031 4.6875 -22.382812 4.246094 -22.207031 C 3.140625 -21.808594 1.105469 -15.394531 0.398438 -10.128906 C -0.398438 -4.6875 0.707031 -1.503906 3.894531 0.132812 C 5.042969 0.707031 5.53125 0.621094 5.085938 -0.132812 C 4.46875 -1.28125 4.289062 -1.992188 4.203125 -3.804688 C 4.113281 -6.28125 4.289062 -7.429688 5.792969 -13.710938 C 7.34375 -20.257812 7.34375 -20.347656 6.902344 -20.878906 C 6.679688 -21.144531 6.414062 -21.234375 6.191406 -21.1875 Z M 3.804688 -17.871094 C 3.847656 -17.78125 3.847656 -17.605469 3.761719 -17.5625 C 3.714844 -17.515625 3.671875 -17.605469 3.671875 -17.78125 C 3.671875 -17.960938 3.714844 -18.003906 3.804688 -17.871094 Z M 3.097656 -15.660156 C 3.140625 -15.96875 3.273438 -16.410156 3.363281 -16.589844 C 3.449219 -16.808594 3.449219 -16.765625 3.40625 -16.324219 C 3.316406 -16.011719 3.230469 -15.613281 3.140625 -15.394531 C 3.050781 -15.171875 3.007812 -15.261719 3.097656 -15.660156 Z M 2.257812 -12.164062 C 2.433594 -13.136719 2.964844 -15.085938 2.964844 -14.863281 C 3.007812 -14.730469 2.832031 -13.976562 2.652344 -13.136719 C 2.300781 -11.679688 2.035156 -11.058594 2.257812 -12.164062 Z M 2.125 -11.234375 C 2.125 -11.058594 2.125 -10.835938 2.078125 -10.75 C 2.035156 -10.617188 2.035156 -10.75 2.035156 -11.015625 C 2.035156 -11.324219 2.078125 -11.414062 2.125 -11.234375 Z M 1.59375 -7.429688 C 1.503906 -7.386719 1.503906 -7.476562 1.503906 -7.652344 C 1.503906 -7.875 1.546875 -7.917969 1.59375 -7.785156 C 1.636719 -7.652344 1.636719 -7.519531 1.59375 -7.429688 Z M 1.8125 -9.863281 C 1.902344 -10.394531 1.945312 -10.441406 1.945312 -9.996094 C 1.945312 -9.730469 1.902344 -9.289062 1.8125 -9.023438 C 1.636719 -8.316406 1.636719 -8.980469 1.8125 -9.863281 Z M 1.945312 -6.015625 C 1.902344 -5.882812 1.859375 -6.015625 1.859375 -6.324219 C 1.859375 -6.589844 1.902344 -6.679688 1.945312 -6.503906 C 1.992188 -6.371094 1.992188 -6.105469 1.945312 -6.015625 Z M 2.167969 -7.917969 C 2.035156 -6.902344 2.035156 -6.902344 1.992188 -7.5625 C 1.945312 -9.113281 3.183594 -14.640625 4.46875 -18.753906 C 4.777344 -19.816406 5.132812 -20.703125 5.21875 -20.703125 C 5.308594 -20.703125 5.308594 -20.65625 5.265625 -20.570312 C 4.953125 -20.039062 3.140625 -13.136719 2.566406 -10.351562 C 2.433594 -9.597656 2.257812 -8.492188 2.167969 -7.917969 Z M 3.097656 -10.042969 C 3.050781 -9.953125 3.007812 -10.042969 3.007812 -10.261719 C 3.007812 -10.484375 3.050781 -10.617188 3.097656 -10.484375 C 3.140625 -10.351562 3.140625 -10.175781 3.097656 -10.042969 Z M 3.273438 -10.835938 C 3.230469 -10.75 3.183594 -10.882812 3.183594 -11.058594 C 3.183594 -11.234375 3.230469 -11.28125 3.273438 -11.148438 C 3.316406 -11.015625 3.316406 -10.882812 3.273438 -10.835938 Z M 3.582031 -12.339844 C 3.539062 -12.296875 3.496094 -12.386719 3.496094 -12.5625 C 3.539062 -12.738281 3.582031 -12.785156 3.628906 -12.652344 C 3.671875 -12.519531 3.671875 -12.386719 3.582031 -12.339844 Z M 3.847656 -13.316406 C 3.714844 -12.960938 3.714844 -12.960938 3.714844 -13.226562 C 3.714844 -13.402344 3.761719 -13.757812 3.847656 -13.976562 C 3.9375 -14.332031 3.980469 -14.332031 3.980469 -14.066406 C 3.980469 -13.890625 3.894531 -13.535156 3.847656 -13.316406 Z M 4.113281 -14.507812 C 4.070312 -14.464844 4.023438 -14.554688 4.023438 -14.730469 C 4.023438 -14.953125 4.070312 -14.996094 4.113281 -14.863281 C 4.15625 -14.730469 4.15625 -14.597656 4.113281 -14.507812 Z M 4.289062 -15.21875 C 4.203125 -15.128906 4.203125 -15.261719 4.203125 -15.4375 C 4.203125 -15.613281 4.246094 -15.660156 4.289062 -15.527344 C 4.335938 -15.394531 4.335938 -15.261719 4.289062 -15.21875 Z M 5.132812 -18.179688 C 4.777344 -17.117188 4.511719 -16.367188 4.511719 -16.457031 C 4.511719 -16.808594 5.574219 -20.4375 5.660156 -20.257812 C 5.660156 -20.171875 5.441406 -19.242188 5.132812 -18.179688 Z M 8.582031 -28.972656 C 7.960938 -28.972656 6.324219 -27.957031 4.953125 -26.71875 C 4.15625 -26.011719 4.15625 -25.964844 4.378906 -25.480469 C 4.511719 -25.125 4.6875 -24.992188 4.867188 -25.035156 C 5.042969 -25.082031 5.175781 -24.992188 5.175781 -24.90625 C 5.175781 -24.816406 5.351562 -24.859375 5.574219 -25.035156 C 5.792969 -25.214844 5.839844 -25.257812 5.75 -25.125 C 5.53125 -24.859375 5.441406 -24.242188 5.617188 -24.0625 C 5.839844 -23.84375 6.324219 -24.019531 6.589844 -24.460938 C 7.078125 -25.257812 8.582031 -26.628906 9.332031 -26.984375 C 9.730469 -27.160156 10.085938 -27.425781 10.085938 -27.558594 C 10.085938 -27.78125 8.847656 -28.972656 8.582031 -28.972656 Z M 8.582031 -28.972656 "/></g></g></g><g fill="#000000" fill-opacity="1"><g transform="translate(136.03764, 233.499741)"><g><path d="M 16.675781 -20.746094 C 16.5 -20.746094 16.234375 -20.96875 16.011719 -21.234375 C 15.394531 -22.074219 14.375 -21.761719 13.582031 -20.480469 C 13.316406 -20.082031 13.003906 -19.730469 12.917969 -19.730469 C 12.695312 -19.730469 12.121094 -20.125 11.546875 -20.703125 C 10.261719 -21.984375 8.09375 -21.761719 5.925781 -20.125 C 4.378906 -18.976562 1.902344 -15.261719 1.015625 -12.695312 C -0.0429688 -9.597656 -0.308594 -6.28125 0.355469 -4.511719 C 0.753906 -3.496094 1.726562 -2.390625 2.390625 -2.257812 C 2.609375 -2.167969 3.007812 -1.992188 3.230469 -1.8125 C 3.761719 -1.414062 4.777344 -1.414062 5.574219 -1.859375 C 6.414062 -2.257812 7.917969 -4.023438 9.15625 -6.058594 L 10.085938 -7.5625 L 10.175781 -5.441406 C 10.261719 -4.246094 10.394531 -3.007812 10.484375 -2.609375 C 10.792969 -1.769531 12.03125 -0.441406 12.828125 -0.0898438 C 13.183594 0.0429688 13.535156 0.222656 13.582031 0.355469 C 13.710938 0.53125 14.15625 0.574219 14.242188 0.398438 C 14.289062 0.308594 14.199219 -0.398438 14.066406 -1.195312 C 13.890625 -2.035156 13.800781 -3.496094 13.800781 -4.867188 C 13.800781 -8.140625 14.289062 -10.175781 16.941406 -17.605469 C 17.296875 -18.535156 17.5625 -19.464844 17.5625 -19.640625 C 17.5625 -20.082031 17.03125 -20.746094 16.675781 -20.746094 Z M 1.503906 -6.945312 C 1.460938 -6.769531 1.414062 -6.902344 1.414062 -7.253906 C 1.414062 -7.5625 1.460938 -7.695312 1.503906 -7.519531 C 1.546875 -7.386719 1.546875 -7.121094 1.503906 -6.945312 Z M 1.59375 -8.359375 C 1.59375 -8.539062 1.636719 -8.847656 1.726562 -9.023438 C 1.8125 -9.246094 1.859375 -9.246094 1.859375 -9.113281 C 1.859375 -8.980469 1.769531 -8.671875 1.726562 -8.40625 C 1.59375 -8.09375 1.59375 -8.050781 1.59375 -8.359375 Z M 1.992188 -6.679688 C 1.8125 -5.707031 1.726562 -5.398438 1.726562 -5.792969 C 1.679688 -7.519531 2.652344 -11.191406 3.714844 -13.316406 C 4.511719 -14.820312 4.511719 -14.554688 3.761719 -12.917969 C 3.40625 -12.164062 2.875 -10.792969 2.652344 -9.863281 C 2.390625 -8.980469 2.125 -7.519531 1.992188 -6.679688 Z M 2.832031 -7.828125 C 2.34375 -5.925781 2.257812 -6.058594 2.652344 -8.050781 C 3.007812 -9.6875 3.628906 -11.546875 4.378906 -13.050781 C 5 -14.289062 6.324219 -16.457031 6.636719 -16.632812 C 6.722656 -16.675781 6.371094 -16.101562 5.882812 -15.304688 C 4.734375 -13.535156 4.421875 -12.917969 3.761719 -11.058594 C 3.449219 -10.21875 3.007812 -8.757812 2.832031 -7.828125 Z M 11.234375 -14.15625 C 10.835938 -12.695312 7.5625 -7.386719 5.707031 -5.175781 C 5.175781 -4.601562 4.601562 -3.980469 4.335938 -3.804688 L 3.894531 -3.539062 L 3.894531 -4.203125 C 3.894531 -5.792969 5.441406 -10.484375 6.722656 -12.738281 C 8.226562 -15.480469 10.660156 -18.046875 11.8125 -18.046875 C 12.339844 -18.046875 12.339844 -17.648438 11.898438 -16.324219 C 11.679688 -15.660156 11.414062 -14.640625 11.234375 -14.15625 Z M 11.765625 -9.996094 C 11.8125 -9.863281 11.8125 -9.6875 11.765625 -9.554688 C 11.722656 -9.464844 11.679688 -9.554688 11.679688 -9.777344 C 11.679688 -9.996094 11.722656 -10.085938 11.765625 -9.996094 Z M 11.765625 -5.265625 C 11.765625 -5 11.722656 -5.21875 11.722656 -5.75 C 11.722656 -6.238281 11.765625 -6.457031 11.765625 -6.191406 C 11.8125 -5.925781 11.8125 -5.53125 11.765625 -5.265625 Z M 12.429688 -10.351562 C 12.296875 -9.597656 12.074219 -8.492188 11.988281 -7.828125 L 11.855469 -6.636719 L 11.945312 -8.09375 C 12.03125 -9.511719 12.472656 -11.898438 12.605469 -11.722656 C 12.652344 -11.679688 12.5625 -11.058594 12.429688 -10.351562 Z M 12.785156 -9.464844 C 12.738281 -9.421875 12.695312 -9.511719 12.695312 -9.6875 C 12.695312 -9.910156 12.738281 -9.953125 12.785156 -9.820312 C 12.828125 -9.6875 12.828125 -9.554688 12.785156 -9.464844 Z M 13.09375 -11.015625 C 13.050781 -10.925781 13.003906 -11.058594 13.003906 -11.234375 C 13.050781 -11.414062 13.09375 -11.457031 13.136719 -11.324219 C 13.183594 -11.191406 13.183594 -11.058594 13.09375 -11.015625 Z M 13.269531 -11.765625 C 13.226562 -11.632812 13.226562 -11.722656 13.226562 -11.988281 C 13.226562 -12.207031 13.226562 -12.296875 13.269531 -12.164062 C 13.359375 -12.074219 13.359375 -11.855469 13.269531 -11.765625 Z M 13.359375 -12.652344 C 13.359375 -12.785156 13.449219 -13.003906 13.535156 -13.136719 C 13.625 -13.269531 13.667969 -13.316406 13.667969 -13.226562 C 13.667969 -12.917969 13.359375 -12.386719 13.359375 -12.652344 Z M 15.4375 -19.640625 C 15.304688 -19.375 15.21875 -19.285156 15.21875 -19.550781 C 15.21875 -19.640625 15.261719 -19.730469 15.347656 -19.816406 C 15.480469 -19.863281 15.480469 -19.816406 15.4375 -19.640625 Z M 16.144531 -19.730469 C 15.835938 -19.152344 15.660156 -19.019531 15.835938 -19.507812 C 15.96875 -19.90625 16.367188 -20.523438 16.367188 -20.347656 C 16.367188 -20.257812 16.277344 -19.996094 16.144531 -19.730469 Z M 16.144531 -19.730469 "/></g></g></g><g fill="#000000" fill-opacity="1"><g transform="translate(152.976416, 233.499741)"><g><path d="M 14.199219 -21.277344 C 13.136719 -21.808594 12.828125 -21.894531 12.296875 -21.808594 C 11.324219 -21.632812 10.085938 -20.921875 9.066406 -19.949219 C 8.492188 -19.464844 8.183594 -19.242188 8.273438 -19.417969 C 8.316406 -19.640625 8.539062 -20.304688 8.714844 -20.96875 C 9.066406 -22.074219 9.066406 -22.207031 8.804688 -22.472656 C 8.671875 -22.605469 8.449219 -22.738281 8.316406 -22.738281 C 8.140625 -22.738281 7.875 -22.914062 7.695312 -23.136719 C 7.253906 -23.710938 6.988281 -23.664062 6.28125 -22.914062 C 3.671875 -19.996094 0.398438 -9.644531 0.132812 -3.40625 L 0.0429688 -0.882812 L 0.574219 -0.488281 C 1.195312 -0.0429688 1.195312 -0.0429688 1.503906 -0.398438 C 1.679688 -0.53125 1.769531 -0.574219 1.769531 -0.488281 C 1.769531 -0.132812 2.125 -0.308594 2.125 -0.664062 C 2.167969 -1.015625 2.167969 -1.015625 2.210938 -0.707031 C 2.257812 -0.53125 2.34375 -0.222656 2.390625 0 C 2.476562 0.441406 2.964844 0.488281 3.363281 0.132812 C 3.496094 0 3.671875 -0.574219 3.714844 -1.105469 C 4.070312 -4.378906 4.601562 -6.238281 6.058594 -9.644531 C 8.226562 -14.640625 10.527344 -17.871094 12.738281 -19.152344 C 13.933594 -19.863281 14.289062 -19.816406 14.863281 -19.109375 C 15.085938 -18.753906 15.394531 -18.488281 15.527344 -18.488281 C 15.660156 -18.488281 15.792969 -18.445312 15.792969 -18.3125 C 15.792969 -17.960938 16.324219 -18.269531 16.457031 -18.667969 C 16.675781 -19.597656 16.058594 -20.304688 14.199219 -21.277344 Z M 6.855469 -21.1875 C 6.945312 -21.410156 7.078125 -21.542969 7.121094 -21.542969 C 7.167969 -21.542969 7.121094 -21.410156 6.988281 -21.1875 C 6.902344 -21.011719 6.769531 -20.878906 6.722656 -20.878906 C 6.679688 -20.878906 6.722656 -21.011719 6.855469 -21.1875 Z M 6.503906 -20.4375 C 6.589844 -20.523438 6.636719 -20.4375 6.546875 -20.304688 C 6.457031 -19.996094 6.324219 -19.949219 6.324219 -20.171875 C 6.324219 -20.257812 6.414062 -20.390625 6.503906 -20.4375 Z M 3.714844 -12.429688 C 3.40625 -11.28125 3.097656 -10.308594 3.050781 -10.261719 C 2.875 -10.128906 3.097656 -10.882812 3.980469 -13.890625 C 4.734375 -16.410156 5.972656 -19.597656 6.105469 -19.464844 C 6.148438 -19.417969 5.925781 -18.886719 5.660156 -18.226562 C 5.042969 -16.675781 4.421875 -14.953125 3.714844 -12.429688 Z M 7.828125 -21.808594 C 7.695312 -21.542969 6.988281 -19.996094 6.371094 -18.578125 C 6.058594 -17.914062 5.574219 -16.542969 5.21875 -15.527344 C 4.644531 -13.710938 4.335938 -13.050781 4.554688 -14.023438 C 5 -15.792969 7.253906 -21.367188 7.695312 -21.808594 C 7.828125 -21.894531 7.875 -21.894531 7.828125 -21.808594 Z M 7.828125 -21.808594 "/></g></g></g><g fill="#000000" fill-opacity="1"><g transform="translate(168.721082, 233.499741)"><g><path d="M -3.007812 15.878906 C -2.257812 16.144531 -1.503906 16.410156 -1.328125 16.457031 C -1.148438 16.5 -0.972656 16.589844 -0.882812 16.589844 C -0.441406 16.675781 1.460938 16.101562 2.566406 15.527344 C 5.085938 14.199219 8.09375 10.617188 10.21875 6.457031 C 11.457031 3.894531 12.960938 0.175781 13.976562 -2.917969 C 15.394531 -7.167969 16.722656 -13.757812 16.589844 -15.480469 C 16.5 -16.410156 16.234375 -16.765625 15.21875 -17.25 C 14.863281 -17.429688 14.597656 -17.648438 14.597656 -17.738281 C 14.597656 -17.828125 14.507812 -17.828125 14.421875 -17.78125 C 14.332031 -17.738281 14.242188 -17.828125 14.242188 -18.046875 C 14.242188 -18.226562 14.199219 -18.402344 14.15625 -18.402344 C 13.535156 -18.488281 13.226562 -18.488281 13.09375 -18.3125 C 13.003906 -18.179688 12.785156 -17.429688 12.605469 -16.589844 C 12.429688 -15.703125 12.074219 -14.507812 11.855469 -13.890625 C 11.234375 -12.207031 9.289062 -8.316406 8.40625 -6.945312 C 7.429688 -5.441406 5.660156 -3.539062 4.953125 -3.140625 C 4.421875 -2.917969 4.378906 -2.917969 4.289062 -3.273438 C 4.113281 -3.894531 4.113281 -6.148438 4.335938 -7.34375 C 4.601562 -9.246094 5.484375 -12.472656 6.503906 -15.660156 C 7.078125 -17.296875 7.519531 -18.710938 7.519531 -18.753906 C 7.519531 -18.800781 7.386719 -19.019531 7.167969 -19.242188 C 6.945312 -19.507812 6.722656 -19.597656 6.503906 -19.550781 C 6.238281 -19.464844 6.148438 -19.507812 6.238281 -19.683594 C 6.28125 -19.816406 6.238281 -19.949219 6.148438 -19.949219 C 6.058594 -19.949219 5.792969 -20.125 5.574219 -20.390625 C 5.085938 -20.921875 4.644531 -20.835938 3.847656 -20.039062 C 2.433594 -18.710938 0.398438 -12.785156 0 -9.066406 C -0.132812 -7.828125 0.132812 -5.617188 0.53125 -4.378906 C 0.839844 -3.40625 1.902344 -2.125 2.652344 -1.8125 C 2.964844 -1.679688 3.496094 -1.414062 3.804688 -1.195312 C 5 -0.398438 6.324219 -0.882812 7.875 -2.742188 C 8.449219 -3.449219 9.113281 -4.335938 9.378906 -4.777344 C 9.644531 -5.175781 9.863281 -5.441406 9.863281 -5.308594 C 9.863281 -4.953125 8.316406 -0.355469 7.476562 1.769531 C 4.953125 8.183594 1.992188 12.605469 -0.707031 13.976562 C -1.371094 14.289062 -2.078125 14.554688 -2.476562 14.554688 C -4.644531 14.597656 -4.820312 15.128906 -3.007812 15.878906 Z M 1.546875 -8.757812 C 1.503906 -8.714844 1.460938 -8.804688 1.460938 -9.023438 C 1.460938 -9.199219 1.503906 -9.246094 1.546875 -9.113281 C 1.59375 -8.980469 1.59375 -8.847656 1.546875 -8.757812 Z M 1.636719 -9.6875 C 1.59375 -10.351562 3.273438 -16.101562 3.273438 -15.527344 C 3.316406 -15.394531 3.183594 -14.996094 3.050781 -14.554688 C 2.875 -14.15625 2.519531 -12.828125 2.210938 -11.589844 C 1.902344 -10.351562 1.636719 -9.511719 1.636719 -9.6875 Z M 2.300781 -9.511719 C 2.125 -8.671875 1.992188 -8.183594 1.945312 -8.492188 C 1.945312 -9.332031 2.390625 -11.324219 3.140625 -13.800781 C 3.761719 -15.835938 4.867188 -18.535156 5.042969 -18.535156 C 5.085938 -18.535156 4.820312 -17.828125 4.46875 -16.941406 C 4.113281 -16.101562 3.582031 -14.421875 3.230469 -13.226562 C 2.875 -12.074219 2.476562 -10.394531 2.300781 -9.511719 Z M 3.230469 -10.96875 C 3.007812 -10.175781 2.832031 -9.597656 2.832031 -9.730469 C 2.785156 -10.085938 3.539062 -12.785156 3.582031 -12.605469 C 3.628906 -12.519531 3.449219 -11.765625 3.230469 -10.96875 Z M 4.113281 -14.6875 C 4.601562 -16.234375 5.707031 -18.886719 5.882812 -18.886719 C 5.972656 -18.886719 5.792969 -18.445312 5.574219 -17.914062 C 5.308594 -17.382812 4.777344 -15.96875 4.378906 -14.863281 C 3.539062 -12.472656 3.40625 -12.386719 4.113281 -14.6875 Z M 13.359375 -7.210938 C 13.316406 -7.167969 13.269531 -7.253906 13.269531 -7.476562 C 13.269531 -7.652344 13.316406 -7.695312 13.359375 -7.5625 C 13.402344 -7.429688 13.402344 -7.296875 13.359375 -7.210938 Z M 12.695312 -9.863281 C 12.785156 -10.660156 12.917969 -10.882812 12.917969 -10.261719 C 12.871094 -10.042969 12.828125 -9.6875 12.738281 -9.511719 C 12.605469 -9.246094 12.605469 -9.378906 12.695312 -9.863281 Z M 12.296875 -8.316406 C 12.429688 -8.757812 12.5625 -9.023438 12.5625 -8.804688 C 12.5625 -8.449219 12.121094 -6.988281 12.074219 -7.253906 C 12.074219 -7.34375 12.164062 -7.828125 12.296875 -8.316406 Z M 11.898438 -6.769531 C 11.988281 -6.988281 12.03125 -6.988281 12.03125 -6.855469 C 12.03125 -6.679688 11.988281 -6.414062 11.898438 -6.238281 C 11.8125 -6.015625 11.765625 -5.972656 11.765625 -6.148438 C 11.765625 -6.28125 11.8125 -6.546875 11.898438 -6.769531 Z M 11.589844 -5.574219 C 11.589844 -5.75 11.632812 -5.792969 11.679688 -5.660156 C 11.722656 -5.53125 11.722656 -5.398438 11.679688 -5.351562 C 11.589844 -5.265625 11.589844 -5.398438 11.589844 -5.574219 Z M 10.96875 -2.035156 C 11.632812 -3.980469 12.652344 -7.695312 13.269531 -10.261719 C 13.535156 -11.546875 13.84375 -12.695312 13.933594 -12.785156 C 14.023438 -12.828125 13.976562 -12.429688 13.800781 -11.8125 C 13.667969 -11.191406 13.492188 -10.308594 13.402344 -9.863281 C 13.09375 -8.316406 12.296875 -5.441406 11.546875 -3.230469 C 10.925781 -1.28125 10.570312 -0.355469 10.570312 -0.664062 C 10.570312 -0.707031 10.75 -1.328125 10.96875 -2.035156 Z M 10.394531 -0.308594 C 10.484375 -0.441406 10.527344 -0.488281 10.527344 -0.355469 C 10.527344 -0.265625 10.484375 -0.0898438 10.394531 0.0429688 C 10.308594 0.175781 10.21875 0.222656 10.21875 0.132812 C 10.21875 0.0429688 10.308594 -0.132812 10.394531 -0.308594 Z M 10.394531 1.28125 C 11.234375 -0.882812 12.738281 -5.351562 13.003906 -6.503906 C 13.09375 -6.8125 13.183594 -6.988281 13.183594 -6.902344 C 13.316406 -6.503906 12.074219 -2.476562 10.75 0.882812 C 10.351562 1.902344 9.863281 2.964844 9.6875 3.316406 C 9.246094 4.113281 9.332031 3.894531 10.394531 1.28125 Z M 9.199219 4.203125 C 9.289062 4.070312 9.378906 4.023438 9.378906 4.113281 C 9.378906 4.203125 9.289062 4.378906 9.199219 4.554688 C 9.113281 4.6875 9.023438 4.734375 9.023438 4.644531 C 9.023438 4.511719 9.113281 4.335938 9.199219 4.203125 Z M 8.847656 4.953125 C 8.980469 4.910156 8.980469 5 8.933594 5.132812 C 8.804688 5.441406 8.714844 5.484375 8.714844 5.21875 C 8.714844 5.132812 8.757812 5.042969 8.847656 4.953125 Z M 8.847656 4.953125 "/></g></g></g><g fill="#000000" fill-opacity="1"><g transform="translate(186.279041, 233.499741)"><g/></g></g><g fill="#000000" fill-opacity="1"><g transform="translate(197.24723, 233.499741)"><g><path d="M 0.707031 -13.316406 C 0.882812 -13.269531 1.105469 -13.003906 1.195312 -12.785156 C 1.371094 -12.339844 1.859375 -12.074219 2.34375 -12.253906 C 2.652344 -12.339844 2.652344 -12.296875 2.519531 -11.722656 C 2.125 -9.863281 1.8125 -6.902344 1.902344 -5 C 2.035156 -1.679688 2.875 -0.222656 5.21875 1.0625 C 6.371094 1.679688 6.546875 1.726562 6.988281 1.546875 C 7.429688 1.371094 7.296875 1.015625 6.679688 0.839844 C 6.191406 0.664062 6.105469 0.53125 5.925781 -0.175781 C 5.484375 -1.859375 5.398438 -3.804688 5.660156 -5.75 C 5.925781 -7.785156 6.679688 -11.148438 7.296875 -12.917969 C 7.695312 -13.976562 7.742188 -14.109375 8.359375 -14.332031 C 9.332031 -14.640625 16.144531 -16.324219 17.117188 -16.5 C 17.605469 -16.542969 18.09375 -16.675781 18.269531 -16.765625 C 18.535156 -16.898438 18.535156 -16.984375 17.960938 -17.515625 L 17.382812 -18.09375 L 13.316406 -18.046875 C 11.101562 -18.003906 9.289062 -18.046875 9.289062 -18.136719 C 9.289062 -18.179688 10.175781 -20.214844 11.191406 -22.605469 C 13.890625 -28.664062 14.109375 -29.152344 14.421875 -30.476562 C 14.730469 -31.582031 14.773438 -31.714844 15.261719 -31.804688 C 15.792969 -31.894531 24.773438 -32.378906 26.628906 -32.378906 C 28.089844 -32.378906 28.574219 -32.691406 28.488281 -33.441406 C 28.441406 -33.707031 28.488281 -33.929688 28.574219 -33.972656 C 28.707031 -34.015625 28.664062 -34.195312 28.488281 -34.503906 C 27.914062 -35.609375 24.550781 -35.917969 16.722656 -35.609375 C 11.5 -35.433594 8.625 -35.210938 7.078125 -34.902344 C 6.105469 -34.722656 5.21875 -34.328125 5.265625 -34.105469 C 5.308594 -34.0625 5.21875 -33.839844 5.132812 -33.664062 C 5 -33.441406 4.953125 -33.085938 4.953125 -32.867188 C 5 -32.601562 4.910156 -32.292969 4.734375 -32.113281 C 4.335938 -31.761719 4.289062 -31.1875 4.644531 -30.832031 C 5 -30.476562 5.75 -30.476562 8.007812 -30.875 C 9.023438 -31.054688 9.863281 -31.1875 9.910156 -31.140625 C 9.953125 -31.140625 9.289062 -29.726562 8.449219 -28 C 6.769531 -24.507812 5.042969 -20.4375 4.203125 -18.09375 L 3.671875 -16.542969 L 2.125 -15.792969 C 1.28125 -15.394531 0.398438 -14.863281 0.175781 -14.640625 C -0.175781 -14.242188 -0.175781 -14.199219 0.132812 -13.800781 C 0.308594 -13.582031 0.574219 -13.316406 0.707031 -13.316406 Z M 10.351562 -25.214844 C 9.953125 -24.285156 9.066406 -22.292969 8.40625 -20.746094 C 6.902344 -17.164062 6.945312 -17.25 6.945312 -17.5625 C 6.902344 -18.003906 10.925781 -27.117188 11.101562 -26.9375 C 11.101562 -26.894531 10.792969 -26.144531 10.351562 -25.214844 Z M 11.5 -24.640625 C 11.414062 -24.507812 11.324219 -24.460938 11.324219 -24.550781 C 11.324219 -24.640625 11.414062 -24.859375 11.5 -24.992188 C 11.589844 -25.125 11.632812 -25.167969 11.632812 -25.082031 C 11.632812 -24.992188 11.589844 -24.773438 11.5 -24.640625 Z M 11.855469 -28.488281 C 11.679688 -28.308594 11.632812 -28.308594 11.722656 -28.574219 C 11.8125 -28.753906 11.898438 -28.839844 11.945312 -28.796875 C 11.988281 -28.707031 11.945312 -28.574219 11.855469 -28.488281 Z M 12.386719 -29.636719 C 12.253906 -29.328125 12.164062 -29.285156 12.164062 -29.503906 C 12.164062 -29.59375 12.207031 -29.726562 12.339844 -29.769531 C 12.429688 -29.859375 12.429688 -29.769531 12.386719 -29.636719 Z M 13.84375 -32.910156 C 13.625 -32.910156 13.535156 -32.953125 13.625 -33 C 13.757812 -33.042969 13.933594 -33.042969 14.066406 -33 C 14.15625 -32.953125 14.066406 -32.910156 13.84375 -32.910156 Z M 16.101562 -33.085938 C 15.835938 -33.132812 15.746094 -33.132812 15.925781 -33.175781 C 16.058594 -33.21875 16.277344 -33.21875 16.410156 -33.175781 C 16.542969 -33.132812 16.410156 -33.085938 16.101562 -33.085938 Z M 25.878906 -34.195312 C 26.011719 -34.238281 26.230469 -34.238281 26.363281 -34.195312 C 26.496094 -34.148438 26.320312 -34.105469 26.054688 -34.105469 C 25.789062 -34.105469 25.699219 -34.148438 25.878906 -34.195312 Z M 20.878906 -34.371094 C 21.632812 -34.414062 22.914062 -34.414062 23.664062 -34.371094 C 24.417969 -34.371094 23.796875 -34.328125 22.25 -34.328125 C 20.746094 -34.328125 20.125 -34.371094 20.878906 -34.371094 Z M 16.984375 -34.195312 C 17.382812 -34.238281 18.003906 -34.238281 18.359375 -34.195312 C 18.710938 -34.195312 18.359375 -34.148438 17.648438 -34.148438 C 16.898438 -34.148438 16.589844 -34.195312 16.984375 -34.195312 Z M 14.640625 -34.015625 C 14.953125 -34.0625 15.4375 -34.0625 15.746094 -34.015625 C 16.058594 -34.015625 15.792969 -33.972656 15.171875 -33.972656 C 14.597656 -33.972656 14.332031 -34.015625 14.640625 -34.015625 Z M 13.449219 -33.398438 C 13.976562 -33.617188 20.789062 -33.972656 23.445312 -33.882812 L 25.746094 -33.839844 L 22.871094 -33.796875 C 21.277344 -33.75 18.886719 -33.664062 17.5625 -33.574219 C 16.191406 -33.484375 14.640625 -33.398438 14.109375 -33.351562 C 13.402344 -33.265625 13.183594 -33.308594 13.449219 -33.398438 Z M 12.960938 -33.882812 C 13.09375 -33.929688 13.226562 -33.929688 13.269531 -33.839844 C 13.359375 -33.796875 13.226562 -33.75 13.050781 -33.75 C 12.871094 -33.75 12.828125 -33.796875 12.960938 -33.882812 Z M 12.828125 -30.609375 C 12.828125 -30.523438 12.738281 -30.34375 12.652344 -30.210938 C 12.5625 -30.078125 12.519531 -30.035156 12.519531 -30.125 C 12.519531 -30.210938 12.5625 -30.390625 12.652344 -30.566406 C 12.738281 -30.699219 12.828125 -30.742188 12.828125 -30.609375 Z M 12.519531 -31.496094 C 12.605469 -31.539062 12.652344 -31.539062 12.605469 -31.449219 C 12.03125 -30.476562 7.386719 -20.082031 6.679688 -18.179688 C 6.414062 -17.515625 6.105469 -16.984375 6.105469 -17.296875 C 6.105469 -17.605469 8.671875 -23.664062 9.820312 -26.144531 C 10.261719 -27.027344 10.96875 -28.574219 11.457031 -29.550781 C 11.898438 -30.523438 12.386719 -31.40625 12.519531 -31.496094 Z M 11.367188 -30.125 C 11.28125 -29.859375 11.148438 -29.769531 11.148438 -30.035156 C 11.148438 -30.125 11.234375 -30.257812 11.324219 -30.300781 C 11.414062 -30.34375 11.414062 -30.300781 11.367188 -30.125 Z M 7.429688 -32.691406 C 7.386719 -32.644531 6.988281 -32.558594 6.503906 -32.511719 C 5.925781 -32.46875 5.792969 -32.46875 6.105469 -32.558594 C 6.503906 -32.691406 7.5625 -32.777344 7.429688 -32.691406 Z M 8.09375 -32.777344 C 7.429688 -32.777344 8.890625 -33.042969 10.21875 -33.132812 L 11.414062 -33.21875 L 9.953125 -33 C 9.15625 -32.867188 8.359375 -32.777344 8.09375 -32.777344 Z M 10.441406 -28.441406 C 11.058594 -29.503906 10.75 -28.796875 9.289062 -25.65625 C 7.960938 -22.824219 7.785156 -22.425781 7.785156 -22.648438 C 7.785156 -22.824219 10.042969 -27.691406 10.441406 -28.441406 Z M 7.609375 -22.292969 C 7.695312 -22.425781 7.785156 -22.472656 7.785156 -22.382812 C 7.785156 -22.292969 7.695312 -22.074219 7.609375 -21.941406 C 7.519531 -21.808594 7.429688 -21.761719 7.429688 -21.851562 C 7.429688 -21.941406 7.519531 -22.160156 7.609375 -22.292969 Z M 7.078125 -21.101562 C 7.167969 -21.234375 7.253906 -21.277344 7.253906 -21.1875 C 7.253906 -21.101562 7.167969 -20.921875 7.078125 -20.746094 C 6.988281 -20.613281 6.945312 -20.570312 6.945312 -20.703125 C 6.945312 -20.789062 6.988281 -20.96875 7.078125 -21.101562 Z M 6.855469 -20.390625 C 6.902344 -20.347656 6.636719 -19.640625 6.324219 -18.800781 C 5.75 -17.382812 5.574219 -17.03125 5.574219 -17.296875 C 5.574219 -17.472656 6.8125 -20.4375 6.855469 -20.390625 Z M 4.867188 -13.136719 C 4.910156 -13.09375 4.734375 -12.164062 4.511719 -11.058594 C 4.246094 -9.953125 3.9375 -8.359375 3.804688 -7.519531 C 3.582031 -6.105469 3.582031 -6.058594 3.628906 -7.121094 C 3.671875 -7.742188 3.894531 -9.246094 4.15625 -10.441406 C 4.644531 -12.871094 4.734375 -13.226562 4.867188 -13.136719 Z M 4.246094 -12.695312 C 4.335938 -12.828125 4.378906 -12.871094 4.378906 -12.738281 C 4.378906 -12.429688 4.070312 -11.898438 4.070312 -12.164062 C 4.070312 -12.296875 4.15625 -12.519531 4.246094 -12.695312 Z M 4.023438 -11.722656 C 4.070312 -11.589844 4.070312 -11.414062 4.023438 -11.28125 C 3.9375 -11.148438 3.9375 -11.28125 3.9375 -11.5 C 3.9375 -11.722656 3.9375 -11.8125 4.023438 -11.722656 Z M 3.714844 -10.75 C 3.761719 -10.925781 3.804688 -10.96875 3.847656 -10.835938 C 3.894531 -10.75 3.894531 -10.570312 3.804688 -10.527344 C 3.761719 -10.484375 3.714844 -10.570312 3.714844 -10.75 Z M 3.671875 -10.042969 C 3.714844 -9.910156 3.714844 -9.730469 3.671875 -9.597656 C 3.628906 -9.464844 3.582031 -9.554688 3.582031 -9.820312 C 3.582031 -10.042969 3.628906 -10.128906 3.671875 -10.042969 Z M 3.40625 -8.890625 C 3.40625 -9.113281 3.449219 -9.113281 3.496094 -8.980469 C 3.539062 -8.890625 3.539062 -8.714844 3.496094 -8.671875 C 3.449219 -8.625 3.40625 -8.714844 3.40625 -8.890625 Z M 3.316406 -7.917969 C 3.363281 -7.742188 3.363281 -7.519531 3.316406 -7.386719 C 3.273438 -7.296875 3.230469 -7.429688 3.273438 -7.695312 C 3.273438 -7.960938 3.273438 -8.050781 3.316406 -7.917969 Z M 3.316406 -7.917969 "/></g></g></g><g fill="#000000" fill-opacity="1"><g transform="translate(216.308886, 233.499741)"><g><path d="M 6.191406 -21.1875 C 5.972656 -21.101562 5.882812 -21.1875 5.882812 -21.320312 C 5.882812 -21.453125 5.75 -21.5 5.617188 -21.453125 C 5.484375 -21.410156 5.351562 -21.5 5.265625 -21.71875 C 5.132812 -22.207031 4.6875 -22.382812 4.246094 -22.207031 C 3.140625 -21.808594 1.105469 -15.394531 0.398438 -10.128906 C -0.398438 -4.6875 0.707031 -1.503906 3.894531 0.132812 C 5.042969 0.707031 5.53125 0.621094 5.085938 -0.132812 C 4.46875 -1.28125 4.289062 -1.992188 4.203125 -3.804688 C 4.113281 -6.28125 4.289062 -7.429688 5.792969 -13.710938 C 7.34375 -20.257812 7.34375 -20.347656 6.902344 -20.878906 C 6.679688 -21.144531 6.414062 -21.234375 6.191406 -21.1875 Z M 3.804688 -17.871094 C 3.847656 -17.78125 3.847656 -17.605469 3.761719 -17.5625 C 3.714844 -17.515625 3.671875 -17.605469 3.671875 -17.78125 C 3.671875 -17.960938 3.714844 -18.003906 3.804688 -17.871094 Z M 3.097656 -15.660156 C 3.140625 -15.96875 3.273438 -16.410156 3.363281 -16.589844 C 3.449219 -16.808594 3.449219 -16.765625 3.40625 -16.324219 C 3.316406 -16.011719 3.230469 -15.613281 3.140625 -15.394531 C 3.050781 -15.171875 3.007812 -15.261719 3.097656 -15.660156 Z M 2.257812 -12.164062 C 2.433594 -13.136719 2.964844 -15.085938 2.964844 -14.863281 C 3.007812 -14.730469 2.832031 -13.976562 2.652344 -13.136719 C 2.300781 -11.679688 2.035156 -11.058594 2.257812 -12.164062 Z M 2.125 -11.234375 C 2.125 -11.058594 2.125 -10.835938 2.078125 -10.75 C 2.035156 -10.617188 2.035156 -10.75 2.035156 -11.015625 C 2.035156 -11.324219 2.078125 -11.414062 2.125 -11.234375 Z M 1.59375 -7.429688 C 1.503906 -7.386719 1.503906 -7.476562 1.503906 -7.652344 C 1.503906 -7.875 1.546875 -7.917969 1.59375 -7.785156 C 1.636719 -7.652344 1.636719 -7.519531 1.59375 -7.429688 Z M 1.8125 -9.863281 C 1.902344 -10.394531 1.945312 -10.441406 1.945312 -9.996094 C 1.945312 -9.730469 1.902344 -9.289062 1.8125 -9.023438 C 1.636719 -8.316406 1.636719 -8.980469 1.8125 -9.863281 Z M 1.945312 -6.015625 C 1.902344 -5.882812 1.859375 -6.015625 1.859375 -6.324219 C 1.859375 -6.589844 1.902344 -6.679688 1.945312 -6.503906 C 1.992188 -6.371094 1.992188 -6.105469 1.945312 -6.015625 Z M 2.167969 -7.917969 C 2.035156 -6.902344 2.035156 -6.902344 1.992188 -7.5625 C 1.945312 -9.113281 3.183594 -14.640625 4.46875 -18.753906 C 4.777344 -19.816406 5.132812 -20.703125 5.21875 -20.703125 C 5.308594 -20.703125 5.308594 -20.65625 5.265625 -20.570312 C 4.953125 -20.039062 3.140625 -13.136719 2.566406 -10.351562 C 2.433594 -9.597656 2.257812 -8.492188 2.167969 -7.917969 Z M 3.097656 -10.042969 C 3.050781 -9.953125 3.007812 -10.042969 3.007812 -10.261719 C 3.007812 -10.484375 3.050781 -10.617188 3.097656 -10.484375 C 3.140625 -10.351562 3.140625 -10.175781 3.097656 -10.042969 Z M 3.273438 -10.835938 C 3.230469 -10.75 3.183594 -10.882812 3.183594 -11.058594 C 3.183594 -11.234375 3.230469 -11.28125 3.273438 -11.148438 C 3.316406 -11.015625 3.316406 -10.882812 3.273438 -10.835938 Z M 3.582031 -12.339844 C 3.539062 -12.296875 3.496094 -12.386719 3.496094 -12.5625 C 3.539062 -12.738281 3.582031 -12.785156 3.628906 -12.652344 C 3.671875 -12.519531 3.671875 -12.386719 3.582031 -12.339844 Z M 3.847656 -13.316406 C 3.714844 -12.960938 3.714844 -12.960938 3.714844 -13.226562 C 3.714844 -13.402344 3.761719 -13.757812 3.847656 -13.976562 C 3.9375 -14.332031 3.980469 -14.332031 3.980469 -14.066406 C 3.980469 -13.890625 3.894531 -13.535156 3.847656 -13.316406 Z M 4.113281 -14.507812 C 4.070312 -14.464844 4.023438 -14.554688 4.023438 -14.730469 C 4.023438 -14.953125 4.070312 -14.996094 4.113281 -14.863281 C 4.15625 -14.730469 4.15625 -14.597656 4.113281 -14.507812 Z M 4.289062 -15.21875 C 4.203125 -15.128906 4.203125 -15.261719 4.203125 -15.4375 C 4.203125 -15.613281 4.246094 -15.660156 4.289062 -15.527344 C 4.335938 -15.394531 4.335938 -15.261719 4.289062 -15.21875 Z M 5.132812 -18.179688 C 4.777344 -17.117188 4.511719 -16.367188 4.511719 -16.457031 C 4.511719 -16.808594 5.574219 -20.4375 5.660156 -20.257812 C 5.660156 -20.171875 5.441406 -19.242188 5.132812 -18.179688 Z M 8.582031 -28.972656 C 7.960938 -28.972656 6.324219 -27.957031 4.953125 -26.71875 C 4.15625 -26.011719 4.15625 -25.964844 4.378906 -25.480469 C 4.511719 -25.125 4.6875 -24.992188 4.867188 -25.035156 C 5.042969 -25.082031 5.175781 -24.992188 5.175781 -24.90625 C 5.175781 -24.816406 5.351562 -24.859375 5.574219 -25.035156 C 5.792969 -25.214844 5.839844 -25.257812 5.75 -25.125 C 5.53125 -24.859375 5.441406 -24.242188 5.617188 -24.0625 C 5.839844 -23.84375 6.324219 -24.019531 6.589844 -24.460938 C 7.078125 -25.257812 8.582031 -26.628906 9.332031 -26.984375 C 9.730469 -27.160156 10.085938 -27.425781 10.085938 -27.558594 C 10.085938 -27.78125 8.847656 -28.972656 8.582031 -28.972656 Z M 8.582031 -28.972656 "/></g></g></g><g fill="#000000" fill-opacity="1"><g transform="translate(223.429365, 233.499741)"><g><path d="M 5.351562 -1.859375 C 4.910156 -1.679688 4.554688 -1.503906 4.554688 -1.371094 C 4.554688 -1.015625 6.105469 -0.265625 7.121094 -0.175781 C 7.960938 -0.0898438 8.183594 -0.132812 8.847656 -0.53125 C 11.234375 -1.945312 14.640625 -7.078125 16.144531 -11.5 C 16.675781 -13.09375 16.898438 -15.878906 16.542969 -16.855469 C 16.367188 -17.472656 15.039062 -18.84375 14.640625 -18.84375 C 14.507812 -18.84375 14.289062 -19.019531 14.109375 -19.199219 C 13.226562 -20.125 11.988281 -20.304688 10.570312 -19.640625 C 9.511719 -19.066406 7.386719 -16.941406 6.191406 -15.171875 C 5.75 -14.507812 5.351562 -13.976562 5.308594 -13.976562 C 5.21875 -14.109375 6.855469 -19.285156 7.609375 -21.320312 C 8.757812 -24.285156 10.085938 -27.292969 11.679688 -30.523438 C 12.519531 -32.160156 13.183594 -33.707031 13.183594 -33.882812 C 13.183594 -34.0625 12.917969 -34.328125 12.605469 -34.546875 C 12.253906 -34.769531 11.945312 -35.078125 11.898438 -35.253906 C 11.722656 -35.785156 11.101562 -35.652344 10.351562 -34.988281 C 8.316406 -33.042969 4.335938 -25.035156 2.390625 -18.976562 C 0.488281 -12.917969 -0.53125 -6.371094 -0.132812 -2.832031 C 0.0898438 -0.753906 0.132812 -0.664062 0.707031 -0.398438 C 1.238281 -0.0898438 1.546875 -0.0898438 1.769531 -0.398438 C 1.8125 -0.488281 1.859375 -0.441406 1.902344 -0.308594 C 1.902344 -0.175781 1.992188 -0.132812 2.125 -0.175781 C 2.300781 -0.265625 2.390625 -0.175781 2.390625 -0.0898438 C 2.390625 0.0429688 2.476562 0.222656 2.609375 0.355469 C 2.832031 0.574219 3.40625 0.53125 3.628906 0.308594 C 3.671875 0.222656 3.714844 -0.398438 3.714844 -0.972656 C 3.761719 -5.265625 6.457031 -11.191406 9.953125 -14.773438 C 11.101562 -15.878906 12.605469 -16.984375 13.003906 -16.984375 C 13.269531 -16.984375 13.183594 -16.144531 12.652344 -14.15625 C 11.234375 -8.539062 7.742188 -2.699219 5.351562 -1.859375 Z M 1.546875 -9.820312 C 1.546875 -10.042969 1.59375 -10.085938 1.679688 -9.953125 C 1.726562 -9.820312 1.726562 -9.6875 1.636719 -9.597656 C 1.59375 -9.554688 1.546875 -9.644531 1.546875 -9.820312 Z M 1.148438 -5.882812 C 1.105469 -5.75 1.0625 -5.925781 1.0625 -6.28125 C 1.105469 -6.636719 1.105469 -6.769531 1.148438 -6.589844 C 1.195312 -6.371094 1.195312 -6.058594 1.148438 -5.882812 Z M 1.328125 -7.429688 C 1.28125 -7.253906 1.238281 -7.386719 1.238281 -7.695312 C 1.238281 -8.050781 1.28125 -8.183594 1.328125 -8.007812 C 1.371094 -7.828125 1.371094 -7.5625 1.328125 -7.429688 Z M 1.414062 -8.890625 C 1.414062 -9.113281 1.460938 -9.199219 1.503906 -9.113281 C 1.546875 -8.980469 1.546875 -8.804688 1.503906 -8.671875 C 1.460938 -8.582031 1.414062 -8.671875 1.414062 -8.890625 Z M 1.769531 -7.121094 C 1.726562 -6.414062 1.59375 -5.792969 1.546875 -5.792969 C 1.371094 -5.660156 1.503906 -6.8125 1.902344 -9.289062 C 2.964844 -15.703125 5.21875 -22.515625 8.492188 -28.972656 C 9.511719 -31.007812 11.191406 -33.929688 11.5 -34.105469 C 11.589844 -34.148438 11.234375 -33.53125 10.75 -32.777344 C 8.847656 -29.769531 6.058594 -23.578125 4.601562 -19.242188 C 3.316406 -15.347656 2.035156 -9.863281 1.769531 -7.121094 Z M 2.519531 -8.671875 C 2.433594 -8.582031 2.433594 -8.671875 2.433594 -8.890625 C 2.433594 -9.113281 2.433594 -9.199219 2.519531 -9.113281 C 2.566406 -8.980469 2.566406 -8.804688 2.519531 -8.671875 Z M 2.652344 -9.6875 C 2.609375 -9.597656 2.566406 -9.6875 2.566406 -9.910156 C 2.566406 -10.128906 2.609375 -10.21875 2.652344 -10.128906 C 2.699219 -9.996094 2.699219 -9.820312 2.652344 -9.6875 Z M 3.183594 -12.03125 C 2.964844 -11.101562 2.742188 -10.394531 2.742188 -10.527344 C 2.699219 -10.792969 3.496094 -14.15625 4.070312 -16.234375 C 5.132812 -20.039062 6.636719 -23.886719 8.714844 -28.222656 C 9.910156 -30.699219 11.765625 -34.015625 11.945312 -34.015625 C 11.988281 -34.015625 11.898438 -33.75 11.679688 -33.484375 C 8.582031 -28.308594 5.660156 -21.453125 4.113281 -15.660156 C 3.804688 -14.554688 3.40625 -12.960938 3.183594 -12.03125 Z M 11.988281 -7.519531 C 11.988281 -7.609375 12.074219 -7.742188 12.164062 -7.785156 C 12.253906 -7.875 12.296875 -7.785156 12.253906 -7.652344 C 12.121094 -7.34375 11.988281 -7.296875 11.988281 -7.519531 Z M 14.863281 -12.828125 C 14.863281 -12.429688 13.667969 -9.378906 13.003906 -8.050781 C 12.652344 -7.34375 12.253906 -6.636719 12.121094 -6.457031 C 11.988281 -6.28125 12.253906 -6.945312 12.785156 -8.007812 C 13.316406 -9.066406 13.976562 -10.617188 14.289062 -11.457031 C 14.597656 -12.339844 14.863281 -12.917969 14.863281 -12.828125 Z M 14.023438 -14.199219 C 14.023438 -14.421875 14.066406 -14.464844 14.15625 -14.332031 C 14.199219 -14.199219 14.199219 -14.066406 14.109375 -13.976562 C 14.066406 -13.933594 14.023438 -14.023438 14.023438 -14.199219 Z M 13.84375 -13.359375 C 13.933594 -13.582031 13.976562 -13.625 13.976562 -13.449219 C 13.976562 -13.316406 13.933594 -13.050781 13.84375 -12.871094 C 13.757812 -12.652344 13.710938 -12.605469 13.710938 -12.785156 C 13.710938 -12.917969 13.757812 -13.183594 13.84375 -13.359375 Z M 13.316406 -10.484375 C 13.625 -11.324219 14.109375 -12.785156 14.375 -13.757812 C 14.640625 -14.773438 14.863281 -15.4375 14.863281 -15.261719 C 14.863281 -14.820312 14.554688 -13.535156 13.976562 -11.855469 C 13.710938 -11.015625 13.269531 -9.863281 13.003906 -9.332031 C 12.429688 -8.183594 12.472656 -8.359375 13.316406 -10.484375 Z M 13.316406 -10.484375 "/></g></g></g><g fill="#000000" fill-opacity="1"><g transform="translate(241.208447, 233.499741)"><g><path d="M 14.199219 -21.277344 C 13.136719 -21.808594 12.828125 -21.894531 12.296875 -21.808594 C 11.324219 -21.632812 10.085938 -20.921875 9.066406 -19.949219 C 8.492188 -19.464844 8.183594 -19.242188 8.273438 -19.417969 C 8.316406 -19.640625 8.539062 -20.304688 8.714844 -20.96875 C 9.066406 -22.074219 9.066406 -22.207031 8.804688 -22.472656 C 8.671875 -22.605469 8.449219 -22.738281 8.316406 -22.738281 C 8.140625 -22.738281 7.875 -22.914062 7.695312 -23.136719 C 7.253906 -23.710938 6.988281 -23.664062 6.28125 -22.914062 C 3.671875 -19.996094 0.398438 -9.644531 0.132812 -3.40625 L 0.0429688 -0.882812 L 0.574219 -0.488281 C 1.195312 -0.0429688 1.195312 -0.0429688 1.503906 -0.398438 C 1.679688 -0.53125 1.769531 -0.574219 1.769531 -0.488281 C 1.769531 -0.132812 2.125 -0.308594 2.125 -0.664062 C 2.167969 -1.015625 2.167969 -1.015625 2.210938 -0.707031 C 2.257812 -0.53125 2.34375 -0.222656 2.390625 0 C 2.476562 0.441406 2.964844 0.488281 3.363281 0.132812 C 3.496094 0 3.671875 -0.574219 3.714844 -1.105469 C 4.070312 -4.378906 4.601562 -6.238281 6.058594 -9.644531 C 8.226562 -14.640625 10.527344 -17.871094 12.738281 -19.152344 C 13.933594 -19.863281 14.289062 -19.816406 14.863281 -19.109375 C 15.085938 -18.753906 15.394531 -18.488281 15.527344 -18.488281 C 15.660156 -18.488281 15.792969 -18.445312 15.792969 -18.3125 C 15.792969 -17.960938 16.324219 -18.269531 16.457031 -18.667969 C 16.675781 -19.597656 16.058594 -20.304688 14.199219 -21.277344 Z M 6.855469 -21.1875 C 6.945312 -21.410156 7.078125 -21.542969 7.121094 -21.542969 C 7.167969 -21.542969 7.121094 -21.410156 6.988281 -21.1875 C 6.902344 -21.011719 6.769531 -20.878906 6.722656 -20.878906 C 6.679688 -20.878906 6.722656 -21.011719 6.855469 -21.1875 Z M 6.503906 -20.4375 C 6.589844 -20.523438 6.636719 -20.4375 6.546875 -20.304688 C 6.457031 -19.996094 6.324219 -19.949219 6.324219 -20.171875 C 6.324219 -20.257812 6.414062 -20.390625 6.503906 -20.4375 Z M 3.714844 -12.429688 C 3.40625 -11.28125 3.097656 -10.308594 3.050781 -10.261719 C 2.875 -10.128906 3.097656 -10.882812 3.980469 -13.890625 C 4.734375 -16.410156 5.972656 -19.597656 6.105469 -19.464844 C 6.148438 -19.417969 5.925781 -18.886719 5.660156 -18.226562 C 5.042969 -16.675781 4.421875 -14.953125 3.714844 -12.429688 Z M 7.828125 -21.808594 C 7.695312 -21.542969 6.988281 -19.996094 6.371094 -18.578125 C 6.058594 -17.914062 5.574219 -16.542969 5.21875 -15.527344 C 4.644531 -13.710938 4.335938 -13.050781 4.554688 -14.023438 C 5 -15.792969 7.253906 -21.367188 7.695312 -21.808594 C 7.828125 -21.894531 7.875 -21.894531 7.828125 -21.808594 Z M 7.828125 -21.808594 "/></g></g></g><g fill="#000000" fill-opacity="1"><g transform="translate(256.953112, 233.499741)"><g><path d="M 9.113281 -19.683594 C 7.035156 -19.066406 5.21875 -17.648438 3.40625 -15.394531 C 0.265625 -11.5 -0.929688 -6.28125 0.53125 -3.230469 C 1.0625 -2.167969 2.167969 -1.148438 3.761719 -0.222656 C 5.085938 0.53125 5.21875 0.53125 6.324219 0.488281 C 7.078125 0.441406 7.785156 0.308594 8.183594 0.0898438 C 10.660156 -1.105469 14.773438 -7.121094 13.449219 -7.609375 C 13.269531 -7.695312 12.917969 -7.34375 12.429688 -6.589844 C 11.988281 -5.972656 11.101562 -4.910156 10.441406 -4.203125 C 8.890625 -2.652344 6.945312 -1.636719 5.398438 -1.503906 L 4.378906 -1.460938 L 4.023438 -2.257812 C 3.714844 -2.964844 3.671875 -3.273438 3.761719 -4.867188 C 3.847656 -6.503906 4.46875 -9.023438 4.734375 -8.847656 C 6.8125 -7.695312 8.671875 -8.007812 10.75 -9.820312 C 13.136719 -11.945312 14.730469 -16.367188 13.625 -17.960938 C 13.402344 -18.269531 13.183594 -18.535156 13.136719 -18.535156 C 13.09375 -18.535156 12.695312 -18.800781 12.253906 -19.199219 C 11.191406 -20.039062 10.527344 -20.125 9.113281 -19.683594 Z M 1.460938 -7.609375 C 1.414062 -7.5625 1.371094 -7.652344 1.371094 -7.828125 C 1.371094 -8.007812 1.414062 -8.050781 1.460938 -7.917969 C 1.546875 -7.785156 1.503906 -7.652344 1.460938 -7.609375 Z M 1.546875 -8.582031 C 1.546875 -8.714844 1.636719 -8.980469 1.726562 -9.15625 C 1.8125 -9.378906 1.859375 -9.421875 1.859375 -9.246094 C 1.859375 -9.113281 1.769531 -8.847656 1.726562 -8.671875 C 1.59375 -8.449219 1.546875 -8.40625 1.546875 -8.582031 Z M 1.636719 -6.636719 C 1.769531 -7.652344 2.125 -9.15625 2.476562 -9.996094 C 2.875 -11.015625 2.875 -10.617188 2.433594 -9.246094 C 2.210938 -8.539062 1.945312 -7.476562 1.8125 -6.902344 C 1.59375 -5.882812 1.546875 -5.839844 1.636719 -6.636719 Z M 2.476562 -7.429688 C 2.433594 -7.386719 2.390625 -7.476562 2.390625 -7.652344 C 2.390625 -7.875 2.433594 -7.875 2.476562 -7.742188 C 2.519531 -7.652344 2.519531 -7.476562 2.476562 -7.429688 Z M 3.183594 -9.910156 C 3.183594 -9.777344 3.050781 -9.289062 2.875 -8.804688 C 2.609375 -8.183594 2.566406 -8.09375 2.652344 -8.539062 C 2.785156 -9.199219 3.230469 -10.308594 3.183594 -9.910156 Z M 5.53125 -14.15625 C 5.792969 -14.375 5.792969 -14.375 5.617188 -14.109375 C 5.398438 -13.800781 5.265625 -13.710938 5.265625 -13.84375 C 5.265625 -13.890625 5.398438 -14.023438 5.53125 -14.15625 Z M 3.714844 -12.296875 C 3.628906 -12.074219 3.496094 -11.945312 3.449219 -11.945312 C 3.40625 -11.945312 3.449219 -12.074219 3.539062 -12.296875 C 3.671875 -12.472656 3.761719 -12.605469 3.804688 -12.605469 C 3.847656 -12.605469 3.804688 -12.472656 3.714844 -12.296875 Z M 4.644531 -12.652344 C 4.289062 -12.074219 3.980469 -11.589844 3.9375 -11.589844 C 3.804688 -11.589844 4.777344 -13.269531 5.042969 -13.492188 C 5.175781 -13.582031 5 -13.226562 4.644531 -12.652344 Z M 12.164062 -14.023438 C 12.164062 -13.933594 12.03125 -13.710938 11.898438 -13.535156 C 11.632812 -13.226562 11.632812 -13.226562 11.8125 -13.625 C 12.074219 -14.15625 12.164062 -14.242188 12.164062 -14.023438 Z M 11.765625 -17.296875 C 11.945312 -17.074219 11.414062 -15.21875 10.882812 -14.109375 C 10.085938 -12.519531 8.804688 -11.148438 7.519531 -10.570312 C 6.589844 -10.128906 5.265625 -9.910156 5.265625 -10.21875 C 5.265625 -10.484375 6.679688 -12.652344 7.652344 -13.933594 C 9.023438 -15.613281 11.457031 -17.605469 11.765625 -17.296875 Z M 11.765625 -17.296875 "/></g></g></g></svg>