<svg xmlns="http://www.w3.org/2000/svg" xmlns:xlink="http://www.w3.org/1999/xlink" width="500" zoomAndPan="magnify" viewBox="0 0 375 374.999991" height="500" preserveAspectRatio="xMidYMid meet" version="1.0"><defs><clipPath id="id1"><path d="M 129 111.292969 L 246.535156 111.292969 L 246.535156 189.292969 L 129 189.292969 Z M 129 111.292969 " clip-rule="nonzero"/></clipPath><clipPath id="id2"><path d="M 155 135 L 220.988281 135 L 220.988281 163.613281 L 155 163.613281 Z M 155 135 " clip-rule="nonzero"/></clipPath><clipPath id="id3"><path d="M 154.238281 130 L 188 130 L 188 162 L 154.238281 162 Z M 154.238281 130 " clip-rule="nonzero"/></clipPath><clipPath id="id4"><path d="M 154.238281 130 L 189 130 L 189 162 L 154.238281 162 Z M 154.238281 130 " clip-rule="nonzero"/></clipPath><clipPath id="id5"><path d="M 159 126.113281 L 188 126.113281 L 188 162 L 159 162 Z M 159 126.113281 " clip-rule="nonzero"/></clipPath><clipPath id="id6"><path d="M 159 126.113281 L 189 126.113281 L 189 162 L 159 162 Z M 159 126.113281 " clip-rule="nonzero"/></clipPath><clipPath id="id7"><path d="M 187 130 L 220.988281 130 L 220.988281 162 L 187 162 Z M 187 130 " clip-rule="nonzero"/></clipPath><clipPath id="id8"><path d="M 187 126.113281 L 216 126.113281 L 216 162 L 187 162 Z M 187 126.113281 " clip-rule="nonzero"/></clipPath></defs><g clip-path="url(#id1)"><path fill="#00c2cb" d="M 230.582031 111.292969 L 144.832031 111.292969 C 140.816406 111.292969 137.535156 114.558594 137.535156 118.550781 L 137.535156 175.324219 C 137.261719 175.507812 136.988281 175.6875 136.714844 175.960938 L 130.234375 183.214844 C 129.324219 184.304688 129.050781 185.847656 129.597656 187.117188 C 130.234375 188.476562 131.511719 189.292969 132.972656 189.292969 L 242.441406 189.292969 C 243.902344 189.292969 245.179688 188.476562 245.726562 187.117188 C 246.273438 185.847656 246.089844 184.304688 245.085938 183.214844 L 238.609375 175.960938 C 238.335938 175.6875 238.0625 175.507812 237.789062 175.324219 L 237.789062 118.550781 C 237.878906 114.558594 234.597656 111.292969 230.582031 111.292969 Z M 141.183594 118.550781 C 141.183594 116.554688 142.824219 114.921875 144.832031 114.921875 L 230.582031 114.921875 C 232.589844 114.921875 234.230469 116.554688 234.230469 118.550781 L 234.230469 174.78125 L 141.183594 174.78125 Z M 242.441406 185.664062 L 132.972656 185.664062 L 139.449219 178.410156 L 235.964844 178.410156 Z M 242.441406 185.664062 " fill-opacity="1" fill-rule="nonzero"/></g><path fill="#00c2cb" d="M 226.933594 118.550781 L 148.480469 118.550781 C 146.472656 118.550781 144.832031 120.183594 144.832031 122.175781 L 144.832031 167.527344 C 144.832031 169.519531 146.472656 171.152344 148.480469 171.152344 L 226.933594 171.152344 C 228.941406 171.152344 230.582031 169.519531 230.582031 167.527344 L 230.582031 122.175781 C 230.582031 120.183594 228.941406 118.550781 226.933594 118.550781 Z M 178.675781 141.042969 L 183.875 135.871094 C 184.605469 135.148438 185.699219 135.148438 186.429688 135.871094 C 187.160156 136.597656 187.160156 137.6875 186.429688 138.410156 L 181.230469 143.582031 C 180.867188 143.945312 180.410156 144.125 179.953125 144.125 C 179.496094 144.125 179.042969 143.945312 178.675781 143.582031 C 177.945312 142.855469 177.945312 141.675781 178.675781 141.042969 Z M 181.230469 153.105469 C 180.773438 153.105469 180.316406 152.921875 179.953125 152.5625 C 179.222656 151.835938 179.222656 150.746094 179.953125 150.019531 L 192.816406 137.234375 C 193.546875 136.507812 194.640625 136.507812 195.371094 137.234375 C 196.101562 137.957031 196.101562 139.046875 195.371094 139.773438 L 182.507812 152.5625 C 182.234375 152.921875 181.6875 153.105469 181.230469 153.105469 Z M 196.738281 148.660156 L 191.539062 153.832031 C 191.175781 154.195312 190.71875 154.375 190.261719 154.375 C 189.804688 154.375 189.347656 154.195312 188.984375 153.832031 C 188.253906 153.105469 188.253906 152.015625 188.984375 151.292969 L 194.183594 146.121094 C 194.914062 145.394531 196.007812 145.394531 196.738281 146.121094 C 197.46875 146.847656 197.46875 148.027344 196.738281 148.660156 Z M 196.738281 148.660156 " fill-opacity="1" fill-rule="nonzero"/><path fill="#00c2cb" d="M 144.886719 127.722656 L 229.617188 127.722656 L 229.617188 162.222656 L 144.886719 162.222656 L 144.886719 127.722656 " fill-opacity="1" fill-rule="nonzero"/><path fill="#ffffff" d="M 218.71875 161.332031 L 216.074219 137.203125 L 188.601562 137.203125 L 188.601562 137.042969 L 186.652344 137.042969 L 186.652344 137.203125 L 159.183594 137.203125 L 156.539062 161.332031 L 186.652344 161.332031 L 186.652344 161.199219 C 186.652344 161.734375 187.089844 162.167969 187.628906 162.167969 C 188.164062 162.167969 188.601562 161.734375 188.601562 161.199219 L 188.601562 161.332031 L 218.71875 161.332031 " fill-opacity="1" fill-rule="nonzero"/><g clip-path="url(#id2)"><path fill="#000000" d="M 186.652344 159.769531 C 187.03125 159.769531 187.371094 159.910156 187.628906 160.148438 C 187.882812 159.910156 188.226562 159.769531 188.601562 159.769531 C 188.820312 159.769531 189.023438 159.816406 189.207031 159.902344 L 217.117188 159.902344 L 214.785156 138.632812 L 188.601562 138.632812 C 188.363281 138.632812 188.136719 138.574219 187.941406 138.472656 L 187.316406 138.472656 C 187.117188 138.574219 186.894531 138.632812 186.652344 138.632812 L 160.472656 138.632812 L 158.140625 159.902344 L 186.050781 159.902344 C 186.234375 159.816406 186.4375 159.769531 186.652344 159.769531 Z M 187.628906 163.601562 C 186.898438 163.601562 186.242188 163.273438 185.800781 162.761719 L 156.539062 162.761719 C 156.128906 162.761719 155.742188 162.589844 155.46875 162.285156 C 155.195312 161.984375 155.066406 161.582031 155.113281 161.175781 L 157.757812 137.046875 C 157.835938 136.320312 158.453125 135.773438 159.183594 135.773438 L 185.992188 135.773438 C 186.191406 135.667969 186.414062 135.609375 186.652344 135.609375 L 188.601562 135.609375 C 188.839844 135.609375 189.066406 135.667969 189.265625 135.773438 L 216.074219 135.773438 C 216.804688 135.773438 217.421875 136.320312 217.5 137.046875 L 220.144531 161.175781 C 220.1875 161.582031 220.058594 161.984375 219.785156 162.285156 C 219.515625 162.589844 219.125 162.761719 218.71875 162.761719 L 189.457031 162.761719 C 189.011719 163.273438 188.359375 163.601562 187.628906 163.601562 " fill-opacity="1" fill-rule="nonzero"/></g><path fill="#ffffff" d="M 187.605469 137.121094 C 187.605469 137.121094 181.175781 128.933594 173.1875 133.785156 C 165.203125 138.640625 158.613281 135.144531 158.613281 135.144531 L 155.96875 159.28125 C 155.96875 159.28125 165.203125 162.777344 173.1875 157.921875 C 181.175781 153.070312 187.605469 161.257812 187.605469 161.257812 L 187.605469 137.121094 " fill-opacity="1" fill-rule="nonzero"/><path fill="#000000" d="M 178.363281 155.957031 C 182.546875 155.957031 185.765625 158.691406 187.171875 160.132812 L 187.171875 137.277344 C 186.570312 136.566406 183.050781 132.679688 178.363281 132.679688 C 176.6875 132.679688 175.023438 133.175781 173.414062 134.152344 C 170.53125 135.90625 167.507812 136.792969 164.429688 136.792969 C 161.824219 136.792969 159.882812 136.152344 158.976562 135.78125 L 156.433594 158.988281 C 157.332031 159.28125 160.070312 160.070312 163.460938 160.070312 C 167.023438 160.070312 170.21875 159.222656 172.964844 157.554688 C 174.710938 156.496094 176.527344 155.957031 178.363281 155.957031 Z M 187.605469 161.6875 C 187.472656 161.6875 187.347656 161.628906 187.265625 161.523438 C 187.226562 161.476562 183.5 156.816406 178.363281 156.816406 C 176.6875 156.816406 175.023438 157.3125 173.414062 158.289062 C 170.53125 160.039062 167.183594 160.929688 163.460938 160.929688 C 159.152344 160.929688 155.949219 159.734375 155.8125 159.683594 C 155.628906 159.613281 155.515625 159.429688 155.539062 159.234375 L 158.183594 135.097656 C 158.199219 134.957031 158.285156 134.832031 158.410156 134.765625 C 158.535156 134.699219 158.6875 134.699219 158.8125 134.765625 C 158.835938 134.777344 161.066406 135.933594 164.429688 135.933594 C 167.347656 135.933594 170.21875 135.089844 172.964844 133.421875 C 174.710938 132.359375 176.527344 131.820312 178.363281 131.820312 C 183.925781 131.820312 187.78125 136.652344 187.945312 136.859375 C 188.003906 136.933594 188.035156 137.027344 188.035156 137.121094 L 188.035156 161.257812 C 188.035156 161.441406 187.917969 161.605469 187.746094 161.664062 C 187.699219 161.679688 187.652344 161.6875 187.605469 161.6875 " fill-opacity="1" fill-rule="nonzero"/><g clip-path="url(#id3)"><path fill="#ffffff" d="M 187.605469 137.363281 C 187.605469 137.363281 183.777344 128.039062 173.648438 131.144531 C 163.519531 134.25 164.339844 133.769531 157.328125 131.050781 L 154.683594 154.945312 C 161.695312 157.664062 163.519531 158.144531 173.648438 155.039062 C 183.777344 151.933594 187.605469 161.257812 187.605469 161.257812 L 187.605469 137.363281 " fill-opacity="1" fill-rule="nonzero"/></g><g clip-path="url(#id4)"><path fill="#000000" d="M 177.609375 153.976562 C 182.824219 153.976562 185.839844 157.484375 187.171875 159.578125 L 187.171875 137.453125 C 186.847656 136.730469 184.019531 130.9375 177.609375 130.9375 C 176.394531 130.9375 175.105469 131.144531 173.777344 131.554688 C 168.765625 133.089844 166.53125 133.714844 164.605469 133.714844 C 162.847656 133.714844 161.507812 133.179688 159.078125 132.207031 C 158.652344 132.039062 158.195312 131.855469 157.691406 131.65625 L 155.144531 154.667969 C 158.597656 156 160.738281 156.753906 163.378906 156.753906 C 165.722656 156.753906 168.472656 156.175781 173.523438 154.628906 C 174.933594 154.195312 176.308594 153.976562 177.609375 153.976562 Z M 187.605469 161.6875 C 187.433594 161.6875 187.273438 161.585938 187.207031 161.421875 C 187.179688 161.355469 184.410156 154.835938 177.609375 154.835938 C 176.394531 154.835938 175.105469 155.039062 173.777344 155.449219 C 168.632812 157.023438 165.816406 157.609375 163.378906 157.609375 C 160.515625 157.609375 158.148438 156.75 154.523438 155.347656 C 154.34375 155.277344 154.230469 155.09375 154.253906 154.898438 L 156.898438 131.003906 C 156.914062 130.871094 156.988281 130.753906 157.105469 130.683594 C 157.21875 130.617188 157.359375 130.605469 157.484375 130.652344 C 158.195312 130.929688 158.828125 131.183594 159.398438 131.410156 C 161.730469 132.34375 163.011719 132.859375 164.605469 132.859375 C 166.40625 132.859375 168.707031 132.210938 173.523438 130.734375 C 174.933594 130.300781 176.308594 130.082031 177.609375 130.082031 C 184.996094 130.082031 187.972656 137.128906 188.003906 137.203125 C 188.023438 137.253906 188.035156 137.308594 188.035156 137.363281 L 188.035156 161.257812 C 188.035156 161.464844 187.890625 161.640625 187.6875 161.679688 C 187.660156 161.683594 187.632812 161.6875 187.605469 161.6875 " fill-opacity="1" fill-rule="nonzero"/></g><g clip-path="url(#id5)"><path fill="#ffffff" d="M 175.214844 126.957031 C 167.566406 127.800781 170.15625 129.96875 162.339844 127.089844 L 159.691406 151.140625 C 167.511719 154.019531 167.566406 151.855469 175.214844 151.007812 C 182.867188 150.160156 187.605469 161.257812 187.605469 161.257812 L 187.605469 137.207031 C 187.605469 137.207031 182.867188 126.109375 175.214844 126.957031 " fill-opacity="1" fill-rule="nonzero"/></g><g clip-path="url(#id6)"><path fill="#000000" d="M 176.046875 150.53125 C 181.660156 150.53125 185.558594 156.425781 187.171875 159.410156 L 187.171875 137.296875 C 186.75 136.359375 182.515625 127.339844 176.046875 127.339844 C 175.789062 127.339844 175.523438 127.351562 175.261719 127.382812 C 172.582031 127.679688 171.171875 128.144531 170.140625 128.484375 C 169.324219 128.753906 168.675781 128.964844 167.816406 128.964844 C 166.703125 128.964844 165.289062 128.613281 162.707031 127.679688 L 160.160156 150.851562 C 162.691406 151.765625 164.453125 152.15625 166.003906 152.15625 C 167.261719 152.15625 168.339844 151.902344 169.707031 151.574219 C 171.0625 151.25 172.753906 150.847656 175.167969 150.582031 C 175.460938 150.546875 175.757812 150.53125 176.046875 150.53125 Z M 187.605469 161.6875 C 187.433594 161.6875 187.277344 161.589844 187.207031 161.425781 C 187.164062 161.328125 182.835938 151.390625 176.046875 151.390625 C 175.789062 151.390625 175.523438 151.40625 175.261719 151.433594 C 172.902344 151.695312 171.242188 152.089844 169.90625 152.410156 C 168.484375 152.75 167.363281 153.015625 166.003906 153.015625 C 164.28125 153.015625 162.347656 152.574219 159.542969 151.542969 C 159.359375 151.476562 159.242188 151.289062 159.265625 151.09375 L 161.910156 127.042969 C 161.925781 126.910156 162 126.792969 162.113281 126.722656 C 162.222656 126.652344 162.363281 126.640625 162.488281 126.683594 C 165.261719 127.707031 166.757812 128.105469 167.816406 128.105469 C 168.539062 128.105469 169.097656 127.921875 169.871094 127.667969 C 170.9375 127.316406 172.398438 126.835938 175.167969 126.527344 C 175.460938 126.496094 175.757812 126.480469 176.046875 126.480469 C 183.40625 126.480469 187.816406 136.605469 188 137.039062 C 188.023438 137.09375 188.035156 137.148438 188.035156 137.207031 L 188.035156 161.257812 C 188.035156 161.460938 187.890625 161.636719 187.691406 161.679688 C 187.660156 161.683594 187.632812 161.6875 187.605469 161.6875 " fill-opacity="1" fill-rule="nonzero"/></g><path fill="#ffffff" d="M 187.605469 137.121094 C 187.605469 137.121094 194.03125 128.933594 202.019531 133.785156 C 210.007812 138.640625 216.597656 135.144531 216.597656 135.144531 L 219.242188 159.28125 C 219.242188 159.28125 210.007812 162.777344 202.019531 157.921875 C 194.03125 153.070312 187.605469 161.257812 187.605469 161.257812 L 187.605469 137.121094 " fill-opacity="1" fill-rule="nonzero"/><path fill="#000000" d="M 188.035156 137.277344 L 188.035156 160.132812 C 189.441406 158.691406 192.660156 155.957031 196.84375 155.957031 C 198.679688 155.957031 200.496094 156.496094 202.246094 157.554688 C 204.988281 159.226562 208.1875 160.070312 211.746094 160.070312 C 215.144531 160.070312 217.878906 159.28125 218.777344 158.988281 L 216.234375 135.78125 C 215.324219 136.152344 213.382812 136.792969 210.777344 136.792969 C 207.699219 136.792969 204.675781 135.90625 201.796875 134.152344 C 200.1875 133.175781 198.519531 132.679688 196.84375 132.679688 C 192.15625 132.679688 188.640625 136.566406 188.035156 137.277344 Z M 187.605469 161.6875 C 187.558594 161.6875 187.507812 161.679688 187.464844 161.664062 C 187.289062 161.605469 187.171875 161.441406 187.171875 161.257812 L 187.171875 137.121094 C 187.171875 137.027344 187.207031 136.933594 187.265625 136.859375 C 187.425781 136.652344 191.285156 131.820312 196.84375 131.820312 C 198.679688 131.820312 200.496094 132.359375 202.246094 133.421875 C 204.988281 135.089844 207.859375 135.933594 210.777344 135.933594 C 214.15625 135.933594 216.371094 134.777344 216.394531 134.765625 C 216.519531 134.699219 216.671875 134.699219 216.796875 134.765625 C 216.925781 134.832031 217.011719 134.957031 217.023438 135.097656 L 219.671875 159.234375 C 219.691406 159.429688 219.578125 159.613281 219.394531 159.683594 C 219.261719 159.734375 216.054688 160.929688 211.746094 160.929688 C 208.027344 160.929688 204.675781 160.039062 201.796875 158.289062 C 200.1875 157.3125 198.519531 156.816406 196.84375 156.816406 C 191.699219 156.816406 187.980469 161.476562 187.945312 161.523438 C 187.859375 161.628906 187.734375 161.6875 187.605469 161.6875 " fill-opacity="1" fill-rule="nonzero"/><g clip-path="url(#id7)"><path fill="#ffffff" d="M 187.605469 137.363281 C 187.605469 137.363281 191.429688 128.039062 201.558594 131.144531 C 211.6875 134.25 210.867188 133.769531 217.882812 131.050781 L 220.527344 154.945312 C 213.515625 157.664062 211.6875 158.144531 201.558594 155.039062 C 191.429688 151.933594 187.605469 161.257812 187.605469 161.257812 L 187.605469 137.363281 " fill-opacity="1" fill-rule="nonzero"/><path fill="#000000" d="M 188.035156 137.453125 L 188.035156 159.578125 C 189.371094 157.484375 192.386719 153.976562 197.601562 153.976562 C 198.898438 153.976562 200.273438 154.195312 201.6875 154.628906 C 206.738281 156.175781 209.488281 156.753906 211.828125 156.753906 C 214.46875 156.753906 216.609375 156 220.0625 154.667969 L 217.515625 131.65625 C 217.015625 131.851562 216.554688 132.035156 216.128906 132.207031 C 213.699219 133.179688 212.363281 133.714844 210.605469 133.714844 C 208.675781 133.714844 206.445312 133.089844 201.433594 131.554688 C 200.105469 131.144531 198.8125 130.9375 197.601562 130.9375 C 191.175781 130.9375 188.359375 136.730469 188.035156 137.453125 Z M 187.605469 161.6875 C 187.578125 161.6875 187.550781 161.683594 187.519531 161.679688 C 187.320312 161.640625 187.171875 161.464844 187.171875 161.257812 L 187.171875 137.363281 C 187.171875 137.308594 187.183594 137.253906 187.207031 137.203125 C 187.234375 137.128906 190.210938 130.082031 197.601562 130.082031 C 198.898438 130.082031 200.273438 130.300781 201.6875 130.734375 C 206.503906 132.210938 208.804688 132.859375 210.605469 132.859375 C 212.195312 132.859375 213.480469 132.34375 215.808594 131.410156 C 216.378906 131.183594 217.011719 130.929688 217.726562 130.652344 C 217.851562 130.605469 217.992188 130.617188 218.105469 130.683594 C 218.21875 130.753906 218.296875 130.871094 218.3125 131.003906 L 220.953125 154.898438 C 220.976562 155.09375 220.863281 155.277344 220.683594 155.347656 C 217.058594 156.75 214.695312 157.609375 211.828125 157.609375 C 209.390625 157.609375 206.574219 157.023438 201.433594 155.449219 C 200.105469 155.039062 198.8125 154.835938 197.601562 154.835938 C 190.78125 154.835938 188.03125 161.355469 188.003906 161.421875 C 187.9375 161.585938 187.777344 161.6875 187.605469 161.6875 " fill-opacity="1" fill-rule="nonzero"/></g><g clip-path="url(#id8)"><path fill="#ffffff" d="M 199.992188 126.957031 C 207.640625 127.800781 205.050781 129.96875 212.871094 127.089844 L 215.515625 151.140625 C 207.695312 154.019531 207.640625 151.855469 199.992188 151.007812 C 192.34375 150.160156 187.605469 161.257812 187.605469 161.257812 L 187.605469 137.207031 C 187.605469 137.207031 192.34375 126.109375 199.992188 126.957031 " fill-opacity="1" fill-rule="nonzero"/><path fill="#000000" d="M 188.035156 137.296875 L 188.035156 159.410156 C 189.648438 156.425781 193.546875 150.53125 199.160156 150.53125 C 199.453125 150.53125 199.75 150.546875 200.039062 150.582031 C 202.453125 150.847656 204.144531 151.25 205.503906 151.574219 C 206.867188 151.902344 207.949219 152.15625 209.207031 152.15625 C 210.757812 152.15625 212.519531 151.765625 215.050781 150.851562 L 212.5 127.679688 C 209.917969 128.613281 208.503906 128.964844 207.390625 128.964844 C 206.53125 128.964844 205.886719 128.753906 205.066406 128.484375 C 204.039062 128.144531 202.625 127.679688 199.945312 127.382812 C 199.683594 127.351562 199.421875 127.339844 199.160156 127.339844 C 192.691406 127.339844 188.457031 136.359375 188.035156 137.296875 Z M 187.605469 161.6875 C 187.574219 161.6875 187.546875 161.683594 187.519531 161.679688 C 187.316406 161.636719 187.171875 161.460938 187.171875 161.257812 L 187.171875 137.207031 C 187.171875 137.148438 187.183594 137.09375 187.207031 137.039062 C 187.390625 136.605469 191.800781 126.480469 199.160156 126.480469 C 199.453125 126.480469 199.75 126.496094 200.039062 126.527344 C 202.808594 126.835938 204.273438 127.316406 205.339844 127.667969 C 206.113281 127.921875 206.671875 128.105469 207.390625 128.105469 C 208.453125 128.105469 209.945312 127.707031 212.722656 126.683594 C 212.84375 126.640625 212.984375 126.652344 213.097656 126.722656 C 213.210938 126.792969 213.285156 126.910156 213.296875 127.042969 L 215.945312 151.09375 C 215.964844 151.289062 215.851562 151.476562 215.664062 151.542969 C 212.859375 152.574219 210.929688 153.015625 209.207031 153.015625 C 207.847656 153.015625 206.722656 152.75 205.300781 152.410156 C 203.96875 152.089844 202.304688 151.695312 199.945312 151.433594 C 199.683594 151.40625 199.421875 151.390625 199.160156 151.390625 C 192.371094 151.390625 188.042969 161.328125 188 161.425781 C 187.933594 161.589844 187.773438 161.6875 187.605469 161.6875 " fill-opacity="1" fill-rule="nonzero"/></g></svg>